<svg id="katman_1" data-name="katman 1" xmlns="http://www.w3.org/2000/svg" viewBox="0 0 731.27988 678.91414"><defs><style>.cls-1{fill:none;stroke:#f90;stroke-linecap:round;stroke-width:1.232px;}</style></defs><path class="cls-1" d="M444.5,429.5c-.25966-7.27209,20.7037-18.54781,38-14,29.90225,7.86237,36.90109,59.87831,31,63-3.63795,1.92448-10.29306-15.73109-35-31C458.63535,435.22363,444.70967,435.372,444.5,429.5Z" transform="translate(-205.33509 -177.42933)"/><path class="cls-1" d="M432.5,390.5c8.88937-1.71244,67.7894-13.05885,101,27,29.08789,35.086,25.45007,93.90364,5,104-6.56908,3.24319-14.52141,1.28552-74-40-70.414-48.876-77.88967-59.05757-76-68C391.69936,398.35977,420.46689,392.818,432.5,390.5Z" transform="translate(-205.33509 -177.42933)"/><path class="cls-1" d="M400.5,358.5c58.40756-33.2543,158.671-3.30441,193,65,3.5585,7.08034,29.30588,60.41016,1,107-2.69006,4.42767-25.40582,40.63553-62,43-21.56343,1.39328-32.37421-9.97086-106-77-55.47158-50.50148-68.43284-61.43748-68-81C359.2266,382.66072,396.92256,360.53681,400.5,358.5Z" transform="translate(-205.33509 -177.42933)"/><path class="cls-1" d="M398.5,314.5c76.17485-22.67109,178.59244,8.0154,222,87,6.76172,12.30363,45.666,86.87149,6,147-33.645,51.00143-105.55054,63.92368-154,48-34.6657-11.39343-27.21248-27.658-123-129-33.67126-35.62378-47.19877-46.9516-47-67C302.89768,360.38925,357.8299,326.6042,398.5,314.5Z" transform="translate(-205.33509 -177.42933)"/><path class="cls-1" d="M689.5,432.5c2.26947,7.024,32.7565,106.45007-26,173-59.31546,67.183-167.97166,53.73361-231,23-75.26-36.698-104.83344-107.48465-118-139-17.54822-42.00328-46.07126-110.27578-17-158,48.98238-80.41091,243.34918-72.73939,339,18C672.77478,383.91218,686.09628,421.96558,689.5,432.5Z" transform="translate(-205.33509 -177.42933)"/><path class="cls-1" d="M327.5,286.5c59.17444-45.40569,140.37454-25.005,220-5,37.75262,9.48492,69.04059,17.3457,104,41,61.21906,41.42215,129.449,128.4014,112,212-7.09106,33.97351-39.72736,69.31567-105,140-34.031,36.85248-44.975,43.06921-55,47-50.176,19.67383-103.27695-7.74432-158-36-35.49615-18.32806-79.00284-40.7923-118-90-17.00806-21.46124-48.06937-61.63684-57-121C268.9277,464.04871,252.57219,343.99353,327.5,286.5Z" transform="translate(-205.33509 -177.42933)"/><path class="cls-1" d="M314.5,274.5c45.36273-35.80876,98.11865-32.64781,159-29,20.28918,1.21565,124.69916,8.92754,218,77,38.54523,28.12265,60.685,55.96124,69,67,16.568,21.99524,30.06213,39.90961,37,67,9.94867,38.84692.0058,71.53271-12,111-10.95746,36.02106-17.96857,59.069-38,83-7.07025,8.44659-17.4613,19.03271-95,65-37.32776,22.129-55.99164,33.19354-61,35-74.79767,26.97888-150.536-10.36194-164-17-55.366-27.29675-84.60706-68.36127-105-97-36.91949-51.84766-50.13574-100.03967-57-126-11.86176-44.86075-22.05171-83.3988-11-132C258.35205,361.56012,270.19656,309.47256,314.5,274.5Z" transform="translate(-205.33509 -177.42933)"/><path class="cls-1" d="M308.5,256.5c33.2215-23.75232,69.149-25.49088,121-28,66.27991-3.20735,126.48291,12.46492,190,29,25.3172,6.5907,37.97583,9.886,49,14,60.91766,22.73309,160.94568,81.62543,167,159,2.1817,27.88245-10.00623,30.47687-17,99-5.21777,51.12262,1.66321,51.5755-3,73-14.39587,66.14-86.8125,104.79663-164,146-52.13361,27.82935-78.20044,41.74408-109,45-99.52991,10.52173-177.17319-62.43134-198-82-92.23-86.65851-100.91881-200.67807-103-235C238.97551,434.8674,231.49811,311.55389,308.5,256.5Z" transform="translate(-205.33509 -177.42933)"/><path class="cls-1" d="M308.5,237.5c41.21555-25.973,103.477-21.982,228-14a606.07642,606.07642,0,0,1,120,20c71.34894,19.36664,97.55737,40.64545,108,50,11.7074,10.48755,20.47156,21.9917,38,45,30.969,40.65082,46.45355,60.97623,54,83,11.59589,33.84161,1.555,71.68817-19,146-16.39447,59.27039-24.59174,88.90552-36,107-44.08472,69.92194-120.26251,94.96442-166,110-44.26843,14.55267-98.0014,32.21674-160,21-126.06006-22.80664-211.85681-151.54523-238-262C214.99863,448.43192,219.35558,293.67654,308.5,237.5Z" transform="translate(-205.33509 -177.42933)"/><path class="cls-1" d="M295.5,227.5c42.52222-28.59808,93.68146-26.73206,196-23,47.2879,1.72482,107.45154,4.40794,180,31,39.30768,14.40791,79.282,29.06015,118,64,76.74591,69.2569,88.589,161.658,90,174,12.03687,105.28589-42.904,181.45477-62,208-76.44049,106.25952-189.53156,130.38464-214,135-25.51031,4.81183-98.81061,17.6828-179-14-146.7384-57.97626-216.03572-225.4306-214-358C211.08023,406.714,212.98,282.99838,295.5,227.5Z" transform="translate(-205.33509 -177.42933)"/><path class="cls-1" d="M311.45926,197.34361c127.2443-46.863,320.34121,5.40922,347.04374,12.87032,86.98149,24.304,130.47227,36.45594,165.21072,64.46253,73.62716,59.35914,126.46792,166.08973,108.89139,273.647-17.07433,104.48417-93.319,165.19595-160.28948,218.52295C737.48276,794.583,697.09816,826.74024,634.567,844.29521c-11.40681,3.20237-133.17432,35.4906-248.08332-25.19254-.0001-.00006-225.04839-118.84742-172.61049-494.44071,2.43935-17.47221,7.90907-56.6498,37.71007-89.12323C268.72909,216.85534,289.20384,205.54009,311.45926,197.34361Z" transform="translate(-205.33509 -177.42933)"/></svg>