<svg id="katman_1" data-name="katman 1" xmlns="http://www.w3.org/2000/svg" viewBox="0 0 731.27988 678.91414"><defs><style>.cls-1{fill:none;stroke:#2cd1ff;stroke-linecap:round;stroke-width:1.232px;}</style></defs><path class="cls-1" d="M697.45007,604.2728c.25965,7.2721-20.70371,18.54781-38,14-29.90226-7.86236-36.9011-59.87831-31-63,3.638-1.92448,10.29306,15.7311,35,31C683.31472,598.54917,697.24039,598.40076,697.45007,604.2728Z" transform="translate(-205.33509 -177.42933)"/><path class="cls-1" d="M709.45007,643.2728c-8.88938,1.71244-67.7894,13.05886-101-27-29.08789-35.086-25.45008-93.90364-5-104,6.56907-3.24319,14.5214-1.28552,74,40,70.414,48.876,77.88967,59.05757,76,68C750.25071,635.413,721.48318,640.95476,709.45007,643.2728Z" transform="translate(-205.33509 -177.42933)"/><path class="cls-1" d="M741.45007,675.2728c-58.40757,33.2543-158.671,3.30442-193-65-3.55851-7.08034-29.30588-60.41015-1-107,2.69006-4.42767,25.40582-40.63553,62-43,21.56343-1.39328,32.3742,9.97086,106,77,55.47158,50.50148,68.43283,61.43749,68,81C782.72346,651.11208,745.0275,673.236,741.45007,675.2728Z" transform="translate(-205.33509 -177.42933)"/><path class="cls-1" d="M743.45007,719.2728c-76.17485,22.67109-178.59244-8.01539-222-87-6.76172-12.30363-45.666-86.87149-6-147,33.645-51.00143,105.55053-63.92367,154-48,34.66569,11.39344,27.21247,27.658,123,129,33.67125,35.62378,47.19877,46.9516,47,67C839.05238,673.38355,784.12017,707.1686,743.45007,719.2728Z" transform="translate(-205.33509 -177.42933)"/><path class="cls-1" d="M452.45007,601.2728c-2.26947-7.024-32.7565-106.45007,26-173,59.31546-67.183,167.97166-53.73361,231-23,75.26,36.698,104.83344,107.48465,118,139,17.54822,42.00328,46.07126,110.27578,17,158-48.98239,80.41091-243.34919,72.73939-339-18C469.17529,649.86062,455.85378,611.80723,452.45007,601.2728Z" transform="translate(-205.33509 -177.42933)"/><path class="cls-1" d="M814.45007,747.2728c-59.17444,45.40569-140.37455,25.005-220,5-37.75263-9.48492-69.04059-17.3457-104-41-61.21906-41.42215-129.449-128.4014-112-212,7.09106-33.97351,39.72735-69.31567,105-140,34.031-36.85248,44.975-43.06921,55-47,50.176-19.67383,103.27694,7.74433,158,36,35.49615,18.32807,79.00283,40.7923,118,90,17.00805,21.46125,48.06936,61.63684,57,121C873.02236,569.7241,889.37788,689.77927,814.45007,747.2728Z" transform="translate(-205.33509 -177.42933)"/><path class="cls-1" d="M827.45007,759.2728c-45.36274,35.80876-98.11866,32.64781-159,29-20.28919-1.21565-124.69916-8.92753-218-77-38.54523-28.12265-60.685-55.96124-69-67-16.56806-21.99524-30.06214-39.9096-37-67-9.94867-38.84692-.0058-71.53271,12-111,10.95745-36.021,17.96856-59.069,38-83,7.07025-8.44659,17.4613-19.03271,95-65,37.32775-22.129,55.99163-33.19354,61-35,74.79766-26.97888,150.536,10.36194,164,17,55.366,27.29676,84.60705,68.36127,105,97,36.91949,51.84766,50.13574,100.03968,57,126,11.86175,44.86075,22.05171,83.39881,11,132C883.598,672.21268,871.7535,724.30024,827.45007,759.2728Z" transform="translate(-205.33509 -177.42933)"/><path class="cls-1" d="M833.45007,777.2728c-33.2215,23.75232-69.149,25.49088-121,28-66.27991,3.20735-126.48291-12.46492-190-29-25.3172-6.5907-37.97583-9.886-49-14-60.91767-22.73309-160.94568-81.62542-167-159-2.18171-27.88244,10.00622-30.47687,17-99,5.21777-51.12262-1.66321-51.5755,3-73,14.39587-66.14,86.8125-104.79663,164-146,52.1336-27.82934,78.20044-41.74408,109-45,99.5299-10.52173,177.17318,62.43134,198,82,92.23,86.65851,100.9188,200.67807,103,235C902.97456,598.9054,910.452,722.21891,833.45007,777.2728Z" transform="translate(-205.33509 -177.42933)"/><path class="cls-1" d="M833.45007,796.2728c-41.21555,25.973-103.477,21.982-228,14a606.07631,606.07631,0,0,1-120-20c-71.34894-19.36664-97.55738-40.64544-108-50-11.7074-10.48755-20.47156-21.9917-38-45-30.969-40.65082-46.45356-60.97622-54-83-11.59589-33.84161-1.555-71.68817,19-146,16.39447-59.27038,24.59173-88.90552,36-107,44.08471-69.92193,120.26251-94.96441,166-110,44.26843-14.55267,98.0014-32.21673,160-21,126.06005,22.80664,211.85681,151.54523,238,262C926.95144,585.34089,922.59449,740.09626,833.45007,796.2728Z" transform="translate(-205.33509 -177.42933)"/><path class="cls-1" d="M846.45007,806.2728c-42.52222,28.59809-93.68146,26.73206-196,23-47.28791-1.72482-107.45154-4.40794-180-31-39.30768-14.40791-79.282-29.06015-118-64-76.74592-69.25689-88.589-161.658-90-174-12.03687-105.28589,42.90405-181.45477,62-208,76.44049-106.25952,189.53155-130.38464,214-135,25.51031-4.81183,98.8106-17.6828,179,14,146.7384,57.97626,216.03572,225.43061,214,358C930.86983,627.05878,928.97007,750.77442,846.45007,806.2728Z" transform="translate(-205.33509 -177.42933)"/><path class="cls-1" d="M830.4908,836.42919c-127.24429,46.863-320.3412-5.40922-347.04373-12.87032-86.9815-24.304-130.47227-36.45594-165.21072-64.46252-73.62716-59.35915-126.46793-166.08974-108.8914-273.647,17.07433-104.48417,93.319-165.19595,160.28949-218.52295,34.83286-27.73659,75.21747-59.89386,137.7486-77.44883,11.40682-3.20237,133.17433-35.4906,248.08333,25.19254.00009.00006,225.04839,118.84743,172.61049,494.44071-2.43935,17.47221-7.90908,56.6498-37.71008,89.12323C873.221,816.91746,852.74622,828.23271,830.4908,836.42919Z" transform="translate(-205.33509 -177.42933)"/></svg>