<svg xmlns="http://www.w3.org/2000/svg" xmlns:xlink="http://www.w3.org/1999/xlink" viewBox="0 0 874.98893 871.83685"><defs><style>.cls-1{mask:url(#mask);}.cls-11,.cls-16,.cls-2,.cls-4,.cls-6{mix-blend-mode:multiply;}.cls-2{fill:url(#linear-gradient);}.cls-3{mask:url(#mask-2);}.cls-4{fill:url(#linear-gradient-2);}.cls-5{mask:url(#mask-3);}.cls-6{fill:url(#linear-gradient-3);}.cls-7{isolation:isolate;}.cls-8{fill:#ff2424;}.cls-9{fill:#e72121;}.cls-10{fill:#d80b0b;}.cls-11{fill:#b70909;opacity:0.28;}.cls-12,.cls-13,.cls-14{fill:#fff2c8;}.cls-12{opacity:0.92;}.cls-12,.cls-13,.cls-17,.cls-22{mix-blend-mode:overlay;}.cls-14{opacity:0.14;mix-blend-mode:lighten;}.cls-15{mask:url(#mask-4);}.cls-16{fill:url(#linear-gradient-4);}.cls-17,.cls-22{fill:#fff;}.cls-17{opacity:0.22;}.cls-18{mask:url(#mask-5);}.cls-19,.cls-21{opacity:0.17;mix-blend-mode:hard-light;}.cls-19{fill:url(#linear-gradient-5);}.cls-20{mask:url(#mask-6);}.cls-21{fill:url(#linear-gradient-6);}.cls-22{opacity:0.19;}.cls-23{filter:url(#luminosity-noclip-6);}.cls-24{filter:url(#luminosity-noclip-5);}.cls-25{filter:url(#luminosity-noclip-4);}.cls-26{filter:url(#luminosity-noclip-3);}.cls-27{filter:url(#luminosity-noclip-2);}.cls-28{filter:url(#luminosity-noclip);}</style><filter id="luminosity-noclip" x="137.68411" y="-8732" width="868.41669" height="32766" filterUnits="userSpaceOnUse" color-interpolation-filters="sRGB"><feFlood flood-color="#fff" result="bg"/><feBlend in="SourceGraphic" in2="bg"/></filter><mask id="mask" x="137.68411" y="-8732" width="868.41669" height="32766" maskUnits="userSpaceOnUse"><g class="cls-28"/></mask><linearGradient id="linear-gradient" x1="264.86051" y1="234.34025" x2="878.9244" y2="848.40415" gradientTransform="translate(550.31154 -245.82472) rotate(45)" gradientUnits="userSpaceOnUse"><stop offset="0"/><stop offset="1" stop-color="#fff"/></linearGradient><filter id="luminosity-noclip-2" x="134.39806" y="-8732" width="874.09633" height="32766" filterUnits="userSpaceOnUse" color-interpolation-filters="sRGB"><feFlood flood-color="#fff" result="bg"/><feBlend in="SourceGraphic" in2="bg"/></filter><mask id="mask-2" x="134.39806" y="-8732" width="874.09633" height="32766" maskUnits="userSpaceOnUse"><g class="cls-27"/></mask><linearGradient id="linear-gradient-2" x1="506.35193" y1="326.02218" x2="841.80681" y2="842.46491" gradientTransform="translate(161.9448 -107.0022) rotate(19.52394)" gradientUnits="userSpaceOnUse"><stop offset="0.24216"/><stop offset="0.37518" stop-color="#030303"/><stop offset="0.47518" stop-color="#0d0d0d"/><stop offset="0.56444" stop-color="#1d1d1d"/><stop offset="0.64742" stop-color="#343434"/><stop offset="0.72612" stop-color="#515151"/><stop offset="0.80153" stop-color="#767676"/><stop offset="0.8744" stop-color="#a1a1a1"/><stop offset="0.9434" stop-color="#d1d1d1"/><stop offset="1" stop-color="#fff"/></linearGradient><filter id="luminosity-noclip-3" x="254.17779" y="-8732" width="755.2092" height="32766" filterUnits="userSpaceOnUse" color-interpolation-filters="sRGB"><feFlood flood-color="#fff" result="bg"/><feBlend in="SourceGraphic" in2="bg"/></filter><mask id="mask-3" x="254.17779" y="-8732" width="755.2092" height="32766" maskUnits="userSpaceOnUse"><g class="cls-26"/></mask><linearGradient id="linear-gradient-3" x1="413.62892" y1="452.95031" x2="749.07449" y2="969.37872" gradientTransform="matrix(0.9242, -0.3819, 0.3819, 0.9242, -128.3511, 181.1705)" xlink:href="#linear-gradient-2"/><filter id="luminosity-noclip-4" x="137.68411" y="107.16315" width="868.41669" height="868.41795" filterUnits="userSpaceOnUse" color-interpolation-filters="sRGB"><feFlood flood-color="#fff" result="bg"/><feBlend in="SourceGraphic" in2="bg"/></filter><mask id="mask-4" x="3.28605" y="0" width="868.41669" height="868.41795" maskUnits="userSpaceOnUse"><g class="cls-25"><g transform="translate(-134.39806 -107.16315)"><g class="cls-1"><circle class="cls-2" cx="571.89245" cy="541.37243" r="434.20866" transform="translate(-215.3047 562.95335) rotate(-45)"/></g></g></g></mask><linearGradient id="linear-gradient-4" x1="264.86051" y1="234.34025" x2="878.9244" y2="848.40415" gradientTransform="translate(550.31154 -245.82472) rotate(45)" gradientUnits="userSpaceOnUse"><stop offset="0" stop-color="red"/><stop offset="1" stop-color="#930005"/></linearGradient><filter id="luminosity-noclip-5" x="134.39806" y="362.63245" width="874.09633" height="615.60072" filterUnits="userSpaceOnUse" color-interpolation-filters="sRGB"><feFlood flood-color="#fff" result="bg"/><feBlend in="SourceGraphic" in2="bg"/></filter><mask id="mask-5" x="0" y="255.4693" width="874.09633" height="615.60072" maskUnits="userSpaceOnUse"><g class="cls-24"><g transform="translate(-134.39806 -107.16315)"><g class="cls-3"><path class="cls-4" d="M970.21074,362.63245a435.89684,435.89684,0,0,1-25.0256,156.24473C864.51443,746.38284,614.6904,865.41665,387.18474,784.74735,269.8745,743.15007,181.51917,656.52574,134.39806,551.22965c4.13854,176.023,115.07121,339.411,290.8947,401.75428,227.50442,80.67054,477.32985-38.36327,557.999-265.86893A435.44566,435.44566,0,0,0,970.21074,362.63245Z"/></g></g></g></mask><linearGradient id="linear-gradient-5" x1="506.35193" y1="326.02218" x2="841.80681" y2="842.46491" gradientTransform="translate(161.9448 -107.0022) rotate(19.52394)" gradientUnits="userSpaceOnUse"><stop offset="0.24216" stop-color="#fff"/><stop offset="0.91991" stop-color="#fff"/><stop offset="1" stop-color="#fff"/></linearGradient><filter id="luminosity-noclip-6" x="254.17779" y="142.4349" width="755.2092" height="836.5651" filterUnits="userSpaceOnUse" color-interpolation-filters="sRGB"><feFlood flood-color="#fff" result="bg"/><feBlend in="SourceGraphic" in2="bg"/></filter><mask id="mask-6" x="119.77973" y="35.27175" width="755.2092" height="836.5651" maskUnits="userSpaceOnUse"><g class="cls-23"><g transform="translate(-134.39806 -107.16315)"><g class="cls-5"><path class="cls-6" d="M749.38514,142.4349a435.83326,435.83326,0,0,1,85.89807,132.89172c92.194,223.08338-13.91243,478.66668-236.9958,570.86069C483.25709,893.72723,359.635,888.4252,254.17779,841.66342c120.80817,128.089,312.55636,175.35635,484.96369,104.10533,223.08337-92.194,329.18981-347.77732,236.996-570.8607A435.44891,435.44891,0,0,0,749.38514,142.4349Z"/></g></g></g></mask><linearGradient id="linear-gradient-6" x1="413.62892" y1="452.95031" x2="749.07449" y2="969.37872" gradientTransform="matrix(0.9242, -0.3819, 0.3819, 0.9242, -128.3511, 181.1705)" xlink:href="#linear-gradient-5"/></defs><g class="cls-7"><g id="katman_1" data-name="katman 1"><circle class="cls-8" cx="437.4944" cy="437.21313" r="434.20835"/><path class="cls-9" d="M878.41819,236.86051c-23.6888,1.70126-46.87825,10.443-67.768,22.13127C768.99348,282.30142,733.47391,318.0589,715.1776,362.148c-18.29631,44.09031-18.01008,96.60763,5.25016,138.29164,11.71661,20.99628,28.58566,38.59622,45.701,55.48369,12.50111,12.33384,25.86339,25.52264,29.422,42.71989,4.514,21.81282-8.44559,43.90321-25.36528,58.39305-33.18514,28.42086-83.5638,34.84923-122.82292,15.67069-28.79383-14.06608-50.3514-39.6928-78.0251-55.85417-39.00991-22.78055-89.56839-24.4-129.95632-4.16208s-69.35647,61.70512-74.46025,106.59093c-2.53393,22.275-.47829,47.51266-15.61,64.05442-13.73524,15.01646-38.00021,17.9407-49.58317,34.672-12.15045,17.55162-4.84358,40.95667-2.81024,62.38415a432.38106,432.38106,0,0,0,274.975,98.19242c239.80729,0,434.20835-194.40231,434.20835-434.20836A432.84213,432.84213,0,0,0,878.41819,236.86051Z" transform="translate(-134.39806 -107.16315)"/><path class="cls-10" d="M884.01761,242.68544a224.62631,224.62631,0,0,0-36.08815,20.00005c-59.242,40.48829-105.52671,116.01788-79.06592,182.71651,20.70368,52.19268,79.00133,82.17974,99.63471,134.39968,17.51305,44.327,3.19048,96.506-26.11137,134.09611-29.30045,37.59132-71.48645,62.86862-114.35626,83.69638-49.60919,24.10142-108.92041,43.28986-158.48747,19.10171-32.013-15.62236-54.52216-47.22767-87.52391-60.63455-43.60459-17.7127-99.37326,5.592-117.40936,49.064-7.34777,17.71022-8.99312,37.57893-17.911,54.55314-7.5423,14.35974-19.51185,25.23022-33.55314,33.38958a432.239,432.239,0,0,0,258.74667,85.5166c239.80729,0,434.20835-194.40231,434.20835-434.20836A432.65058,432.65058,0,0,0,884.01761,242.68544Z" transform="translate(-134.39806 -107.16315)"/><path class="cls-9" d="M854.10861,325.678c1.902-19.61593-16.52318-28.04418-38.72632-1.80163-17.1105,20.22309-35.6187,53.21741-13.58531,77.59762,6.82115,7.54725,16.66443,9.84451,23.03085.38659,3.96259-5.88565,4.66762-13.66462,5.52383-20.47462,1.33078-10.57434,3.037-17.68172,9.58059-26.395C845.36456,347.75849,853.017,336.94129,854.10861,325.678Z" transform="translate(-134.39806 -107.16315)"/><path class="cls-9" d="M857.39342,414.8338a13.59218,13.59218,0,0,0-6.44943-5.39249,7.95,7.95,0,0,0-1.69878-2.62685c-3.41863-3.41864-8.13583-2.78051-11.604,0a16.18515,16.18515,0,0,0-4.25254,19.22933,14.19,14.19,0,0,0,17.06714,6.81744C857.7986,430.28518,861.77358,421.75409,857.39342,414.8338Z" transform="translate(-134.39806 -107.16315)"/><path class="cls-9" d="M324.27151,601.43236c-28.56088-2.57481-46.711,26.10006-57.543,48.51508-13.164,27.24374-17.6272,60.77334-3.49174,88.69981,7.81986,15.44765,20.207,22.19074,33.49243,21.25647,10.26333,3.99481,22.02223-.99746,27.79512-12.82823,15.93586-14.18751,13.37467-33.91991,11.8729-53.45283,6.41226-14.12927,20.34823-24.14726,25.41856-38.36079C370.50668,630.89282,348.39027,603.607,324.27151,601.43236Z" transform="translate(-134.39806 -107.16315)"/><path class="cls-9" d="M769.72578,583.30953c-5.72457-15.71654-21.55014-19.06207-35.9074-13.10455-19.461,8.07511-73.64,54.16034-43.22544,76.0153,14.89627,10.70444,32.50241-.04337,44.36927-9.92382,3.37031-2.80652,7.27078-5.81254,11.14168-9.0577a8.21983,8.21983,0,0,0,6.385-1.985C764.648,615.03874,775.80348,599.99627,769.72578,583.30953Z" transform="translate(-134.39806 -107.16315)"/><path class="cls-9" d="M703.45231,553.93333a73.91213,73.91213,0,0,0,11.55554,5.91539c4.46442,1.90819,10.90641.84134,12.055-4.9043a29.80571,29.80571,0,0,0,.41386-7.85826c2.93043-10.0626-7.35876-23.46081-18.274-28.00082a22.05777,22.05777,0,0,0-5.69359-2.56366c-7.29572-2.00112-14.20237,2.18327-17.09316,8.8929-3.10266,7.20156-1.11145,15.00035,4.35538,20.492A39.65652,39.65652,0,0,0,703.45231,553.93333Z" transform="translate(-134.39806 -107.16315)"/><path class="cls-9" d="M397.35886,573.54431a21.32966,21.32966,0,0,0-2.91681-2.446c-10.94482-7.76782-25.10259-1.35928-29.31052,11.55569a21.82735,21.82735,0,0,0-.798,3.55369c-5.19176,11.1468-5.33178,24.55492,6.29207,32.28309,13.25571,8.81236,26.48045-1.26635,30.01432-14.66084C405.543,594.27294,404.78221,581.10272,397.35886,573.54431Z" transform="translate(-134.39806 -107.16315)"/><path class="cls-9" d="M350.36042,557.5242a8.41375,8.41375,0,0,0-4.50531-2.30718,15.53264,15.53264,0,0,0-10.19518.05576,17.78773,17.78773,0,0,0-11.034,11.92246c-.82771,3.04072-.95271,7.1966.69636,10.01428,1.80535,3.08532,5.7159,4.41733,8.97592,5.31319,5.12485,1.40884,10.89527,1.05446,15.21223-2.08414a8.37689,8.37689,0,0,0,8.36149-8.20149A17.221,17.221,0,0,0,350.36042,557.5242Z" transform="translate(-134.39806 -107.16315)"/><path class="cls-8" d="M596.73236,685.586c-.39774-.58113-.798-1.161-1.21058-1.731-16.52938-23.46577-43.74089-53.008-56.33989-27.11239-6.38376,13.12065,2.1845,29.365,11.19016,38.906,10.04045,10.63753,23.52168,15.90735,37.54671,18.42765,3.70982.91568,7.42583,1.73347,11.07989,2.39638,7.22633,1.31219,12.49615-5.38134,9.26726-12.055A166.9791,166.9791,0,0,0,596.73236,685.586Z" transform="translate(-134.39806 -107.16315)"/><path class="cls-8" d="M625.515,685.34435a8.03434,8.03434,0,0,0-7.08631,4.06419,13.82837,13.82837,0,0,0-.00233,13.428c2.4173,4.37768,6.48645,6.4296,11.29657,7.02065a5.60757,5.60757,0,0,0,1.876-.12143,15.528,15.528,0,0,0,1.67168.68149c6.40962,2.06308,11.17266-4.3182,10.09465-10.09481C641.74827,691.66,633.942,686.02336,625.515,685.34435Z" transform="translate(-134.39806 -107.16315)"/><path class="cls-8" d="M628.25837,727.68631q-2.37533-.20073-4.74941-.40022c-4.28847-.36182-8.39231,4.032-8.20506,8.20521.213,4.7556,3.61178,7.81986,8.20506,8.20645q2.37555.20073,4.74941.40022c4.28846.36058,8.39355-4.032,8.20645-8.20645C636.25169,731.13716,632.85289,728.07291,628.25837,727.68631Z" transform="translate(-134.39806 -107.16315)"/><path class="cls-8" d="M390.89347,699.7363c-12.81847,6.48165-14.67586,23.301-6.33063,33.92611,2.0829,2.65288,6.04425,2.92052,9.0862,1.63807,12.24834-1.54514,10.59293-21.86487,9.29932-30.65988C402.12437,699.04737,395.07522,697.62243,390.89347,699.7363Z" transform="translate(-134.39806 -107.16315)"/><path class="cls-8" d="M397.53233,673.48755q-.77505.77691-1.5501,1.55134a8.20615,8.20615,0,1,0,11.60526,11.60525q.77527-.775,1.55009-1.55133a8.20615,8.20615,0,1,0-11.60525-11.60526Z" transform="translate(-134.39806 -107.16315)"/><path class="cls-8" d="M809.58586,539.08663c-3.74451-6.32924-10.45539-9.878-15.67813-14.7835-5.27973-4.95758-5.74687-12.57175-10.88658-17.60862-5.27338-5.16946-13.85172-6.919-19.84145-1.928-15.65954,13.05,5.05546,29.38611,14.2569,37.75364,7.28581,8.40223,16.65328,15.527,25.80887,13.304C810.83733,553.98042,813.33161,545.41959,809.58586,539.08663Z" transform="translate(-134.39806 -107.16315)"/><path class="cls-10" d="M765.16223,696.52831a60.555,60.555,0,0,0-4.913,8.44188c-9.47635,13.98678-12.15913,26.9414-.51546,32.2868.44111.202.90453.27756,1.35184.43988a19.93964,19.93964,0,0,0,7.7356,3.83248c27.28462,7.20651,107.00973-69.30566,65.42237-83.91322a16.739,16.739,0,0,0-5.03671-.83018,7.232,7.232,0,0,0-6.711-.9987C799.39811,662.87976,779.14405,676.64722,765.16223,696.52831Z" transform="translate(-134.39806 -107.16315)"/><path class="cls-10" d="M826.56766,630.4232q1.2153,1.73969,2.60315,3.35916a62.3436,62.3436,0,0,0,6.42589,6.44076c3.71477,3.22657,10.3798,3.379,12.88771-1.66162,3.83141-7.7009,5.38877-17.9729,1.76445-26.04925a23.38307,23.38307,0,0,0-1.9912-4.21536c-3.11613-4.95882-8.12715-9.13081-14.30894-8.287-5.82989.79549-10.24846,5.69606-11.76634,11.20627-.05947.21684-.04956.425-.1002.63937a16.47881,16.47881,0,0,0,4.48548,18.56766Z" transform="translate(-134.39806 -107.16315)"/><path class="cls-10" d="M802.73373,644.5438c5.478,6.02195,16.1341,1.82641,16.1341-6.28091,0-8.30186-10.4368-12.07983-16.11056-6.37633a8.18541,8.18541,0,0,0-2.3047,6.03929A8.78407,8.78407,0,0,0,802.73373,644.5438Z" transform="translate(-134.39806 -107.16315)"/><path class="cls-9" d="M225.11385,346.06219a148.90624,148.90624,0,0,0-10.277,13.89012c-.27632.41014-.54768.82152-.81532,1.23909-.49192.7769-.96772,1.55752-1.441,2.3493-.14374.24534-.28252.49192-.42253.73973-5.54242,9.42323-9.69087,19.76339-9.70822,29.9152-.01487,9.43066,3.664,16.84534,9.35508,21.99,4.73825,6.04921,12.32888,10.08243,19.85136,10.08243a24.0608,24.0608,0,0,0,6.82487-1.07181c34.75753-2.28611,64.638-55.91489,39.19593-83.18216C261.87374,325.0783,238.973,329.42253,225.11385,346.06219Z" transform="translate(-134.39806 -107.16315)"/><path class="cls-9" d="M346.43128,372.50175a31.61153,31.61153,0,0,0-3.20179-.60963,24.01761,24.01761,0,0,0-4.42849-1.75578c-5.89308-1.622-13.73895-.88966-18.969,2.48189-5.25758,3.38889-9.88432,8.43568-11.31422,14.71287-.09913.43616-.09774.84382-.176,1.27254a24.86893,24.86893,0,0,0,.337,24.1547c4.62426,7.9004,12.4181,11.55817,21.25772,12.19258a33.03071,33.03071,0,0,0,19.77082-5.37019,36.25305,36.25305,0,0,0,3.0754-2.4063,24.7471,24.7471,0,0,0-6.35154-44.67268Z" transform="translate(-134.39806 -107.16315)"/><path class="cls-9" d="M198.82793,446.9682c-14.54065,30.19151.69141,63.96521,38.54913,48.95124,7.66992-3.04195,20.67906-16.201,29.3638-13.10827,6.79142,2.41745,14.03882,17.3323,20.88475,21.99126,17.98035,12.23595,39.62466,12.33879,60.50941,9.63511,41.57621-5.38134,80.4029-25.56725,104.22939-60.85635,13.1205-19.43379,10.84059-44.33317,29.41445-58.0647,20.71128-15.31136,46.51768-24.27241,47.841-52.89152.26764-5.78776-3.571-13.57416-9.14444-15.94329-18.97037-8.06024-27.82238-4.43716-45.72962,5.22769-16.10685,8.69341-36.80435,17.46241-49.87559,30.8854-12.43916,12.77495-13.08225,27.72945-17.48223,43.88215-4.35151,15.96931-14.54808,28.51007-27.61174,38.41407-13.1095,9.93993-29.62153,20.61711-45.6974,24.69-22.06684,5.592-28.31926-5.89061-44.011-17.2022-9.97324-7.18916-21.4758-10.57558-33.82079-7.32918-12.62131,3.31951-39.90593,33.69936-40.2157,6.3788-.09788-8.64508-13.07109-13.23961-17.20343-4.66019Z" transform="translate(-134.39806 -107.16315)"/><path class="cls-9" d="M648.77155,173.464c28.87065,35.51586-21.15627,62.83765-39.73509,85.50173-19.1649,23.38027-14.45763,42.55756-5.49038,68.77534,8.20645,23.99485-6.38871,33.8245-25.01338,45.6912-12.57546,8.0144-24.98736,16.30511-36.118,26.29708-23.79288,21.35684-43.97383,49.33783-49.25109,81.31486-1.19324,7.22881.63813,16.61115,8.17919,20.09917,1.39769.64557,2.804,1.26883,4.2513,1.7942,5.33425,1.93421,13.71805-.03965,17.31619-4.57718,26.26857-33.12814,47.535-62.63815,82.6729-87.291,30.39224-21.32463,56.85163-50.18413,43.238-89.90915-2.34575-6.8447-10.34527-16.43273-10.39731-23.555-.08054-10.80605,9.95975-17.31371,17.05846-23.68012,12.68574-11.376,23.99238-22.76569,31.16543-38.48842,13.87526-30.41207,4.52637-62.62081-23.27123-80.90349-12.25066-8.05652-22.6616,9.01929-14.60492,18.93072Z" transform="translate(-134.39806 -107.16315)"/><path class="cls-11" d="M764.663,155.30154A432.28937,432.28937,0,0,1,809.7965,348.072c0,239.806-194.4023,434.20836-434.20834,434.20836a432.27156,432.27156,0,0,1-192.77043-45.13486C253.837,880.20635,401.34127,978.58464,571.89245,978.58464c239.80729,0,434.20835-194.40231,434.20835-434.20836C1006.1008,373.82509,907.72376,226.32086,764.663,155.30154Z" transform="translate(-134.39806 -107.16315)"/><path class="cls-11" d="M861.89625,221.279A432.0866,432.0866,0,0,1,917.38489,433.6084c0,239.80729-194.40106,434.2096-434.20834,434.2096A432.54024,432.54024,0,0,1,193.1729,756.70565c74.38219,132.38245,216.06133,221.879,378.71955,221.879,239.80729,0,434.20835-194.40231,434.20835-434.20836C1006.1008,416.05182,950.399,300.76872,861.89625,221.279Z" transform="translate(-134.39806 -107.16315)"/><path class="cls-12" d="M873.00464,231.69972A434.13881,434.13881,0,0,0,446.32372,128.67983c-3.10762.93675-6.18055,1.93421-9.25347,2.93787-2.49676.81532-4.97864,1.66409-7.45542,2.52277q-7.02025,2.4348-13.9273,5.09883c-2.3606.91073-4.7161,1.83137-7.05673,2.78175q-5.98664,2.43294-11.88033,5.03935c-2.97257,1.31219-5.93893,2.63553-8.87556,4.01215q-4.52367,2.1207-8.9846,4.34795c-2.19193,1.08915-4.36033,2.2192-6.5312,3.34428q-6.87321,3.56485-13.6039,7.3552-2.83626,1.60214-5.64775,3.24764-7.07765,4.1373-13.97562,8.53853c-1.70746,1.08667-3.41863,2.16592-5.11,3.27613-2.954,1.93917-5.888,3.8994-8.7913,5.90795-.98383.68026-1.94536,1.39026-2.92176,2.078q-7.89707,5.55915-15.53563,11.44665c-1.275.98383-2.53516,1.985-3.79779,2.98372q-7.25607,5.73386-14.25675,11.76386c-1.062.91568-2.12641,1.82888-3.17963,2.75448q-13.00666,11.42682-25.07534,23.83873c-.28623.29366-.56254.59476-.84753.88842q-7.704,7.97908-14.99291,16.346-.76391.87542-1.5216,1.75578-7.53114,8.72625-14.60384,17.84281a432.22691,432.22691,0,0,0-90.81367,265.58766c0,135.45662,62.04835,256.39986,159.24965,336.02957C214.9323,801.42046,163.835,690.57452,163.835,567.72805a432.82231,432.82231,0,0,1,30.72184-160.38946,188.12757,188.12757,0,0,0,109.08148,34.68814c104.487,0,189.19072-84.70375,189.19072-189.19072A188.06428,188.06428,0,0,0,465.112,154.32886a434.37347,434.37347,0,0,1,407.89269,77.37086Z" transform="translate(-134.39806 -107.16315)"/><path class="cls-13" d="M495.09777,369.30987a41.8705,41.8705,0,1,0,41.86987-41.87111A41.87028,41.87028,0,0,0,495.09777,369.30987Z" transform="translate(-134.39806 -107.16315)"/><path class="cls-14" d="M810.8313,181.8675A432.32815,432.32815,0,0,0,353.307,169.25239c-1.6294.95161-3.29225,1.85119-4.908,2.82263-3.8201,2.2985-7.55346,4.72091-11.29549,7.13216-1.92925,1.24281-3.88824,2.44224-5.79643,3.71478-3.57972,2.38895-7.08013,4.88323-10.58426,7.37378-1.97881,1.4076-3.98117,2.78175-5.93644,4.22156-3.41616,2.5141-6.75549,5.12113-10.09482,7.73188-1.94784,1.52408-3.91179,3.02709-5.83237,4.58337-3.28357,2.66032-6.49651,5.39621-9.69954,8.14822-1.876,1.612-3.75938,3.21418-5.60685,4.85721-3.16958,2.81767-6.27472,5.701-9.36,8.60915-1.77561,1.674-3.55,3.34676-5.29832,5.0505q-4.59639,4.48115-9.0464,9.10479-2.48893,2.57234-4.93914,5.17937-4.44933,4.75437-8.75413,9.63883-2.2861,2.59464-4.53009,5.22893-4.30642,5.04618-8.46789,10.21129c-1.38034,1.71985-2.73218,3.45952-4.0865,5.20044-2.78546,3.57971-5.53127,7.18544-8.20521,10.85189-1.21183,1.66409-2.38895,3.35172-3.57848,5.0344-2.70615,3.82381-5.37871,7.66869-7.96235,11.583-1.0272,1.555-2.01227,3.13984-3.01964,4.70852-2.64049,4.115-5.25109,8.24734-7.75543,12.45527-.80292,1.35184-1.56248,2.73094-2.35178,4.09145-2.607,4.49044-5.17937,8.99947-7.6278,13.589-.50678.95038-.97392,1.92306-1.47327,2.87715a432.16038,432.16038,0,0,0-49.41217,201.12434c0,158.21115,84.64442,296.618,211.09028,372.51686C231.15314,839.20755,153.50473,705.89331,153.50473,554.38436A432.41229,432.41229,0,0,1,194.03267,371.202a162.02376,162.02376,0,0,0,98.8479,33.2124c87.24759,0,157.97572-67.40987,157.97572-150.56353,0-37.06223-14.09581-70.95488-37.403-97.18133a434.30071,434.30071,0,0,1,397.378,25.198Z" transform="translate(-134.39806 -107.16315)"/><g class="cls-15"><circle class="cls-16" cx="571.89245" cy="541.37243" r="434.20866" transform="translate(-349.70275 455.7902) rotate(-45)"/></g><path class="cls-17" d="M137.68411,437.94643a326.22827,326.22827,0,0,0,37.26668,151.758,296.52063,296.52063,0,0,0,152.96734,42.254c164.56146,0,297.96615-133.4047,297.96615-297.96616a297.05558,297.05558,0,0,0-93.96466-217.07382,329.199,329.199,0,0,0-66.457-6.75177C284.435,110.16668,137.68411,256.91879,137.68411,437.94643Z" transform="translate(-134.39806 -107.16315)"/><g class="cls-18"><path class="cls-19" d="M970.21074,362.63245a435.89684,435.89684,0,0,1-25.0256,156.24473C864.51443,746.38284,614.6904,865.41665,387.18474,784.74735,269.8745,743.15007,181.51917,656.52574,134.39806,551.22965c4.13854,176.023,115.07121,339.411,290.8947,401.75428,227.50442,80.67054,477.32985-38.36327,557.999-265.86893A435.44566,435.44566,0,0,0,970.21074,362.63245Z" transform="translate(-134.39806 -107.16315)"/></g><g class="cls-20"><path class="cls-21" d="M749.38514,142.4349a435.83326,435.83326,0,0,1,85.89807,132.89172c92.194,223.08338-13.91243,478.66668-236.9958,570.86069C483.25709,893.72723,359.635,888.4252,254.17779,841.66342c120.80817,128.089,312.55636,175.35635,484.96369,104.10533,223.08337-92.194,329.18981-347.77732,236.996-570.8607A435.44891,435.44891,0,0,0,749.38514,142.4349Z" transform="translate(-134.39806 -107.16315)"/></g><path class="cls-22" d="M925.64338,292.74318A432.02863,432.02863,0,0,1,995.63426,529.0166c0,239.80729-194.4023,434.20836-434.20835,434.20836-145.97891,0-275.03319-72.11219-353.75217-182.5765,77.42414,119.1032,211.57477,197.93618,364.21871,197.93618,239.80729,0,434.20835-194.40231,434.20835-434.20836A432.08029,432.08029,0,0,0,925.64338,292.74318Z" transform="translate(-134.39806 -107.16315)"/></g></g></svg>