<svg id="Layer_1" data-name="Layer 1" xmlns="http://www.w3.org/2000/svg" viewBox="0 0 550.18781 431.7632"><defs><style>.cls-1,.cls-2{fill:#00435f;}.cls-1{opacity:0.22;}</style></defs><path class="cls-1" d="M38.3779,23.4912a2.62612,2.62612,0,0,1-2.5927-2.5493,2.45169,2.45169,0,0,1,.7026-1.8115,2.58729,2.58729,0,0,1,4.4829,1.7226,2.45132,2.45132,0,0,1-.7026,1.8116A2.63836,2.63836,0,0,1,38.3779,23.4912Z" transform="translate(-10.26527 -9.7466)"/><path class="cls-2" d="M38.378,22.4914a1.59375,1.59375,0,1,0-1.5938-1.5938,1.61169,1.61169,0,0,0,1.5938,1.5938Z" transform="translate(-10.26527 -9.7466)"/><path class="cls-1" d="M26.4727,44.3765a2.21915,2.21915,0,1,1,2.1772-2.2193A2.1502,2.1502,0,0,1,26.4727,44.3765Z" transform="translate(-10.26527 -9.7466)"/><path class="cls-2" d="M26.4724,43.3762a1.21948,1.21948,0,0,0,0-2.4375,1.21948,1.21948,0,0,0,0,2.4375Z" transform="translate(-10.26527 -9.7466)"/><path class="cls-1" d="M44.4688,51.6006a2.64066,2.64066,0,0,1,0-5.2798,2.24146,2.24146,0,0,1,.8251.1572l.6148.2412a2.37126,2.37126,0,0,1-.0005,4.4829l-.6006.2364a2.279,2.279,0,0,1-.8384.1621Z" transform="translate(-10.26527 -9.7466)"/><path class="cls-2" d="M45.5425,47.6498q-.3069-.12045-.6139-.2411a1.6097,1.6097,0,1,0,0,3.1038q.3069-.12045.6139-.2411a1.37349,1.37349,0,0,0,0-2.6216Z" transform="translate(-10.26527 -9.7466)"/><path class="cls-1" d="M59.6377,34.9282a2.12535,2.12535,0,0,1,0-4.25,2.03536,2.03536,0,0,1,1.5737.6997,2.18312,2.18312,0,0,1,.5132,1.4248A2.06057,2.06057,0,0,1,59.6377,34.9282Z" transform="translate(-10.26527 -9.7466)"/><path class="cls-2" d="M59.6378,33.9281a1.12567,1.12567,0,0,0,0-2.25,1.12567,1.12567,0,0,0,0,2.25Z" transform="translate(-10.26527 -9.7466)"/><path class="cls-1" d="M91.1025,40.3584a2.34112,2.34112,0,0,1-1.8115-.8022,2.52538,2.52538,0,0,1-.5923-1.65,2.376,2.376,0,0,1,2.4038-2.4541,2.34093,2.34093,0,0,1,1.8116.8023,2.52469,2.52469,0,0,1,.5918,1.6499A2.37591,2.37591,0,0,1,91.1025,40.3584Z" transform="translate(-10.26527 -9.7466)"/><path class="cls-2" d="M91.1024,39.3586a1.454,1.454,0,0,0,0-2.9062,1.454,1.454,0,0,0,0,2.9062Z" transform="translate(-10.26527 -9.7466)"/><path class="cls-1" d="M78.3467,78.6733a2.50053,2.50053,0,0,1,0-5,2.38451,2.38451,0,0,1,1.8452.8169,2.57467,2.57467,0,0,1,.6035,1.6822A2.42091,2.42091,0,0,1,78.3467,78.6733Z" transform="translate(-10.26527 -9.7466)"/><path class="cls-2" d="M78.3465,77.6732a1.5009,1.5009,0,0,0,0-3,1.5009,1.5009,0,0,0,0,3Z" transform="translate(-10.26527 -9.7466)"/><path class="cls-1" d="M30.7246,111.7515a1.56262,1.56262,0,0,1,0-3.125,1.50924,1.50924,0,0,1,1.166.5239,1.59115,1.59115,0,0,1,.3775,1.0381A1.537,1.537,0,0,1,30.7246,111.7515Z" transform="translate(-10.26527 -9.7466)"/><path class="cls-2" d="M30.7244,110.7515a.56284.56284,0,0,0,0-1.125.56284.56284,0,0,0,0,1.125Z" transform="translate(-10.26527 -9.7466)"/><path class="cls-1" d="M21.3701,92.5674a1.93776,1.93776,0,1,1,1.9058-1.938A1.87926,1.87926,0,0,1,21.3701,92.5674Z" transform="translate(-10.26527 -9.7466)"/><path class="cls-2" d="M21.3701,91.5674a.93806.93806,0,0,0,0-1.875.93806.93806,0,0,0,0,1.875Z" transform="translate(-10.26527 -9.7466)"/><path class="cls-1" d="M45.9902,81.9258a2.26667,2.26667,0,0,1-1.6362-.6919l-.4199-.4317a1.7713,1.7713,0,0,1,.001-2.456l.4184-.4297a2.26417,2.26417,0,0,1,1.6353-.6914,2.37915,2.37915,0,0,1,2.4023,2.3496,2.29228,2.29228,0,0,1-.7637,1.7144,2.46563,2.46563,0,0,1-1.6372.6367Z" transform="translate(-10.26527 -9.7466)"/><path class="cls-2" d="M45.0703,78.6136q-.20985.2154-.4195.4309a.76315.76315,0,0,0,0,1.0606q.2097.21555.4195.4309a1.35937,1.35937,0,1,0,0-1.9224Z" transform="translate(-10.26527 -9.7466)"/><path class="cls-1" d="M55.3857,115.5684a2.74148,2.74148,0,0,1-2.7661-2.8272,2.92279,2.92279,0,0,1,.6831-1.9087,2.68949,2.68949,0,0,1,2.083-.9204,2.82884,2.82884,0,0,1,0,5.6563Z" transform="translate(-10.26527 -9.7466)"/><path class="cls-2" d="M55.3858,114.5683a1.82925,1.82925,0,0,0,0-3.6563,1.82925,1.82925,0,0,0,0,3.6563Z" transform="translate(-10.26527 -9.7466)"/><path class="cls-1" d="M114.063,59.0674a2.37523,2.37523,0,0,1-2.4038-2.4522,2.528,2.528,0,0,1,.5923-1.6508,2.33992,2.33992,0,0,1,1.8115-.8033,2.37523,2.37523,0,0,1,2.4038,2.4522,2.52894,2.52894,0,0,1-.5923,1.6509A2.34016,2.34016,0,0,1,114.063,59.0674Z" transform="translate(-10.26527 -9.7466)"/><path class="cls-2" d="M114.063,58.0673a1.454,1.454,0,0,0,0-2.9063,1.454,1.454,0,0,0,0,2.9063Z" transform="translate(-10.26527 -9.7466)"/><path class="cls-1" d="M128.5195,27.2275a2.07843,2.07843,0,1,1,2.0415-2.0786A2.01469,2.01469,0,0,1,128.5195,27.2275Z" transform="translate(-10.26527 -9.7466)"/><path class="cls-2" d="M128.5197,26.2277a1.07875,1.07875,0,0,0,0-2.1562,1.07875,1.07875,0,0,0,0,2.1562Z" transform="translate(-10.26527 -9.7466)"/><path class="cls-1" d="M76.6455,58.4512a2.68812,2.68812,0,1,1,2.6304-2.6885,2.77424,2.77424,0,0,1-.6489,1.812A2.55966,2.55966,0,0,1,76.6455,58.4512Z" transform="translate(-10.26527 -9.7466)"/><path class="cls-2" d="M76.6457,57.4513a1.68851,1.68851,0,0,0,0-3.375,1.68851,1.68851,0,0,0,0,3.375Z" transform="translate(-10.26527 -9.7466)"/><path class="cls-1" d="M21.3701,19.1523a1.59634,1.59634,0,0,1-1.2339-.5532,1.68777,1.68777,0,0,1-.4004-1.1025,1.6342,1.6342,0,1,1,3.2681-.001,1.68989,1.68989,0,0,1-.3994,1.103A1.59826,1.59826,0,0,1,21.3701,19.1523Z" transform="translate(-10.26527 -9.7466)"/><path class="cls-2" d="M21.3701,18.1523a.65664.65664,0,0,0,0-1.3125.65664.65664,0,0,0,0,1.3125Z" transform="translate(-10.26527 -9.7466)"/><path class="cls-1" d="M76.6455,21.1812a1.92433,1.92433,0,0,1-1.9507-1.9839,2.03394,2.03394,0,0,1,.479-1.3282,1.90305,1.90305,0,0,1,1.4717-.6567,1.92468,1.92468,0,0,1,1.9512,1.9839,2.03845,2.03845,0,0,1-.479,1.3286A1.90449,1.90449,0,0,1,76.6455,21.1812Z" transform="translate(-10.26527 -9.7466)"/><path class="cls-2" d="M76.6457,20.1812a.98494.98494,0,0,0,0-1.9687.98494.98494,0,0,0,0,1.9687Z" transform="translate(-10.26527 -9.7466)"/><path class="cls-1" d="M27.3228,68.7563a1.93777,1.93777,0,1,1,1.9057-1.9379A1.87928,1.87928,0,0,1,27.3228,68.7563Z" transform="translate(-10.26527 -9.7466)"/><path class="cls-2" d="M27.3228,67.7564a.93806.93806,0,0,0,0-1.875.93806.93806,0,0,0,0,1.875Z" transform="translate(-10.26527 -9.7466)"/><path class="cls-1" d="M536.709,32.2295a2.74068,2.74068,0,0,1-2.76561-2.8272,2.92153,2.92153,0,0,1,.68261-1.9086,2.68967,2.68967,0,0,1,2.083-.9205,2.82886,2.82886,0,0,1,0,5.6563Z" transform="translate(-10.26527 -9.7466)"/><path class="cls-2" d="M536.70869,31.2297a1.82925,1.82925,0,0,0,0-3.6563,1.82925,1.82925,0,0,0,0,3.6563Z" transform="translate(-10.26527 -9.7466)"/><path class="cls-1" d="M493.33889,30.8638a2.20981,2.20981,0,0,1-1.71-.7583,2.37635,2.37635,0,0,1-.5586-1.5533,2.24126,2.24126,0,0,1,2.2686-2.3134,2.20919,2.20919,0,0,1,1.709.7583,2.376,2.376,0,0,1,.5585,1.5532A2.24051,2.24051,0,0,1,493.33889,30.8638Z" transform="translate(-10.26527 -9.7466)"/><path class="cls-2" d="M493.33859,29.8637a1.31329,1.31329,0,0,0,0-2.625,1.31329,1.31329,0,0,0,0,2.625Z" transform="translate(-10.26527 -9.7466)"/><path class="cls-1" d="M483.13379,62.1475a1.263,1.263,0,0,1-1.2715-1.2813,1.29549,1.29549,0,0,1,.3086-.8447,1.27426,1.27426,0,0,1,2.2344.8447,1.29549,1.29549,0,0,1-.3086.8447A1.26645,1.26645,0,0,1,483.13379,62.1475Z" transform="translate(-10.26527 -9.7466)"/><path class="cls-2" d="M483.13389,61.1474a.28142.28142,0,0,0,0-.5625.28142.28142,0,0,0,0,.5625Z" transform="translate(-10.26527 -9.7466)"/><path class="cls-1" d="M512.89749,48.2935a2.735,2.735,0,1,1,2.6757-2.7354A2.64473,2.64473,0,0,1,512.89749,48.2935Z" transform="translate(-10.26527 -9.7466)"/><path class="cls-2" d="M512.89759,47.2934a1.73539,1.73539,0,0,0,0-3.4687,1.73539,1.73539,0,0,0,0,3.4687Z" transform="translate(-10.26527 -9.7466)"/><path class="cls-1" d="M512.89749,81.5059a2.6965,2.6965,0,0,1-2.7207-2.7803,2.87028,2.87028,0,0,1,.6718-1.8765,2.64553,2.64553,0,0,1,2.0489-.9057,2.78192,2.78192,0,0,1,0,5.5625Z" transform="translate(-10.26527 -9.7466)"/><path class="cls-2" d="M512.89759,80.5057a1.78232,1.78232,0,0,0,0-3.5625,1.78232,1.78232,0,0,0,0,3.5625Z" transform="translate(-10.26527 -9.7466)"/><path class="cls-1" d="M486.53519,91.8042a2.7864,2.7864,0,0,1-2.8116-2.874,2.97363,2.97363,0,0,1,.69441-1.9409,2.734,2.734,0,0,1,2.11719-.9351,2.78637,2.78637,0,0,1,2.8115,2.874,2.97367,2.97367,0,0,1-.6944,1.9409A2.734,2.734,0,0,1,486.53519,91.8042Z" transform="translate(-10.26527 -9.7466)"/><path class="cls-2" d="M486.53539,90.8041a1.87612,1.87612,0,0,0,0-3.75,1.87612,1.87612,0,0,0,0,3.75Z" transform="translate(-10.26527 -9.7466)"/><path class="cls-1" d="M536.709,66.5269a2.95367,2.95367,0,0,1-2.28711-1.0069,3.21333,3.21333,0,0,1-.751-2.1011,3.03843,3.03843,0,1,1,6.0752-.0029,3.21928,3.21928,0,0,1-.751,2.1026A2.951,2.951,0,0,1,536.709,66.5269Z" transform="translate(-10.26527 -9.7466)"/><path class="cls-2" d="M536.70869,65.5267c2.7145,0,2.719-4.2188,0-4.2188-2.7146,0-2.7191,4.2188,0,4.2188Z" transform="translate(-10.26527 -9.7466)"/><path class="cls-1" d="M538.40919,100.2681a1.92391,1.92391,0,0,1-1.95019-1.9839,2.0357,2.0357,0,0,1,.47849-1.3281,1.97823,1.97823,0,0,1,2.9434-.001,2.02969,2.02969,0,0,1,.4795,1.3276A1.92534,1.92534,0,0,1,538.40919,100.2681Z" transform="translate(-10.26527 -9.7466)"/><path class="cls-2" d="M538.40939,99.2678a.98494.98494,0,0,0,0-1.9687.98494.98494,0,0,0,0,1.9687Z" transform="translate(-10.26527 -9.7466)"/><path class="cls-1" d="M498.52829,68.7354a3.16652,3.16652,0,0,1-1.98629-.7388l-.18651-.1543c-.21-.1734-.42-.3472-.625-.5264a2.61235,2.61235,0,0,1-.877-1.8418,3.11607,3.11607,0,0,1,.7988-2.2339,2.80631,2.80631,0,0,1,2.0752-.8672,2.71992,2.71992,0,0,1,2.0596.8843c.1748.1988.3438.4029.5127.6074l.169.2046a2.82136,2.82136,0,0,1-.0323,3.835,2.55891,2.55891,0,0,1-1.9082.8311Z" transform="translate(-10.26527 -9.7466)"/><path class="cls-2" d="M499.70049,64.709c-.2206-.2651-.4379-.5334-.6653-.7926a1.87129,1.87129,0,0,0-2.6464,2.6464c.2593.2274.5275.4447.7926.6652a1.78124,1.78124,0,1,0,2.5191-2.519Z" transform="translate(-10.26527 -9.7466)"/><path class="cls-1" d="M461.96879,43.417c.2373,0,.2636-.2866.2636-.4097a.582.582,0,0,0-.0976-.3452c-.0215-.0268-.05079-.0635-.166-.0635v-2a2.16382,2.16382,0,0,1,1.7304.8174,2.55871,2.55871,0,0,1,.5332,1.5923,2.28909,2.28909,0,0,1-2.2636,2.4087Z" transform="translate(-10.26527 -9.7466)"/><path class="cls-2" d="M461.874,41.6016q-.34022.0207-.68031.0412a1.36505,1.36505,0,0,0,0,2.7301q.3402.0207.68031.0412c1.80939.1096,1.81249-2.9223,0-2.8125Z" transform="translate(-10.26527 -9.7466)"/><path class="cls-1" d="M457.62209,75.7539a1.263,1.263,0,0,1-1.2715-1.2812,1.296,1.296,0,0,1,.3086-.8448,1.27426,1.27426,0,0,1,2.2344.8448,1.29573,1.29573,0,0,1-.30859.8447A1.26673,1.26673,0,0,1,457.62209,75.7539Z" transform="translate(-10.26527 -9.7466)"/><path class="cls-2" d="M457.622,74.7537a.28142.28142,0,0,0,0-.5625.28142.28142,0,0,0,0,.5625Z" transform="translate(-10.26527 -9.7466)"/><path class="cls-1" d="M555.332,47.8911a2.83361,2.83361,0,0,1-.42871-.0332c-.1181-.0181-.2451-.0312-.376-.0454a3.24875,3.24875,0,0,1-2.2646-.9048,2.00479,2.00479,0,0,1,.001-2.6982,3.24183,3.24183,0,0,1,2.2607-.9038c.1319-.0142.2598-.0274.3789-.0459a2.78191,2.78191,0,0,1,.4248-.0327,2.33979,2.33979,0,0,1,2.4483,2.332,2.24955,2.24955,0,0,1-.7901,1.7456,2.54412,2.54412,0,0,1-1.65429.5864Z" transform="translate(-10.26527 -9.7466)"/><path class="cls-2" d="M555.05589,44.2482c-.6608.1017-1.57089.076-2.0354.6148a1.0151,1.0151,0,0,0,0,1.3921c.4637.5379,1.3752.5132,2.0354.6148a1.35968,1.35968,0,1,0,0-2.6217Z" transform="translate(-10.26527 -9.7466)"/><path class="cls-1" d="M511.19729,118.2666a2.2097,2.2097,0,0,1-1.7901-.9766,1.93161,1.93161,0,0,1-.2256-1.8134l.2422-.6158a1.8823,1.8823,0,0,1,3.5479.002l.2412.6157a1.93156,1.93156,0,0,1-.2275,1.813A2.20736,2.20736,0,0,1,511.19729,118.2666Z" transform="translate(-10.26527 -9.7466)"/><path class="cls-2" d="M512.28169,115.8427q-.1206-.307-.2411-.6139a.8841.8841,0,0,0-1.6875,0q-.1206.3069-.24109.6139a1.12523,1.12523,0,1,0,2.16969,0Z" transform="translate(-10.26527 -9.7466)"/><path class="cls-1" d="M534.15719,136.2256a1.375,1.375,0,1,1,1.0303-2.2847,1.39571,1.39571,0,0,1,.332.9092A1.35439,1.35439,0,0,1,534.15719,136.2256Z" transform="translate(-10.26527 -9.7466)"/><path class="cls-2" d="M534.15749,135.2254a.37522.37522,0,0,0,0-.75.37522.37522,0,0,0,0,.75Z" transform="translate(-10.26527 -9.7466)"/><path class="cls-1" d="M452.51949,23.7861a1.1875,1.1875,0,1,1,.8936-1.9687,1.19614,1.19614,0,0,1,.2881.7807A1.17263,1.17263,0,0,1,452.51949,23.7861Z" transform="translate(-10.26527 -9.7466)"/><path class="cls-2" d="M452.51969,22.7859a.18761.18761,0,0,0,0-.375.18761.18761,0,0,0,0,.375Z" transform="translate(-10.26527 -9.7466)"/><path class="cls-1" d="M463.57519,17.5386a2.51047,2.51047,0,0,1-2.54-2.5928,2.67343,2.67343,0,0,1,.6269-1.7476,2.47153,2.47153,0,0,1,1.9131-.8471,2.51018,2.51018,0,0,1,2.5391,2.5927,2.6776,2.6776,0,0,1-.626,1.7476A2.47144,2.47144,0,0,1,463.57519,17.5386Z" transform="translate(-10.26527 -9.7466)"/><path class="cls-2" d="M463.57479,16.5386a1.5947,1.5947,0,0,0,0-3.1875,1.5947,1.5947,0,0,0,0,3.1875Z" transform="translate(-10.26527 -9.7466)"/><path class="cls-1" d="M516.29879,16.7417a1.7441,1.7441,0,0,1-1.7695-1.7964,1.839,1.839,0,0,1,.4336-1.1992,1.77685,1.77685,0,0,1,3.1064,1.1982,1.83585,1.83585,0,0,1-.4345,1.1997A1.72982,1.72982,0,0,1,516.29879,16.7417Z" transform="translate(-10.26527 -9.7466)"/><path class="cls-2" d="M516.29919,15.7418a.79738.79738,0,0,0,0-1.5938.79738.79738,0,0,0,0,1.5938Z" transform="translate(-10.26527 -9.7466)"/><path class="cls-1" d="M429.55859,31.8613a1.5824,1.5824,0,0,1-1.5889-1.6089,1.64284,1.64284,0,0,1,.3887-1.0703,1.553,1.553,0,0,1,1.2002-.5395,1.58177,1.58177,0,0,1,1.5889,1.6089,1.63788,1.63788,0,0,1-.3887,1.0708A1.55417,1.55417,0,0,1,429.55859,31.8613Z" transform="translate(-10.26527 -9.7466)"/><path class="cls-2" d="M429.55909,30.8613a.60971.60971,0,0,0,0-1.2187.60971.60971,0,0,0,0,1.2187Z" transform="translate(-10.26527 -9.7466)"/><path class="cls-1" d="M22.2207,405.8408a2.16719,2.16719,0,0,1-1.6758-.7431,2.332,2.332,0,0,1-.5469-1.5215,2.22286,2.22286,0,1,1,2.2227,2.2646Z" transform="translate(-10.26527 -9.7466)"/><path class="cls-2" d="M22.2205,404.8404a1.26636,1.26636,0,0,0,0-2.5312,1.26636,1.26636,0,0,0,0,2.5312Z" transform="translate(-10.26527 -9.7466)"/><path class="cls-1" d="M13.6538,437.7803a1.75408,1.75408,0,0,1-.8848-.2422l-1.6474-.9444a1.6149,1.6149,0,0,1-.7993-1.8486,1.7514,1.7514,0,0,1,1.687-1.3037,1.77537,1.77537,0,0,1,.7304.1592l1.7413.7822a1.65309,1.65309,0,0,1,.9531,1.8936,1.865,1.865,0,0,1-1.7803,1.5039Z" transform="translate(-10.26527 -9.7466)"/><path class="cls-2" d="M14.0712,435.2949q-.87075-.391-1.7415-.7823c-.8076-.3627-1.5125.7541-.7098,1.2143q.8235.47205,1.6469.9442c.907.52,1.7233-.9634.8044-1.3762Z" transform="translate(-10.26527 -9.7466)"/><path class="cls-1" d="M39.2285,439.0059a2.1671,2.1671,0,0,1-1.6758-.7432,2.33168,2.33168,0,0,1-.5468-1.5215,2.22281,2.22281,0,1,1,2.2226,2.2647Z" transform="translate(-10.26527 -9.7466)"/><path class="cls-2" d="M39.2283,438.0058a1.26641,1.26641,0,0,0,0-2.5313,1.26641,1.26641,0,0,0,0,2.5313Z" transform="translate(-10.26527 -9.7466)"/><path class="cls-1" d="M36.6772,422.7607a1.32815,1.32815,0,1,1,1.3169-1.3281A1.30831,1.30831,0,0,1,36.6772,422.7607Z" transform="translate(-10.26527 -9.7466)"/><path class="cls-2" d="M36.6772,421.7612a.32835.32835,0,0,0,0-.6563.32835.32835,0,0,0,0,.6563Z" transform="translate(-10.26527 -9.7466)"/><path class="cls-1" d="M54.5356,404.6152a1.89085,1.89085,0,1,1,1.8604-1.8916A1.8345,1.8345,0,0,1,54.5356,404.6152Z" transform="translate(-10.26527 -9.7466)"/><path class="cls-2" d="M54.5354,403.615a.89113.89113,0,0,0,0-1.7812.89113.89113,0,0,0,0,1.7812Z" transform="translate(-10.26527 -9.7466)"/><path class="cls-1" d="M80.8848,428.5596a2.78537,2.78537,0,0,1-.7544-.1035l-.6309-.1768a2.705,2.705,0,0,1-.001-5.1885l.6333-.1777a2.79506,2.79506,0,0,1,.752-.1026,2.9202,2.9202,0,0,1,2.8887,2.8741,2.839,2.839,0,0,1-.8716,2.0449A2.91885,2.91885,0,0,1,80.8848,428.5596Z" transform="translate(-10.26527 -9.7466)"/><path class="cls-2" d="M80.3992,423.877l-.6317.1764a1.70614,1.70614,0,0,0,0,3.2633l.6317.1764a1.87538,1.87538,0,1,0,0-3.6161Z" transform="translate(-10.26527 -9.7466)"/><path class="cls-1" d="M38.4014,421.4707a2.60576,2.60576,0,0,1-2.6172-2.5889,2.64473,2.64473,0,0,1,1.708-2.4345,2.16287,2.16287,0,0,1,.8628-.1856,2.926,2.926,0,0,1,1.2348.3311,2.32343,2.32343,0,0,1,1.3682,2.0478,2.7352,2.7352,0,0,1-1.2715,2.4805,2.54673,2.54673,0,0,1-1.2851.3496Z" transform="translate(-10.26527 -9.7466)"/><path class="cls-2" d="M39.1823,417.5057a1.42868,1.42868,0,0,0-1.2933-.1406,1.64669,1.64669,0,0,0-1.1048,1.5168,1.5939,1.5939,0,1,0,2.3981-1.3762Z" transform="translate(-10.26527 -9.7466)"/><path class="cls-1" d="M23.0708,382.3643a1.69928,1.69928,0,0,1-1.7246-1.75,1.789,1.789,0,0,1,.4224-1.167,1.74165,1.74165,0,1,1,1.3022,2.917Z" transform="translate(-10.26527 -9.7466)"/><path class="cls-2" d="M23.0709,381.3642a.75045.75045,0,0,0,0-1.5.75045.75045,0,0,0,0,1.5Z" transform="translate(-10.26527 -9.7466)"/><path class="cls-1" d="M65.5908,391.7969a2.55641,2.55641,0,0,1-2.3594-1.3946l-.2539-.5302a2.98144,2.98144,0,1,1,5.2266-.002l-.2539.5313A2.55654,2.55654,0,0,1,65.5908,391.7969Z" transform="translate(-10.26527 -9.7466)"/><path class="cls-2" d="M67.0477,389.9698q.1272-.26565.2546-.5314a2.0534,2.0534,0,0,0,0-2.0012,1.9831,1.9831,0,0,0-3.4235,0,2.0534,2.0534,0,0,0,0,2.0012q.12735.26565.2546.5314a1.69712,1.69712,0,0,0,2.9143,0Z" transform="translate(-10.26527 -9.7466)"/><path class="cls-1" d="M97.0552,399.4121a2.55539,2.55539,0,0,1-2.585-2.6396,2.72749,2.72749,0,0,1,.6377-1.7803,2.51537,2.51537,0,0,1,1.9473-.8613,2.55531,2.55531,0,0,1,2.5849,2.6396,2.727,2.727,0,0,1-.6377,1.7803A2.51534,2.51534,0,0,1,97.0552,399.4121Z" transform="translate(-10.26527 -9.7466)"/><path class="cls-2" d="M97.0551,398.4123a1.64163,1.64163,0,0,0,0-3.2813,1.64163,1.64163,0,0,0,0,3.2813Z" transform="translate(-10.26527 -9.7466)"/><path class="cls-1" d="M114.9136,429.2295a1.844,1.844,0,1,1,1.8149-1.8447A1.78921,1.78921,0,0,1,114.9136,429.2295Z" transform="translate(-10.26527 -9.7466)"/><path class="cls-2" d="M114.9134,428.2296a.84426.84426,0,0,0,0-1.6875.84426.84426,0,0,0,0,1.6875Z" transform="translate(-10.26527 -9.7466)"/><path class="cls-1" d="M70.6929,441.5098a2.21915,2.21915,0,1,1,2.1772-2.2198A2.14949,2.14949,0,0,1,70.6929,441.5098Z" transform="translate(-10.26527 -9.7466)"/><path class="cls-2" d="M70.6929,440.5101a1.21948,1.21948,0,0,0,0-2.4375,1.21948,1.21948,0,0,0,0,2.4375Z" transform="translate(-10.26527 -9.7466)"/><path class="cls-1" d="M17.9683,350.3301a1.94779,1.94779,0,0,1-1.5059-.6709,2.08084,2.08084,0,0,1-.4902-1.3594,1.97055,1.97055,0,0,1,1.9961-2.0322,1.95,1.95,0,0,1,1.5058.6699,2.08287,2.08287,0,0,1,.4903,1.3604A1.97031,1.97031,0,0,1,17.9683,350.3301Z" transform="translate(-10.26527 -9.7466)"/><path class="cls-2" d="M17.9685,349.3305a1.03187,1.03187,0,0,0,0-2.0625,1.03187,1.03187,0,0,0,0,2.0625Z" transform="translate(-10.26527 -9.7466)"/><path class="cls-1" d="M546.91309,376.8262a3.01565,3.01565,0,1,1,2.2187-5.0537,3.11552,3.11552,0,0,1,.7286,2.0371A2.89025,2.89025,0,0,1,546.91309,376.8262Z" transform="translate(-10.26527 -9.7466)"/><path class="cls-2" d="M546.91339,375.8266c2.5939,0,2.5982-4.0312,0-4.0312-2.5939,0-2.5982,4.0312,0,4.0312Z" transform="translate(-10.26527 -9.7466)"/><path class="cls-1" d="M547.76369,420.3437a2.20806,2.20806,0,0,1-1.709-.7587,2.37546,2.37546,0,0,1-.5586-1.5528,2.26848,2.26848,0,1,1,2.2676,2.3115Z" transform="translate(-10.26527 -9.7466)"/><path class="cls-2" d="M547.76379,419.344a1.31329,1.31329,0,0,0,0-2.625,1.31329,1.31329,0,0,0,0,2.625Z" transform="translate(-10.26527 -9.7466)"/><path class="cls-1" d="M524.77539,432.2881a2.48777,2.48777,0,0,1-.56839-.0674l-.63961-.1553a2.20743,2.20743,0,0,1,.0019-4.2568l.6348-.1543a2.4693,2.4693,0,0,1,.5703-.0684,2.37231,2.37231,0,0,1,2.3877,2.3506,2.30818,2.30818,0,0,1-.7334,1.6973,2.40215,2.40215,0,0,1-1.6533.6543Z" transform="translate(-10.26527 -9.7466)"/><path class="cls-2" d="M524.44179,428.6262l-.6379.1539a1.20922,1.20922,0,0,0,0,2.3139q.3189.0768.6379.1538a1.35962,1.35962,0,1,0,0-2.6216Z" transform="translate(-10.26527 -9.7466)"/><path class="cls-1" d="M520.55079,409.1953a2.149,2.149,0,0,1-2.17679-2.2178,2.28028,2.28028,0,0,1,.53519-1.4902,2.12246,2.12246,0,0,1,1.6416-.7295,2.21914,2.21914,0,0,1,0,4.4375Z" transform="translate(-10.26527 -9.7466)"/><path class="cls-2" d="M520.55119,408.1951a1.21948,1.21948,0,0,0,0-2.4375,1.21948,1.21948,0,0,0,0,2.4375Z" transform="translate(-10.26527 -9.7466)"/><path class="cls-1" d="M542.66109,431.7334a1.79711,1.79711,0,1,1,1.7696-1.7979A1.744,1.744,0,0,1,542.66109,431.7334Z" transform="translate(-10.26527 -9.7466)"/><path class="cls-2" d="M542.66139,430.7339a.79738.79738,0,0,0,0-1.5938.79738.79738,0,0,0,0,1.5938Z" transform="translate(-10.26527 -9.7466)"/><path class="cls-1" d="M541.81049,402.9141a1.8333,1.8333,0,0,1-1.8593-1.8897,1.9356,1.9356,0,0,1,.4551-1.2637,1.81482,1.81482,0,0,1,1.4042-.6279,1.8909,1.8909,0,0,1,0,3.7813Z" transform="translate(-10.26527 -9.7466)"/><path class="cls-2" d="M541.811,401.9142a.89113.89113,0,0,0,0-1.7812.89113.89113,0,0,0,0,1.7812Z" transform="translate(-10.26527 -9.7466)"/><path class="cls-1" d="M494.18949,427.8975a3.0625,3.0625,0,1,1,2.2529-5.1329,3.16948,3.16948,0,0,1,.7392,2.0694A2.9348,2.9348,0,0,1,494.18949,427.8975Z" transform="translate(-10.26527 -9.7466)"/><path class="cls-2" d="M494.189,426.8971c2.65419,0,2.65859-4.125,0-4.125-2.65431,0-2.65871,4.125,0,4.125Z" transform="translate(-10.26527 -9.7466)"/><path class="cls-1" d="M498.44139,405.3721a1.745,1.745,0,0,1-1.7705-1.7969,1.83608,1.83608,0,0,1,.4346-1.1992,1.77647,1.77647,0,0,1,3.1054,1.1992,1.84072,1.84072,0,0,1-.4336,1.1992A1.72782,1.72782,0,0,1,498.44139,405.3721Z" transform="translate(-10.26527 -9.7466)"/><path class="cls-2" d="M498.44089,404.3717a.79738.79738,0,0,0,0-1.5938.79738.79738,0,0,0,0,1.5938Z" transform="translate(-10.26527 -9.7466)"/><path class="cls-1" d="M512.89749,422.2861a1.64084,1.64084,0,0,1-1.2676-.5683,1.73378,1.73378,0,0,1-.4111-1.1338,1.68533,1.68533,0,0,1,2.94721-1.1358,1.7393,1.7393,0,0,1,.41109,1.1348A1.6548,1.6548,0,0,1,512.89749,422.2861Z" transform="translate(-10.26527 -9.7466)"/><path class="cls-2" d="M512.89759,421.2858a.70352.70352,0,0,0,0-1.4062.70352.70352,0,0,0,0,1.4062Z" transform="translate(-10.26527 -9.7466)"/><polygon class="cls-1" points="460.814 405.93 460.769 404.883 460.769 403.883 461.814 403.836 462.814 403.836 462.859 404.883 462.859 405.883 461.814 405.93 460.814 405.93"/><path class="cls-2" d="M472.07869,414.6768a.04693.04693,0,0,0,0-.0938.04693.04693,0,0,0,0,.0938Z" transform="translate(-10.26527 -9.7466)"/><path class="cls-1" d="M476.33109,438.5771a2.68813,2.68813,0,1,1,2.6298-2.6884A2.6,2.6,0,0,1,476.33109,438.5771Z" transform="translate(-10.26527 -9.7466)"/><path class="cls-2" d="M476.33069,437.5773a1.68851,1.68851,0,0,0,0-3.375,1.68851,1.68851,0,0,0,0,3.375Z" transform="translate(-10.26527 -9.7466)"/><path class="cls-1" d="M475.48049,418.8369a1.60878,1.60878,0,0,1-1.6338-1.6562,1.69156,1.69156,0,0,1,.3994-1.1026,1.63975,1.63975,0,0,1,2.8682,1.1026,1.691,1.691,0,0,1-.3995,1.1025A1.59689,1.59689,0,0,1,475.48049,418.8369Z" transform="translate(-10.26527 -9.7466)"/><path class="cls-2" d="M475.48029,417.8374a.65664.65664,0,0,0,0-1.3125.65664.65664,0,0,0,0,1.3125Z" transform="translate(-10.26527 -9.7466)"/><path class="cls-1" d="M523.94819,392.4297a2.47841,2.47841,0,0,1-2.4941-2.416,2.50381,2.50381,0,0,1,1.8584-2.4619,2.53155,2.53155,0,0,1,2.7598,1.0937l.2431.3555a1.769,1.769,0,0,1,.002,1.9345l-.2451.3555a2.55133,2.55133,0,0,1-2.1241,1.1387Z" transform="translate(-10.26527 -9.7466)"/><path class="cls-2" d="M525.248,390.7256l.24319-.3549a.77742.77742,0,0,0,0-.8044l-.24319-.3549a1.5529,1.5529,0,0,0-1.694-.6893,1.5002,1.5002,0,1,0,1.694,2.2035Z" transform="translate(-10.26527 -9.7466)"/><path class="cls-1" d="M558.81929,395.877a1.599,1.599,0,0,1-1.23429-.5528,1.691,1.691,0,0,1-.39951-1.1025,1.63976,1.63976,0,0,1,2.8682-1.1035,1.69221,1.69221,0,0,1,.3994,1.1015A1.6091,1.6091,0,0,1,558.81929,395.877Z" transform="translate(-10.26527 -9.7466)"/><path class="cls-2" d="M558.81889,394.8767a.65664.65664,0,0,0,0-1.3125.65664.65664,0,0,0,0,1.3125Z" transform="translate(-10.26527 -9.7466)"/><path class="cls-1" d="M481.43259,394.6982a1.30721,1.30721,0,0,1-.9961-.4511,1.34159,1.34159,0,0,1-.3203-.877,1.31974,1.31974,0,0,1,2.3125-.8779,1.34469,1.34469,0,0,1,.32131.8779A1.30869,1.30869,0,0,1,481.43259,394.6982Z" transform="translate(-10.26527 -9.7466)"/><path class="cls-2" d="M481.43309,393.6982a.3283.3283,0,0,0,0-.6562.3283.3283,0,0,0,0,.6562Z" transform="translate(-10.26527 -9.7466)"/><path class="cls-1" d="M449.12789,403.0439a2.90978,2.90978,0,0,1-2.7002-2.8261,2.879,2.879,0,0,1,.8252-2.0537,2.62718,2.62718,0,0,1,1.8887-.8604,2.17966,2.17966,0,0,1,.2637.0156l.67871.0791a2.7767,2.7767,0,0,1,.001,5.5489l-.61231.0722a2.87559,2.87559,0,0,1-.3448.0244Z" transform="translate(-10.26527 -9.7466)"/><path class="cls-2" d="M449.96849,398.392l-.6803-.0798a1.86489,1.86489,0,0,0-1.861,1.861c.04081.9111.8254,1.9825,1.861,1.8611l.6803-.0798a1.78125,1.78125,0,1,0,0-3.5625Z" transform="translate(-10.26527 -9.7466)"/><path class="cls-1" d="M427.84469,425.917a1.92155,1.92155,0,0,1-.9551-.2549l-.63759-.3642a1.52016,1.52016,0,0,1,0-2.627l.63669-.3643a1.94484,1.94484,0,0,1,2.9072,1.6778,1.89837,1.89837,0,0,1-.6084,1.4004,1.95936,1.95936,0,0,1-1.3428.5322Z" transform="translate(-10.26527 -9.7466)"/><path class="cls-2" d="M427.38509,423.1747q-.31875.18225-.6375.3643a.52039.52039,0,0,0,0,.8905q.31875.1821.6375.3643a.93764.93764,0,1,0,0-1.6191Z" transform="translate(-10.26527 -9.7466)"/><path class="cls-1" d="M412.55079,381.2793a1.51575,1.51575,0,1,1,1.498-1.5156,1.54349,1.54349,0,0,1-.3652,1.0058A1.46728,1.46728,0,0,1,412.55079,381.2793Z" transform="translate(-10.26527 -9.7466)"/><path class="cls-2" d="M412.55119,380.2794a.51591.51591,0,0,0,0-1.0312.51591.51591,0,0,0,0,1.0312Z" transform="translate(-10.26527 -9.7466)"/><path class="cls-1" d="M177.8423,426.1494a2.88877,2.88877,0,0,1-2.9468-3.0146,3.11749,3.11749,0,0,1,.728-2.0371,2.99331,2.99331,0,1,1,2.2188,5.0517Z" transform="translate(-10.26527 -9.7466)"/><path class="cls-2" d="M177.8425,425.1495c2.5939,0,2.5982-4.0313,0-4.0313-2.5939,0-2.5982,4.0313,0,4.0313Z" transform="translate(-10.26527 -9.7466)"/><path class="cls-1" d="M150.6299,405.3652a2.5554,2.5554,0,0,1-2.585-2.6396,2.72749,2.72749,0,0,1,.6377-1.7803,2.51537,2.51537,0,0,1,1.9473-.8613,2.55531,2.55531,0,0,1,2.5849,2.6396,2.727,2.727,0,0,1-.6377,1.7803A2.515,2.515,0,0,1,150.6299,405.3652Z" transform="translate(-10.26527 -9.7466)"/><path class="cls-2" d="M150.6299,404.365a1.64158,1.64158,0,0,0,0-3.2812,1.64158,1.64158,0,0,0,0,3.2812Z" transform="translate(-10.26527 -9.7466)"/><path class="cls-1" d="M207.60639,398.9902a2.21914,2.21914,0,1,1,2.1773-2.2197A2.14933,2.14933,0,0,1,207.60639,398.9902Z" transform="translate(-10.26527 -9.7466)"/><path class="cls-2" d="M207.60629,397.9904a1.21948,1.21948,0,0,0,0-2.4375,1.21948,1.21948,0,0,0,0,2.4375Z" transform="translate(-10.26527 -9.7466)"/><path class="cls-1" d="M230.56689,425.9219a1.93776,1.93776,0,1,1,1.9058-1.9385A1.87951,1.87951,0,0,1,230.56689,425.9219Z" transform="translate(-10.26527 -9.7466)"/><path class="cls-2" d="M230.56689,424.9218a.93806.93806,0,0,0,0-1.875.93806.93806,0,0,0,0,1.875Z" transform="translate(-10.26527 -9.7466)"/><path class="cls-1" d="M127.6694,261.3672a2.35987,2.35987,0,0,1,0-4.7188,2.25338,2.25338,0,0,1,1.7432.7725,2.4267,2.4267,0,0,1,.5698,1.5859A2.28588,2.28588,0,0,1,127.6694,261.3672Z" transform="translate(-10.26527 -9.7466)"/><path class="cls-2" d="M127.6693,260.3672a1.36016,1.36016,0,0,0,0-2.7187,1.36016,1.36016,0,0,0,0,2.7187Z" transform="translate(-10.26527 -9.7466)"/><path class="cls-1" d="M142.126,234.9648a1.46884,1.46884,0,1,1,1.4526-1.4687A1.44551,1.44551,0,0,1,142.126,234.9648Z" transform="translate(-10.26527 -9.7466)"/><path class="cls-2" d="M142.126,233.9648a.469.469,0,0,0,0-.9375.469.469,0,0,0,0,.9375Z" transform="translate(-10.26527 -9.7466)"/><path class="cls-1" d="M176.1416,265.9072a1.79706,1.79706,0,1,1,1.7695-1.7978A1.74413,1.74413,0,0,1,176.1416,265.9072Z" transform="translate(-10.26527 -9.7466)"/><path class="cls-2" d="M176.1417,264.9071a.79733.79733,0,0,0,0-1.5937.79733.79733,0,0,0,0,1.5937Z" transform="translate(-10.26527 -9.7466)"/><polygon class="cls-1" points="272.026 148.264 271.978 147.214 271.978 146.214 273.026 146.164 274.026 146.164 274.075 147.214 274.075 148.214 273.026 148.264 272.026 148.264"/><path class="cls-2" d="M283.29129,157.0106a.05.05,0,0,0,0-.1.05.05,0,0,0,0,.1Z" transform="translate(-10.26527 -9.7466)"/><path class="cls-1" d="M284.99409,166.1763a2.27469,2.27469,0,0,1-.6694-.1006l-.6284-.1929a2.21729,2.21729,0,0,1,.0015-4.2388l.6279-.1923a2.27566,2.27566,0,0,1,.6675-.1006,2.44132,2.44132,0,0,1,2.4052,2.4126,2.44123,2.44123,0,0,1-2.4043,2.4126Z" transform="translate(-10.26527 -9.7466)"/><path class="cls-2" d="M284.61829,162.4078l-.62729.1923a1.21733,1.21733,0,0,0,0,2.3274l.62729.1923a1.40652,1.40652,0,1,0,0-2.712Z" transform="translate(-10.26527 -9.7466)"/><path class="cls-1" d="M319.05759,145.79a2.48467,2.48467,0,0,1-2.416-1.7846,2.41573,2.41573,0,0,1,.4209-2.1162,2.48794,2.48794,0,0,1,1.9609-.9864,2.39812,2.39812,0,0,1,.6358.086,2.74607,2.74607,0,0,1,1.7803,1.7485,1.99123,1.99123,0,0,1-.2471,1.7344l-.0479.0884a2.32479,2.32479,0,0,1-2.0869,1.2299Z" transform="translate(-10.26527 -9.7466)"/><path class="cls-2" d="M320.26259,144.0878c.1733-.3236.3773-.6267.2382-1.0044a1.77892,1.77892,0,0,0-1.1066-1.1303,1.45344,1.45344,0,1,0,.8684,2.1347Z" transform="translate(-10.26527 -9.7466)"/><path class="cls-1" d="M291.79489,114.1553a2.26608,2.26608,0,0,1,0-4.5313,2.16663,2.16663,0,0,1,1.6758.7437,2.32946,2.32946,0,0,1,.5469,1.521A2.19524,2.19524,0,0,1,291.79489,114.1553Z" transform="translate(-10.26527 -9.7466)"/><path class="cls-2" d="M291.79529,113.1554a1.26641,1.26641,0,0,0,0-2.5313,1.26641,1.26641,0,0,0,0,2.5313Z" transform="translate(-10.26527 -9.7466)"/><path class="cls-1" d="M427.00779,246.9102a2.25353,2.25353,0,0,1-1.7432-.7725,2.42947,2.42947,0,0,1-.5693-1.5859,2.28553,2.28553,0,0,1,2.3125-2.3604,2.25324,2.25324,0,0,1,1.74321.7725,2.429,2.429,0,0,1,.56929,1.5859A2.28547,2.28547,0,0,1,427.00779,246.9102Z" transform="translate(-10.26527 -9.7466)"/><path class="cls-2" d="M427.00789,245.9106a1.36021,1.36021,0,0,0,0-2.7188,1.36021,1.36021,0,0,0,0,2.7188Z" transform="translate(-10.26527 -9.7466)"/><polygon class="cls-1" points="338.357 261.367 338.308 260.317 338.308 259.317 339.357 259.266 340.357 259.266 340.406 260.317 340.406 261.317 339.357 261.367 338.357 261.367"/><path class="cls-2" d="M349.622,270.113a.05.05,0,0,0,0-.1.05.05,0,0,0,0,.1Z" transform="translate(-10.26527 -9.7466)"/><path class="cls-1" d="M330.06349,277.2373a2.92262,2.92262,0,1,1,2.8554-2.9228A2.83148,2.83148,0,0,1,330.06349,277.2373Z" transform="translate(-10.26527 -9.7466)"/><path class="cls-2" d="M330.063,276.2368a1.923,1.923,0,0,0,0-3.8437,1.923,1.923,0,0,0,0,3.8437Z" transform="translate(-10.26527 -9.7466)"/><path class="cls-1" d="M293.499,259.9092a1.85425,1.85425,0,0,1-1.5-.7119,1.69937,1.69937,0,0,1-.22751-1.545l.0478-.1709a2.38947,2.38947,0,0,1,.6895-1.2597,1.47982,1.47982,0,0,1,1.9746-.001,2.39536,2.39536,0,0,1,.6895,1.2607l.0478.169a1.70427,1.70427,0,0,1-.2266,1.5498,1.84781,1.84781,0,0,1-1.49509.709Z" transform="translate(-10.26527 -9.7466)"/><path class="cls-2" d="M294.26449,257.9456a1.93662,1.93662,0,0,0-.437-.97.483.483,0,0,0-.6629,0,1.93563,1.93563,0,0,0-.4369.97c-.39269,1.2805,1.9319,1.2886,1.5368,0Z" transform="translate(-10.26527 -9.7466)"/><path class="cls-1" d="M547.76369,244.6406a2.55534,2.55534,0,0,1-2.585-2.6396,2.72749,2.72749,0,0,1,.6377-1.7803,2.51539,2.51539,0,0,1,1.9473-.8613,2.6412,2.6412,0,0,1,0,5.2812Z" transform="translate(-10.26527 -9.7466)"/><path class="cls-2" d="M547.76379,243.6406a1.64158,1.64158,0,0,0,0-3.2812,1.64158,1.64158,0,0,0,0,3.2812Z" transform="translate(-10.26527 -9.7466)"/><path class="cls-1" d="M454.22069,131.498a1.75,1.75,0,1,1,1.3018-2.9174,1.788,1.788,0,0,1,.4228,1.167A1.69932,1.69932,0,0,1,454.22069,131.498Z" transform="translate(-10.26527 -9.7466)"/><path class="cls-2" d="M454.22049,130.498a.75045.75045,0,0,0,0-1.5.75045.75045,0,0,0,0,1.5Z" transform="translate(-10.26527 -9.7466)"/><path class="cls-1" d="M437.21289,82.8687a1.65334,1.65334,0,0,1-1.5117-1.0479l-.3164-.7637a1.74984,1.74984,0,0,1,.1836-1.6626,1.94349,1.94349,0,0,1,3.288.0005,1.7469,1.7469,0,0,1,.18361,1.6626l-.31641.7627a1.63,1.63,0,0,1-1.5107,1.0484Z" transform="translate(-10.26527 -9.7466)"/><path class="cls-2" d="M436.30859,80.6744q.15825.3816.31641.7632a.616.616,0,0,0,1.17519,0q.15825-.3816.3164-.7632a.93767.93767,0,1,0-1.808,0Z" transform="translate(-10.26527 -9.7466)"/><path class="cls-1" d="M411.70119,131.498a1.75,1.75,0,1,1,1.3017-2.9174,1.78752,1.78752,0,0,1,.4229,1.167A1.69932,1.69932,0,0,1,411.70119,131.498Z" transform="translate(-10.26527 -9.7466)"/><path class="cls-2" d="M411.70079,130.498a.75045.75045,0,0,0,0-1.5.75045.75045,0,0,0,0,1.5Z" transform="translate(-10.26527 -9.7466)"/><path class="cls-1" d="M112.3623,142.312a2.35981,2.35981,0,0,1,0-4.7187,2.254,2.254,0,0,1,1.7437.7729,2.4285,2.4285,0,0,1,.5693,1.5859A2.28539,2.28539,0,0,1,112.3623,142.312Z" transform="translate(-10.26527 -9.7466)"/><path class="cls-2" d="M112.3622,141.3121a1.36016,1.36016,0,0,0,0-2.7187,1.36016,1.36016,0,0,0,0,2.7187Z" transform="translate(-10.26527 -9.7466)"/><path class="cls-1" d="M29.0234,147.5083a2.34112,2.34112,0,0,1-1.8115-.8022,2.52489,2.52489,0,0,1-.5918-1.6499,2.37583,2.37583,0,0,1,2.4033-2.4541,2.34085,2.34085,0,0,1,1.8116.8022,2.525,2.525,0,0,1,.5922,1.6499A2.376,2.376,0,0,1,29.0234,147.5083Z" transform="translate(-10.26527 -9.7466)"/><path class="cls-2" d="M29.0236,146.5082a1.454,1.454,0,0,0,0-2.9062,1.454,1.454,0,0,0,0,2.9062Z" transform="translate(-10.26527 -9.7466)"/><path class="cls-1" d="M25.6221,230.5654a2.17222,2.17222,0,1,1,2.1323-2.1728A2.105,2.105,0,0,1,25.6221,230.5654Z" transform="translate(-10.26527 -9.7466)"/><path class="cls-2" d="M25.622,229.5656a1.1726,1.1726,0,0,0,0-2.3438,1.1726,1.1726,0,0,0,0,2.3438Z" transform="translate(-10.26527 -9.7466)"/><path class="cls-1" d="M168.4883,131.022a1.29941,1.29941,0,0,1-1.1953-.8164l-.3164-.7632a1.49272,1.49272,0,0,1,.1059-1.4214,1.768,1.768,0,0,1,2.8101.0029,1.48864,1.48864,0,0,1,.1069,1.4185l-.3164.7632a1.29884,1.29884,0,0,1-1.1948.8164Z" transform="translate(-10.26527 -9.7466)"/><path class="cls-2" d="M167.9006,129.0596q.1581.3816.3164.7632a.28432.28432,0,0,0,.5424,0q.15825-.3816.3164-.7632c.4033-.9728-1.5814-.9797-1.1752,0Z" transform="translate(-10.26527 -9.7466)"/><path class="cls-1" d="M135.3228,105.2764a1.84744,1.84744,0,0,1-1.5796-.8667,1.98883,1.98883,0,0,1-.0874-1.9131l.3237-.6612a1.51625,1.51625,0,0,1,2.6865,0l.3242.6617a1.98783,1.98783,0,0,1-.0879,1.9126A1.84678,1.84678,0,0,1,135.3228,105.2764Z" transform="translate(-10.26527 -9.7466)"/><path class="cls-2" d="M136.0919,102.9363q-.162-.3306-.3238-.6611a.51879.51879,0,0,0-.8905,0q-.16185.3306-.3238.6611a.89075.89075,0,1,0,1.5381,0Z" transform="translate(-10.26527 -9.7466)"/><path class="cls-1" d="M169.65771,99.2458a2.50053,2.50053,0,0,1,0-5,2.38451,2.38451,0,0,1,1.8452.8169,2.57467,2.57467,0,0,1,.6035,1.6822A2.42091,2.42091,0,0,1,169.65771,99.2458Z" transform="translate(-10.26527 -9.7466)"/><path class="cls-2" d="M169.65751,98.2457a1.5009,1.5009,0,0,0,0-3,1.5009,1.5009,0,0,0,0,3Z" transform="translate(-10.26527 -9.7466)"/><path class="cls-1" d="M205.374,79.6399a2.37523,2.37523,0,0,1-2.4038-2.4522,2.528,2.528,0,0,1,.5923-1.6508,2.33992,2.33992,0,0,1,1.8115-.8033,2.37523,2.37523,0,0,1,2.4038,2.4522,2.52894,2.52894,0,0,1-.5923,1.6509A2.34016,2.34016,0,0,1,205.374,79.6399Z" transform="translate(-10.26527 -9.7466)"/><path class="cls-2" d="M205.374,78.6398a1.454,1.454,0,0,0,0-2.9063,1.454,1.454,0,0,0,0,2.9063Z" transform="translate(-10.26527 -9.7466)"/><path class="cls-1" d="M167.95651,79.0237a2.68812,2.68812,0,1,1,2.6304-2.6885,2.77424,2.77424,0,0,1-.6489,1.812A2.55966,2.55966,0,0,1,167.95651,79.0237Z" transform="translate(-10.26527 -9.7466)"/><path class="cls-2" d="M167.95671,78.0238a1.68851,1.68851,0,0,0,0-3.375,1.68851,1.68851,0,0,0,0,3.375Z" transform="translate(-10.26527 -9.7466)"/><path class="cls-1" d="M496.51491,154.59915a2.37524,2.37524,0,0,1-2.40381-2.4522,2.528,2.528,0,0,1,.5923-1.6508,2.33993,2.33993,0,0,1,1.81151-.8033,2.37523,2.37523,0,0,1,2.40379,2.4522,2.52894,2.52894,0,0,1-.5923,1.6509A2.34016,2.34016,0,0,1,496.51491,154.59915Z" transform="translate(-10.26527 -9.7466)"/><path class="cls-2" d="M496.51491,153.59905a1.454,1.454,0,0,0,0-2.9063,1.454,1.454,0,0,0,0,2.9063Z" transform="translate(-10.26527 -9.7466)"/><path class="cls-1" d="M494.8142,237.84375a2.35981,2.35981,0,0,1,0-4.7187,2.254,2.254,0,0,1,1.74371.7729,2.42854,2.42854,0,0,1,.56929,1.5859A2.28539,2.28539,0,0,1,494.8142,237.84375Z" transform="translate(-10.26527 -9.7466)"/><path class="cls-2" d="M494.8141,236.84385a1.36016,1.36016,0,0,0,0-2.7187,1.36016,1.36016,0,0,0,0,2.7187Z" transform="translate(-10.26527 -9.7466)"/><path class="cls-1" d="M550.9402,226.55375a1.29939,1.29939,0,0,1-1.19529-.8164l-.31641-.7632a1.49272,1.49272,0,0,1,.1059-1.4214,1.768,1.768,0,0,1,2.8101.0029,1.48861,1.48861,0,0,1,.1069,1.4185l-.3164.7632a1.29883,1.29883,0,0,1-1.1948.8164Z" transform="translate(-10.26527 -9.7466)"/><path class="cls-2" d="M550.3525,224.59135q.15811.3816.31641.7632a.28432.28432,0,0,0,.54239,0q.15825-.3816.3164-.7632c.4033-.9728-1.5814-.9797-1.1752,0Z" transform="translate(-10.26527 -9.7466)"/><path class="cls-1" d="M517.7747,200.80815a1.84746,1.84746,0,0,1-1.5796-.8667,1.98886,1.98886,0,0,1-.0874-1.9131l.3237-.6612a1.51626,1.51626,0,0,1,2.68651,0l.32419.6617a1.9878,1.9878,0,0,1-.0879,1.9126A1.84676,1.84676,0,0,1,517.7747,200.80815Z" transform="translate(-10.26527 -9.7466)"/><path class="cls-2" d="M518.5438,198.46805q-.162-.3306-.3238-.6611a.51879.51879,0,0,0-.8905,0q-.16185.3306-.3238.6611a.89075.89075,0,1,0,1.5381,0Z" transform="translate(-10.26527 -9.7466)"/><path class="cls-1" d="M552.10962,194.77755a2.50053,2.50053,0,0,1,0-5,2.38451,2.38451,0,0,1,1.8452.8169,2.57467,2.57467,0,0,1,.6035,1.6822A2.42091,2.42091,0,0,1,552.10962,194.77755Z" transform="translate(-10.26527 -9.7466)"/><path class="cls-2" d="M552.10942,193.77745a1.5009,1.5009,0,0,0,0-3,1.5009,1.5009,0,0,0,0,3Z" transform="translate(-10.26527 -9.7466)"/><path class="cls-1" d="M550.40842,174.55545a2.68812,2.68812,0,1,1,2.6304-2.6885,2.77424,2.77424,0,0,1-.6489,1.812A2.55966,2.55966,0,0,1,550.40842,174.55545Z" transform="translate(-10.26527 -9.7466)"/><path class="cls-2" d="M550.40862,173.55555a1.68851,1.68851,0,0,0,0-3.375,1.68851,1.68851,0,0,0,0,3.375Z" transform="translate(-10.26527 -9.7466)"/><path class="cls-1" d="M479.46088,265.85315a2.07843,2.07843,0,1,1,2.0415-2.0786A2.01469,2.01469,0,0,1,479.46088,265.85315Z" transform="translate(-10.26527 -9.7466)"/><path class="cls-2" d="M479.46108,264.85335a1.07875,1.07875,0,0,0,0-2.1562,1.07875,1.07875,0,0,0,0,2.1562Z" transform="translate(-10.26527 -9.7466)"/><path class="cls-1" d="M519.42968,369.64765a1.29941,1.29941,0,0,1-1.1953-.8164l-.3164-.7632a1.49272,1.49272,0,0,1,.1059-1.4214,1.768,1.768,0,0,1,2.8101.0029,1.48864,1.48864,0,0,1,.1069,1.4185l-.3164.7632a1.29884,1.29884,0,0,1-1.1948.8164Z" transform="translate(-10.26527 -9.7466)"/><path class="cls-2" d="M518.842,367.68525q.1581.3816.3164.7632a.28432.28432,0,0,0,.5424,0q.15825-.3816.3164-.7632c.4033-.9728-1.5814-.9797-1.1752,0Z" transform="translate(-10.26527 -9.7466)"/><path class="cls-1" d="M486.26418,343.902a1.84744,1.84744,0,0,1-1.5796-.8667,1.98883,1.98883,0,0,1-.0874-1.9131l.3237-.6612a1.51625,1.51625,0,0,1,2.6865,0l.3242.6617a1.98783,1.98783,0,0,1-.0879,1.9126A1.84678,1.84678,0,0,1,486.26418,343.902Z" transform="translate(-10.26527 -9.7466)"/><path class="cls-2" d="M487.03328,341.562q-.162-.3306-.3238-.6611a.51879.51879,0,0,0-.8905,0q-.16185.3306-.3238.6611a.89075.89075,0,1,0,1.5381,0Z" transform="translate(-10.26527 -9.7466)"/><path class="cls-1" d="M520.5991,337.87145a2.50053,2.50053,0,0,1,0-5,2.38451,2.38451,0,0,1,1.8452.8169,2.57467,2.57467,0,0,1,.6035,1.6822A2.42091,2.42091,0,0,1,520.5991,337.87145Z" transform="translate(-10.26527 -9.7466)"/><path class="cls-2" d="M520.5989,336.87135a1.5009,1.5009,0,0,0,0-3,1.5009,1.5009,0,0,0,0,3Z" transform="translate(-10.26527 -9.7466)"/><path class="cls-1" d="M556.3154,318.26555a2.37524,2.37524,0,0,1-2.40381-2.4522,2.528,2.528,0,0,1,.5923-1.6508,2.33993,2.33993,0,0,1,1.81151-.8033,2.37523,2.37523,0,0,1,2.40379,2.4522,2.52894,2.52894,0,0,1-.5923,1.6509A2.34016,2.34016,0,0,1,556.3154,318.26555Z" transform="translate(-10.26527 -9.7466)"/><path class="cls-2" d="M556.3154,317.26545a1.454,1.454,0,0,0,0-2.9063,1.454,1.454,0,0,0,0,2.9063Z" transform="translate(-10.26527 -9.7466)"/><path class="cls-1" d="M518.8979,317.64935a2.68812,2.68812,0,1,1,2.6304-2.6885,2.77424,2.77424,0,0,1-.6489,1.812A2.55966,2.55966,0,0,1,518.8979,317.64935Z" transform="translate(-10.26527 -9.7466)"/><path class="cls-2" d="M518.8981,316.64945a1.68851,1.68851,0,0,0,0-3.375,1.68851,1.68851,0,0,0,0,3.375Z" transform="translate(-10.26527 -9.7466)"/><path class="cls-1" d="M203.67331,162.8845a2.35981,2.35981,0,0,1,0-4.7187,2.254,2.254,0,0,1,1.7437.7729,2.4285,2.4285,0,0,1,.5693,1.5859A2.28539,2.28539,0,0,1,203.67331,162.8845Z" transform="translate(-10.26527 -9.7466)"/><path class="cls-2" d="M203.67321,161.8846a1.36016,1.36016,0,0,0,0-2.7187,1.36016,1.36016,0,0,0,0,2.7187Z" transform="translate(-10.26527 -9.7466)"/><path class="cls-1" d="M259.79931,151.5945a1.29941,1.29941,0,0,1-1.1953-.8164l-.3164-.7632a1.49272,1.49272,0,0,1,.1059-1.4214,1.768,1.768,0,0,1,2.8101.0029,1.48864,1.48864,0,0,1,.1069,1.4185l-.3164.7632a1.29884,1.29884,0,0,1-1.1948.8164Z" transform="translate(-10.26527 -9.7466)"/><path class="cls-2" d="M259.21161,149.6321q.1581.3816.3164.7632a.28432.28432,0,0,0,.5424,0q.15825-.3816.3164-.7632c.4033-.9728-1.5814-.9797-1.1752,0Z" transform="translate(-10.26527 -9.7466)"/><path class="cls-1" d="M226.63381,125.8489a1.84744,1.84744,0,0,1-1.5796-.8667,1.98883,1.98883,0,0,1-.0874-1.9131l.3237-.6612a1.51625,1.51625,0,0,1,2.6865,0l.3242.6617a1.98783,1.98783,0,0,1-.0879,1.9126A1.84678,1.84678,0,0,1,226.63381,125.8489Z" transform="translate(-10.26527 -9.7466)"/><path class="cls-2" d="M227.40291,123.5088q-.162-.3306-.3238-.6611a.51879.51879,0,0,0-.8905,0q-.16185.3306-.3238.6611a.89075.89075,0,1,0,1.5381,0Z" transform="translate(-10.26527 -9.7466)"/><path class="cls-1" d="M183.78007,213.0065a2.50053,2.50053,0,0,1,0-5,2.38451,2.38451,0,0,1,1.8452.8169,2.57467,2.57467,0,0,1,.6035,1.6822A2.42091,2.42091,0,0,1,183.78007,213.0065Z" transform="translate(-10.26527 -9.7466)"/><path class="cls-2" d="M183.77987,212.0064a1.5009,1.5009,0,0,0,0-3,1.5009,1.5009,0,0,0,0,3Z" transform="translate(-10.26527 -9.7466)"/><path class="cls-1" d="M219.49637,193.4006a2.37523,2.37523,0,0,1-2.4038-2.4522,2.528,2.528,0,0,1,.5923-1.6508,2.33992,2.33992,0,0,1,1.8115-.8033,2.37523,2.37523,0,0,1,2.4038,2.4522,2.52894,2.52894,0,0,1-.5923,1.6509A2.34016,2.34016,0,0,1,219.49637,193.4006Z" transform="translate(-10.26527 -9.7466)"/><path class="cls-2" d="M219.49637,192.4005a1.454,1.454,0,0,0,0-2.9063,1.454,1.454,0,0,0,0,2.9063Z" transform="translate(-10.26527 -9.7466)"/><path class="cls-1" d="M182.07887,192.7844a2.68812,2.68812,0,1,1,2.6304-2.6885,2.77424,2.77424,0,0,1-.6489,1.812A2.55966,2.55966,0,0,1,182.07887,192.7844Z" transform="translate(-10.26527 -9.7466)"/><path class="cls-2" d="M182.07907,191.7845a1.68851,1.68851,0,0,0,0-3.375,1.68851,1.68851,0,0,0,0,3.375Z" transform="translate(-10.26527 -9.7466)"/><path class="cls-1" d="M217.79567,276.6452a2.35981,2.35981,0,0,1,0-4.7187,2.254,2.254,0,0,1,1.7437.7729,2.4285,2.4285,0,0,1,.5693,1.5859A2.28539,2.28539,0,0,1,217.79567,276.6452Z" transform="translate(-10.26527 -9.7466)"/><path class="cls-2" d="M217.79557,275.6453a1.36016,1.36016,0,0,0,0-2.7187,1.36016,1.36016,0,0,0,0,2.7187Z" transform="translate(-10.26527 -9.7466)"/><path class="cls-1" d="M273.92167,265.3552a1.29941,1.29941,0,0,1-1.1953-.8164l-.3164-.7632a1.49272,1.49272,0,0,1,.1059-1.4214,1.768,1.768,0,0,1,2.8101.0029,1.48864,1.48864,0,0,1,.1069,1.4185l-.3164.7632a1.29884,1.29884,0,0,1-1.1948.8164Z" transform="translate(-10.26527 -9.7466)"/><path class="cls-2" d="M273.334,263.3928q.1581.3816.3164.7632a.28432.28432,0,0,0,.5424,0q.15825-.3816.3164-.7632c.4033-.9728-1.5814-.9797-1.1752,0Z" transform="translate(-10.26527 -9.7466)"/><path class="cls-1" d="M240.75617,239.6096a1.84744,1.84744,0,0,1-1.5796-.8667,1.98883,1.98883,0,0,1-.0874-1.9131l.3237-.6612a1.51625,1.51625,0,0,1,2.6865,0l.3242.6617a1.98783,1.98783,0,0,1-.0879,1.9126A1.84678,1.84678,0,0,1,240.75617,239.6096Z" transform="translate(-10.26527 -9.7466)"/><path class="cls-2" d="M241.52527,237.2695q-.162-.3306-.3238-.6611a.51879.51879,0,0,0-.8905,0q-.16185.3306-.3238.6611a.89075.89075,0,1,0,1.5381,0Z" transform="translate(-10.26527 -9.7466)"/><path class="cls-1" d="M344.21429,71.6091a2.50053,2.50053,0,0,1,0-5,2.38451,2.38451,0,0,1,1.8452.8169,2.57467,2.57467,0,0,1,.6035,1.6822A2.42091,2.42091,0,0,1,344.21429,71.6091Z" transform="translate(-10.26527 -9.7466)"/><path class="cls-2" d="M344.21409,70.609a1.5009,1.5009,0,0,0,0-3,1.5009,1.5009,0,0,0,0,3Z" transform="translate(-10.26527 -9.7466)"/><path class="cls-1" d="M379.93059,52.0032a2.37524,2.37524,0,0,1-2.40381-2.4522,2.528,2.528,0,0,1,.5923-1.6508,2.33993,2.33993,0,0,1,1.81151-.8033,2.37523,2.37523,0,0,1,2.40379,2.4522,2.52894,2.52894,0,0,1-.5923,1.6509A2.34016,2.34016,0,0,1,379.93059,52.0032Z" transform="translate(-10.26527 -9.7466)"/><path class="cls-2" d="M379.93059,51.0031a1.454,1.454,0,0,0,0-2.9063,1.454,1.454,0,0,0,0,2.9063Z" transform="translate(-10.26527 -9.7466)"/><path class="cls-1" d="M342.51309,51.387a2.68812,2.68812,0,1,1,2.6304-2.6885,2.77424,2.77424,0,0,1-.6489,1.812A2.55966,2.55966,0,0,1,342.51309,51.387Z" transform="translate(-10.26527 -9.7466)"/><path class="cls-2" d="M342.51329,50.3871a1.68851,1.68851,0,0,0,0-3.375,1.68851,1.68851,0,0,0,0,3.375Z" transform="translate(-10.26527 -9.7466)"/><path class="cls-1" d="M378.22988,135.2478a2.35981,2.35981,0,0,1,0-4.7187,2.254,2.254,0,0,1,1.74371.7729,2.42854,2.42854,0,0,1,.56929,1.5859A2.28539,2.28539,0,0,1,378.22988,135.2478Z" transform="translate(-10.26527 -9.7466)"/><path class="cls-2" d="M378.22978,134.2479a1.36016,1.36016,0,0,0,0-2.7187,1.36016,1.36016,0,0,0,0,2.7187Z" transform="translate(-10.26527 -9.7466)"/><path class="cls-1" d="M434.35588,123.9578a1.29939,1.29939,0,0,1-1.19529-.8164l-.31641-.7632a1.49272,1.49272,0,0,1,.1059-1.4214,1.768,1.768,0,0,1,2.8101.0029,1.48861,1.48861,0,0,1,.1069,1.4185l-.3164.7632a1.29883,1.29883,0,0,1-1.1948.8164Z" transform="translate(-10.26527 -9.7466)"/><path class="cls-2" d="M433.76818,121.9954q.15812.3816.31641.7632a.28432.28432,0,0,0,.54239,0q.15825-.3816.3164-.7632c.4033-.9728-1.5814-.9797-1.1752,0Z" transform="translate(-10.26527 -9.7466)"/><path class="cls-1" d="M401.19038,98.2122a1.84746,1.84746,0,0,1-1.5796-.8667,1.98886,1.98886,0,0,1-.0874-1.9131l.3237-.6612a1.51626,1.51626,0,0,1,2.68651,0l.32419.6617a1.9878,1.9878,0,0,1-.0879,1.9126A1.84676,1.84676,0,0,1,401.19038,98.2122Z" transform="translate(-10.26527 -9.7466)"/><path class="cls-2" d="M401.95948,95.8721q-.162-.3306-.3238-.6611a.51879.51879,0,0,0-.8905,0q-.16185.3306-.3238.6611a.89075.89075,0,1,0,1.5381,0Z" transform="translate(-10.26527 -9.7466)"/><path class="cls-1" d="M310.29989,223.1706a2.50053,2.50053,0,0,1,0-5,2.38451,2.38451,0,0,1,1.8452.8169,2.57467,2.57467,0,0,1,.6035,1.6822A2.42091,2.42091,0,0,1,310.29989,223.1706Z" transform="translate(-10.26527 -9.7466)"/><path class="cls-2" d="M310.29969,222.1705a1.5009,1.5009,0,0,0,0-3,1.5009,1.5009,0,0,0,0,3Z" transform="translate(-10.26527 -9.7466)"/><path class="cls-1" d="M346.01619,203.5647a2.37523,2.37523,0,0,1-2.4038-2.4522,2.528,2.528,0,0,1,.5923-1.6508,2.33992,2.33992,0,0,1,1.8115-.8033,2.37523,2.37523,0,0,1,2.4038,2.4522,2.52894,2.52894,0,0,1-.5923,1.6509A2.34016,2.34016,0,0,1,346.01619,203.5647Z" transform="translate(-10.26527 -9.7466)"/><path class="cls-2" d="M346.01619,202.5646a1.454,1.454,0,0,0,0-2.9063,1.454,1.454,0,0,0,0,2.9063Z" transform="translate(-10.26527 -9.7466)"/><path class="cls-1" d="M308.59869,202.9485a2.68812,2.68812,0,1,1,2.6304-2.6885,2.77424,2.77424,0,0,1-.6489,1.812A2.55966,2.55966,0,0,1,308.59869,202.9485Z" transform="translate(-10.26527 -9.7466)"/><path class="cls-2" d="M308.59889,201.9486a1.68851,1.68851,0,0,0,0-3.375,1.68851,1.68851,0,0,0,0,3.375Z" transform="translate(-10.26527 -9.7466)"/><path class="cls-1" d="M344.31549,286.8093a2.35981,2.35981,0,0,1,0-4.7187,2.254,2.254,0,0,1,1.7437.7729,2.4285,2.4285,0,0,1,.5693,1.5859A2.28539,2.28539,0,0,1,344.31549,286.8093Z" transform="translate(-10.26527 -9.7466)"/><path class="cls-2" d="M344.31539,285.8094a1.36016,1.36016,0,0,0,0-2.7187,1.36016,1.36016,0,0,0,0,2.7187Z" transform="translate(-10.26527 -9.7466)"/><path class="cls-1" d="M400.44149,275.5193a1.29941,1.29941,0,0,1-1.1953-.8164l-.3164-.7632a1.49272,1.49272,0,0,1,.1059-1.4214,1.768,1.768,0,0,1,2.8101.0029,1.48864,1.48864,0,0,1,.1069,1.4185l-.3164.7632a1.29884,1.29884,0,0,1-1.1948.8164Z" transform="translate(-10.26527 -9.7466)"/><path class="cls-2" d="M399.85379,273.5569q.1581.3816.3164.7632a.28432.28432,0,0,0,.5424,0q.15825-.3816.3164-.7632c.4033-.9728-1.5814-.9797-1.1752,0Z" transform="translate(-10.26527 -9.7466)"/><path class="cls-1" d="M367.276,249.7737a1.84744,1.84744,0,0,1-1.5796-.8667,1.98883,1.98883,0,0,1-.0874-1.9131l.3237-.6612a1.51625,1.51625,0,0,1,2.6865,0l.3242.6617a1.98783,1.98783,0,0,1-.0879,1.9126A1.84678,1.84678,0,0,1,367.276,249.7737Z" transform="translate(-10.26527 -9.7466)"/><path class="cls-2" d="M368.04509,247.4336q-.162-.3306-.3238-.6611a.51879.51879,0,0,0-.8905,0q-.16185.3306-.3238.6611a.89075.89075,0,1,0,1.5381,0Z" transform="translate(-10.26527 -9.7466)"/><path class="cls-1" d="M433.38863,208.201a2.50053,2.50053,0,0,1,0-5,2.38451,2.38451,0,0,1,1.8452.8169,2.57467,2.57467,0,0,1,.6035,1.6822A2.42091,2.42091,0,0,1,433.38863,208.201Z" transform="translate(-10.26527 -9.7466)"/><path class="cls-2" d="M433.38843,207.2009a1.5009,1.5009,0,0,0,0-3,1.5009,1.5009,0,0,0,0,3Z" transform="translate(-10.26527 -9.7466)"/><path class="cls-1" d="M469.10493,188.5951a2.37523,2.37523,0,0,1-2.4038-2.4522,2.528,2.528,0,0,1,.5923-1.6508,2.33992,2.33992,0,0,1,1.8115-.8033,2.37523,2.37523,0,0,1,2.4038,2.4522,2.52894,2.52894,0,0,1-.5923,1.6509A2.34016,2.34016,0,0,1,469.10493,188.5951Z" transform="translate(-10.26527 -9.7466)"/><path class="cls-2" d="M469.10493,187.595a1.454,1.454,0,0,0,0-2.9063,1.454,1.454,0,0,0,0,2.9063Z" transform="translate(-10.26527 -9.7466)"/><path class="cls-1" d="M431.68743,187.9789a2.68812,2.68812,0,1,1,2.6304-2.6885,2.77424,2.77424,0,0,1-.6489,1.812A2.55966,2.55966,0,0,1,431.68743,187.9789Z" transform="translate(-10.26527 -9.7466)"/><path class="cls-2" d="M431.68763,186.979a1.68851,1.68851,0,0,0,0-3.375,1.68851,1.68851,0,0,0,0,3.375Z" transform="translate(-10.26527 -9.7466)"/><path class="cls-1" d="M188.60422,341.0128a2.25353,2.25353,0,0,1-1.7432-.7725,2.42947,2.42947,0,0,1-.5693-1.5859,2.28553,2.28553,0,0,1,2.3125-2.3604,2.25327,2.25327,0,0,1,1.74322.7725,2.429,2.429,0,0,1,.56928,1.5859A2.28547,2.28547,0,0,1,188.60422,341.0128Z" transform="translate(-10.26527 -9.7466)"/><path class="cls-2" d="M188.60432,340.0132a1.36021,1.36021,0,0,0,0-2.7188,1.36021,1.36021,0,0,0,0,2.7188Z" transform="translate(-10.26527 -9.7466)"/><polygon class="cls-1" points="99.953 355.469 99.904 354.419 99.904 353.419 100.953 353.369 101.953 353.369 102.002 354.419 102.002 355.419 100.953 355.469 99.953 355.469"/><path class="cls-2" d="M111.21844,364.2156a.05.05,0,0,0,0-.1.05.05,0,0,0,0,.1Z" transform="translate(-10.26527 -9.7466)"/><path class="cls-1" d="M91.65993,371.3399a2.92262,2.92262,0,1,1,2.8554-2.9228A2.83148,2.83148,0,0,1,91.65993,371.3399Z" transform="translate(-10.26527 -9.7466)"/><path class="cls-2" d="M91.65944,370.3394a1.923,1.923,0,0,0,0-3.8437,1.923,1.923,0,0,0,0,3.8437Z" transform="translate(-10.26527 -9.7466)"/><path class="cls-1" d="M55.09544,354.0118a1.85425,1.85425,0,0,1-1.5-.7119,1.69937,1.69937,0,0,1-.22751-1.545l.0478-.1709a2.38947,2.38947,0,0,1,.6895-1.2597,1.47982,1.47982,0,0,1,1.9746-.001,2.39536,2.39536,0,0,1,.6895,1.2607l.0478.169a1.70427,1.70427,0,0,1-.2266,1.5498,1.84781,1.84781,0,0,1-1.49509.709Z" transform="translate(-10.26527 -9.7466)"/><path class="cls-2" d="M55.86093,352.0482a1.93662,1.93662,0,0,0-.437-.97.483.483,0,0,0-.6629,0,1.93563,1.93563,0,0,0-.4369.97c-.39269,1.2805,1.9319,1.2886,1.5368,0Z" transform="translate(-10.26527 -9.7466)"/><path class="cls-1" d="M71.89633,317.2732a2.50053,2.50053,0,0,1,0-5,2.38451,2.38451,0,0,1,1.8452.8169,2.57467,2.57467,0,0,1,.6035,1.6822A2.42091,2.42091,0,0,1,71.89633,317.2732Z" transform="translate(-10.26527 -9.7466)"/><path class="cls-2" d="M71.89613,316.2731a1.5009,1.5009,0,0,0,0-3,1.5009,1.5009,0,0,0,0,3Z" transform="translate(-10.26527 -9.7466)"/><path class="cls-1" d="M107.61263,297.6673a2.37524,2.37524,0,0,1-2.40381-2.4522,2.528,2.528,0,0,1,.5923-1.6508,2.33993,2.33993,0,0,1,1.81151-.8033,2.37523,2.37523,0,0,1,2.40379,2.4522,2.52894,2.52894,0,0,1-.5923,1.6509A2.34016,2.34016,0,0,1,107.61263,297.6673Z" transform="translate(-10.26527 -9.7466)"/><path class="cls-2" d="M107.61263,296.6672a1.454,1.454,0,0,0,0-2.9063,1.454,1.454,0,0,0,0,2.9063Z" transform="translate(-10.26527 -9.7466)"/><path class="cls-1" d="M70.19513,297.0511a2.68812,2.68812,0,1,1,2.6304-2.6885,2.77424,2.77424,0,0,1-.6489,1.812A2.55966,2.55966,0,0,1,70.19513,297.0511Z" transform="translate(-10.26527 -9.7466)"/><path class="cls-2" d="M70.19533,296.0512a1.68851,1.68851,0,0,0,0-3.375,1.68851,1.68851,0,0,0,0,3.375Z" transform="translate(-10.26527 -9.7466)"/><path class="cls-1" d="M105.91192,380.9119a2.35981,2.35981,0,0,1,0-4.7187,2.254,2.254,0,0,1,1.74371.7729,2.42854,2.42854,0,0,1,.56929,1.5859A2.28539,2.28539,0,0,1,105.91192,380.9119Z" transform="translate(-10.26527 -9.7466)"/><path class="cls-2" d="M105.91182,379.912a1.36016,1.36016,0,0,0,0-2.7187,1.36016,1.36016,0,0,0,0,2.7187Z" transform="translate(-10.26527 -9.7466)"/><path class="cls-1" d="M162.03792,369.6219a1.29939,1.29939,0,0,1-1.19529-.8164l-.31641-.7632a1.49272,1.49272,0,0,1,.1059-1.4214,1.768,1.768,0,0,1,2.8101.0029,1.48861,1.48861,0,0,1,.1069,1.4185l-.3164.7632a1.29883,1.29883,0,0,1-1.1948.8164Z" transform="translate(-10.26527 -9.7466)"/><path class="cls-2" d="M161.45022,367.6595q.15812.3816.31641.7632a.28432.28432,0,0,0,.54239,0q.15825-.3816.3164-.7632c.4033-.9728-1.5814-.9797-1.1752,0Z" transform="translate(-10.26527 -9.7466)"/><path class="cls-1" d="M128.87242,343.8763a1.84746,1.84746,0,0,1-1.5796-.8667,1.98886,1.98886,0,0,1-.0874-1.9131l.3237-.6612a1.51626,1.51626,0,0,1,2.68651,0l.32419.6617a1.9878,1.9878,0,0,1-.0879,1.9126A1.84676,1.84676,0,0,1,128.87242,343.8763Z" transform="translate(-10.26527 -9.7466)"/><path class="cls-2" d="M129.64152,341.5362q-.162-.3306-.3238-.6611a.51879.51879,0,0,0-.8905,0q-.16185.3306-.3238.6611a.89075.89075,0,1,0,1.5381,0Z" transform="translate(-10.26527 -9.7466)"/><path class="cls-1" d="M194.98507,302.3036a2.50053,2.50053,0,0,1,0-5,2.38451,2.38451,0,0,1,1.8452.8169,2.57467,2.57467,0,0,1,.6035,1.6822A2.42091,2.42091,0,0,1,194.98507,302.3036Z" transform="translate(-10.26527 -9.7466)"/><path class="cls-2" d="M194.98487,301.3035a1.5009,1.5009,0,0,0,0-3,1.5009,1.5009,0,0,0,0,3Z" transform="translate(-10.26527 -9.7466)"/><path class="cls-1" d="M193.28387,282.0815a2.68812,2.68812,0,1,1,2.6304-2.6885,2.77424,2.77424,0,0,1-.6489,1.812A2.55966,2.55966,0,0,1,193.28387,282.0815Z" transform="translate(-10.26527 -9.7466)"/><path class="cls-2" d="M193.28407,281.0816a1.68851,1.68851,0,0,0,0-3.375,1.68851,1.68851,0,0,0,0,3.375Z" transform="translate(-10.26527 -9.7466)"/><path class="cls-1" d="M467.40423,271.8397a2.35981,2.35981,0,0,1,0-4.7187,2.254,2.254,0,0,1,1.7437.7729,2.4285,2.4285,0,0,1,.5693,1.5859A2.28539,2.28539,0,0,1,467.40423,271.8397Z" transform="translate(-10.26527 -9.7466)"/><path class="cls-2" d="M467.40413,270.8398a1.36016,1.36016,0,0,0,0-2.7187,1.36016,1.36016,0,0,0,0,2.7187Z" transform="translate(-10.26527 -9.7466)"/><path class="cls-1" d="M523.53023,260.5497a1.29941,1.29941,0,0,1-1.1953-.8164l-.3164-.7632a1.49272,1.49272,0,0,1,.1059-1.4214,1.768,1.768,0,0,1,2.8101.0029,1.48864,1.48864,0,0,1,.1069,1.4185l-.3164.7632a1.29884,1.29884,0,0,1-1.1948.8164Z" transform="translate(-10.26527 -9.7466)"/><path class="cls-2" d="M522.94253,258.5873q.1581.3816.3164.7632a.28432.28432,0,0,0,.5424,0q.15825-.3816.3164-.7632c.4033-.9728-1.5814-.9797-1.1752,0Z" transform="translate(-10.26527 -9.7466)"/><path class="cls-1" d="M490.36473,234.8041a1.84744,1.84744,0,0,1-1.5796-.8667,1.98883,1.98883,0,0,1-.0874-1.9131l.3237-.6612a1.51625,1.51625,0,0,1,2.6865,0l.3242.6617a1.98783,1.98783,0,0,1-.0879,1.9126A1.84678,1.84678,0,0,1,490.36473,234.8041Z" transform="translate(-10.26527 -9.7466)"/><path class="cls-2" d="M491.13383,232.464q-.162-.3306-.3238-.6611a.51879.51879,0,0,0-.8905,0q-.16185.3306-.3238.6611a.89075.89075,0,1,0,1.5381,0Z" transform="translate(-10.26527 -9.7466)"/><path class="cls-1" d="M51.315,225.3893a2.25353,2.25353,0,0,1-1.7432-.7725,2.42947,2.42947,0,0,1-.5693-1.5859,2.28553,2.28553,0,0,1,2.3125-2.3604,2.25324,2.25324,0,0,1,1.74321.7725,2.429,2.429,0,0,1,.56929,1.5859A2.28547,2.28547,0,0,1,51.315,225.3893Z" transform="translate(-10.26527 -9.7466)"/><path class="cls-2" d="M51.31511,224.3897a1.36021,1.36021,0,0,0,0-2.7188,1.36021,1.36021,0,0,0,0,2.7188Z" transform="translate(-10.26527 -9.7466)"/><path class="cls-1" d="M57.69585,186.6801a2.50053,2.50053,0,0,1,0-5,2.38451,2.38451,0,0,1,1.8452.8169,2.57467,2.57467,0,0,1,.6035,1.6822A2.42091,2.42091,0,0,1,57.69585,186.6801Z" transform="translate(-10.26527 -9.7466)"/><path class="cls-2" d="M57.69565,185.68a1.5009,1.5009,0,0,0,0-3,1.5009,1.5009,0,0,0,0,3Z" transform="translate(-10.26527 -9.7466)"/><path class="cls-1" d="M93.41215,167.0742a2.37523,2.37523,0,0,1-2.4038-2.4522,2.528,2.528,0,0,1,.5923-1.6508,2.33992,2.33992,0,0,1,1.8115-.8033,2.37523,2.37523,0,0,1,2.4038,2.4522,2.52894,2.52894,0,0,1-.5923,1.6509A2.34016,2.34016,0,0,1,93.41215,167.0742Z" transform="translate(-10.26527 -9.7466)"/><path class="cls-2" d="M93.41215,166.0741a1.454,1.454,0,0,0,0-2.9063,1.454,1.454,0,0,0,0,2.9063Z" transform="translate(-10.26527 -9.7466)"/><path class="cls-1" d="M55.99465,166.458a2.68812,2.68812,0,1,1,2.6304-2.6885,2.77424,2.77424,0,0,1-.6489,1.812A2.55966,2.55966,0,0,1,55.99465,166.458Z" transform="translate(-10.26527 -9.7466)"/><path class="cls-2" d="M55.99485,165.4581a1.68851,1.68851,0,0,0,0-3.375,1.68851,1.68851,0,0,0,0,3.375Z" transform="translate(-10.26527 -9.7466)"/><path class="cls-1" d="M91.71145,250.3188a2.35981,2.35981,0,0,1,0-4.7187,2.254,2.254,0,0,1,1.7437.7729,2.4285,2.4285,0,0,1,.5693,1.5859A2.28539,2.28539,0,0,1,91.71145,250.3188Z" transform="translate(-10.26527 -9.7466)"/><path class="cls-2" d="M91.71135,249.3189a1.36016,1.36016,0,0,0,0-2.7187,1.36016,1.36016,0,0,0,0,2.7187Z" transform="translate(-10.26527 -9.7466)"/><path class="cls-1" d="M114.672,213.2832a1.84744,1.84744,0,0,1-1.5796-.8667,1.98883,1.98883,0,0,1-.0874-1.9131l.3237-.6612a1.51625,1.51625,0,0,1,2.6865,0l.3242.6617a1.98783,1.98783,0,0,1-.0879,1.9126A1.84678,1.84678,0,0,1,114.672,213.2832Z" transform="translate(-10.26527 -9.7466)"/><path class="cls-2" d="M115.44105,210.9431q-.162-.3306-.3238-.6611a.51879.51879,0,0,0-.8905,0q-.16185.3306-.3238.6611a.89075.89075,0,1,0,1.5381,0Z" transform="translate(-10.26527 -9.7466)"/><path class="cls-1" d="M216.71556,331.3093a2.50053,2.50053,0,0,1,0-5,2.38451,2.38451,0,0,1,1.8452.8169,2.57467,2.57467,0,0,1,.6035,1.6822A2.42091,2.42091,0,0,1,216.71556,331.3093Z" transform="translate(-10.26527 -9.7466)"/><path class="cls-2" d="M216.71536,330.3092a1.5009,1.5009,0,0,0,0-3,1.5009,1.5009,0,0,0,0,3Z" transform="translate(-10.26527 -9.7466)"/><path class="cls-1" d="M252.43186,311.7034a2.37523,2.37523,0,0,1-2.4038-2.4522,2.528,2.528,0,0,1,.5923-1.6508,2.33992,2.33992,0,0,1,1.8115-.8033,2.37523,2.37523,0,0,1,2.4038,2.4522,2.52894,2.52894,0,0,1-.5923,1.6509A2.34016,2.34016,0,0,1,252.43186,311.7034Z" transform="translate(-10.26527 -9.7466)"/><path class="cls-2" d="M252.43186,310.7033a1.454,1.454,0,0,0,0-2.9063,1.454,1.454,0,0,0,0,2.9063Z" transform="translate(-10.26527 -9.7466)"/><path class="cls-1" d="M215.01436,311.0872a2.68812,2.68812,0,1,1,2.6304-2.6885,2.77424,2.77424,0,0,1-.6489,1.812A2.55966,2.55966,0,0,1,215.01436,311.0872Z" transform="translate(-10.26527 -9.7466)"/><path class="cls-2" d="M215.01456,310.0873a1.68851,1.68851,0,0,0,0-3.375,1.68851,1.68851,0,0,0,0,3.375Z" transform="translate(-10.26527 -9.7466)"/><path class="cls-1" d="M250.73116,394.948a2.35981,2.35981,0,0,1,0-4.7187,2.254,2.254,0,0,1,1.7437.7729,2.4285,2.4285,0,0,1,.5693,1.5859A2.28539,2.28539,0,0,1,250.73116,394.948Z" transform="translate(-10.26527 -9.7466)"/><path class="cls-2" d="M250.73106,393.9481a1.36016,1.36016,0,0,0,0-2.7187,1.36016,1.36016,0,0,0,0,2.7187Z" transform="translate(-10.26527 -9.7466)"/><path class="cls-1" d="M306.85716,383.658a1.29941,1.29941,0,0,1-1.1953-.8164l-.3164-.7632a1.49272,1.49272,0,0,1,.1059-1.4214,1.768,1.768,0,0,1,2.81009.0029,1.48861,1.48861,0,0,1,.1069,1.4185l-.3164.7632a1.29882,1.29882,0,0,1-1.19479.8164Z" transform="translate(-10.26527 -9.7466)"/><path class="cls-2" d="M306.26946,381.6956q.1581.3816.3164.7632a.28432.28432,0,0,0,.5424,0q.15825-.3816.3164-.7632c.4033-.9728-1.5814-.9797-1.1752,0Z" transform="translate(-10.26527 -9.7466)"/><path class="cls-1" d="M273.69166,357.9124a1.84744,1.84744,0,0,1-1.5796-.8667,1.98883,1.98883,0,0,1-.0874-1.9131l.3237-.6612a1.51625,1.51625,0,0,1,2.6865,0l.3242.6617a1.98783,1.98783,0,0,1-.0879,1.9126A1.84678,1.84678,0,0,1,273.69166,357.9124Z" transform="translate(-10.26527 -9.7466)"/><path class="cls-2" d="M274.46076,355.5723q-.162-.3306-.3238-.6611a.51879.51879,0,0,0-.8905,0q-.16185.3306-.3238.6611a.89075.89075,0,1,0,1.5381,0Z" transform="translate(-10.26527 -9.7466)"/><path class="cls-1" d="M245.874,13.3403a1.79706,1.79706,0,1,1,1.76959-1.7973A1.744,1.744,0,0,1,245.874,13.3403Z" transform="translate(-10.26527 -9.7466)"/><path class="cls-2" d="M245.874,12.3402a.79738.79738,0,0,0,0-1.5938.79738.79738,0,0,0,0,1.5938Z" transform="translate(-10.26527 -9.7466)"/><path class="cls-1" d="M295.19729,19.2461a1.75,1.75,0,1,1,1.30171-2.9175,1.788,1.788,0,0,1,.42289,1.167A1.69934,1.69934,0,0,1,295.19729,19.2461Z" transform="translate(-10.26527 -9.7466)"/><path class="cls-2" d="M295.19689,18.2461a.75045.75045,0,0,0,0-1.5.75045.75045,0,0,0,0,1.5Z" transform="translate(-10.26527 -9.7466)"/><path class="cls-1" d="M289.24409,66.1519a2.735,2.735,0,0,1,0-5.4688,2.6005,2.6005,0,0,1,2.0147.8901,2.82,2.82,0,0,1,.6601,1.8433A2.64583,2.64583,0,0,1,289.24409,66.1519Z" transform="translate(-10.26527 -9.7466)"/><path class="cls-2" d="M289.24409,65.1517a1.73544,1.73544,0,0,0,0-3.4688,1.73544,1.73544,0,0,0,0,3.4688Z" transform="translate(-10.26527 -9.7466)"/><polygon class="cls-1" points="433.159 383.134 433.11 382.084 433.11 381.084 434.159 381.034 435.159 381.034 435.207 382.083 435.207 383.083 434.159 383.134 433.159 383.134"/><path class="cls-2" d="M444.42382,391.88015a.05.05,0,0,0,0-.1.05.05,0,0,0,0,.1Z" transform="translate(-10.26527 -9.7466)"/><path class="cls-1" d="M446.12662,401.04585a2.27464,2.27464,0,0,1-.6694-.1006l-.6284-.1929a2.21729,2.21729,0,0,1,.0015-4.2388l.6279-.1923a2.27561,2.27561,0,0,1,.6675-.1006,2.44132,2.44132,0,0,1,2.4052,2.4126,2.44123,2.44123,0,0,1-2.4043,2.4126Z" transform="translate(-10.26527 -9.7466)"/><path class="cls-2" d="M445.75082,397.27735l-.6273.1923a1.21733,1.21733,0,0,0,0,2.3274l.6273.1923a1.40652,1.40652,0,1,0,0-2.712Z" transform="translate(-10.26527 -9.7466)"/><path class="cls-1" d="M452.92742,349.02485a2.26608,2.26608,0,0,1,0-4.5313,2.16663,2.16663,0,0,1,1.6758.7437,2.32946,2.32946,0,0,1,.5469,1.521A2.19524,2.19524,0,0,1,452.92742,349.02485Z" transform="translate(-10.26527 -9.7466)"/><path class="cls-2" d="M452.92782,348.025a1.26641,1.26641,0,0,0,0-2.5313,1.26641,1.26641,0,0,0,0,2.5313Z" transform="translate(-10.26527 -9.7466)"/><path class="cls-1" d="M329.62082,365.89155a1.29941,1.29941,0,0,1-1.1953-.8164l-.3164-.7632a1.49272,1.49272,0,0,1,.1059-1.4214,1.768,1.768,0,0,1,2.8101.0029,1.48864,1.48864,0,0,1,.1069,1.4185l-.3164.7632a1.29884,1.29884,0,0,1-1.1948.8164Z" transform="translate(-10.26527 -9.7466)"/><path class="cls-2" d="M329.03312,363.92915q.1581.3816.3164.7632a.28432.28432,0,0,0,.5424,0q.15825-.3816.3164-.7632c.4033-.9728-1.5814-.9797-1.1752,0Z" transform="translate(-10.26527 -9.7466)"/><path class="cls-1" d="M296.45532,340.146a1.84744,1.84744,0,0,1-1.5796-.8667,1.98883,1.98883,0,0,1-.0874-1.9131l.3237-.6612a1.51625,1.51625,0,0,1,2.6865,0l.3242.6617a1.98783,1.98783,0,0,1-.0879,1.9126A1.84678,1.84678,0,0,1,296.45532,340.146Z" transform="translate(-10.26527 -9.7466)"/><path class="cls-2" d="M297.22442,337.80585q-.162-.3306-.3238-.6611a.51879.51879,0,0,0-.8905,0q-.16185.3306-.3238.6611a.89075.89075,0,1,0,1.5381,0Z" transform="translate(-10.26527 -9.7466)"/><path class="cls-1" d="M330.79024,334.11535a2.50053,2.50053,0,0,1,0-5,2.38451,2.38451,0,0,1,1.8452.8169,2.57467,2.57467,0,0,1,.6035,1.6822A2.42091,2.42091,0,0,1,330.79024,334.11535Z" transform="translate(-10.26527 -9.7466)"/><path class="cls-2" d="M330.79,333.11525a1.5009,1.5009,0,0,0,0-3,1.5009,1.5009,0,0,0,0,3Z" transform="translate(-10.26527 -9.7466)"/><path class="cls-1" d="M366.50654,314.50945a2.37523,2.37523,0,0,1-2.4038-2.4522,2.528,2.528,0,0,1,.5923-1.6508,2.33992,2.33992,0,0,1,1.8115-.8033,2.37523,2.37523,0,0,1,2.4038,2.4522,2.52894,2.52894,0,0,1-.5923,1.6509A2.34016,2.34016,0,0,1,366.50654,314.50945Z" transform="translate(-10.26527 -9.7466)"/><path class="cls-2" d="M366.50654,313.50935a1.454,1.454,0,0,0,0-2.9063,1.454,1.454,0,0,0,0,2.9063Z" transform="translate(-10.26527 -9.7466)"/><path class="cls-1" d="M329.089,313.89325a2.68812,2.68812,0,1,1,2.6304-2.6885,2.77424,2.77424,0,0,1-.6489,1.812A2.55966,2.55966,0,0,1,329.089,313.89325Z" transform="translate(-10.26527 -9.7466)"/><path class="cls-2" d="M329.08924,312.89335a1.68851,1.68851,0,0,0,0-3.375,1.68851,1.68851,0,0,0,0,3.375Z" transform="translate(-10.26527 -9.7466)"/><path class="cls-1" d="M364.80584,397.75405a2.35981,2.35981,0,0,1,0-4.7187,2.254,2.254,0,0,1,1.7437.7729,2.4285,2.4285,0,0,1,.5693,1.5859A2.28539,2.28539,0,0,1,364.80584,397.75405Z" transform="translate(-10.26527 -9.7466)"/><path class="cls-2" d="M364.80574,396.75415a1.36016,1.36016,0,0,0,0-2.7187,1.36016,1.36016,0,0,0,0,2.7187Z" transform="translate(-10.26527 -9.7466)"/><path class="cls-1" d="M420.93183,386.46405a1.29939,1.29939,0,0,1-1.19529-.8164l-.31641-.7632a1.49272,1.49272,0,0,1,.1059-1.4214,1.768,1.768,0,0,1,2.8101.0029,1.48861,1.48861,0,0,1,.1069,1.4185l-.3164.7632a1.29883,1.29883,0,0,1-1.1948.8164Z" transform="translate(-10.26527 -9.7466)"/><path class="cls-2" d="M420.34413,384.50165q.15812.3816.31641.7632a.28432.28432,0,0,0,.54239,0q.15825-.3816.3164-.7632c.4033-.9728-1.5814-.9797-1.1752,0Z" transform="translate(-10.26527 -9.7466)"/><path class="cls-1" d="M387.76634,360.71845a1.84744,1.84744,0,0,1-1.5796-.8667,1.98883,1.98883,0,0,1-.0874-1.9131l.3237-.6612a1.51625,1.51625,0,0,1,2.6865,0l.3242.6617a1.98783,1.98783,0,0,1-.0879,1.9126A1.84678,1.84678,0,0,1,387.76634,360.71845Z" transform="translate(-10.26527 -9.7466)"/><path class="cls-2" d="M388.53544,358.37835q-.162-.3306-.3238-.6611a.51879.51879,0,0,0-.8905,0q-.16185.3306-.3238.6611a.89075.89075,0,1,0,1.5381,0Z" transform="translate(-10.26527 -9.7466)"/><path class="cls-1" d="M450.37662,301.02145a2.735,2.735,0,0,1,0-5.4688,2.6005,2.6005,0,0,1,2.0147.8901,2.82,2.82,0,0,1,.6601,1.8433A2.64583,2.64583,0,0,1,450.37662,301.02145Z" transform="translate(-10.26527 -9.7466)"/><path class="cls-2" d="M450.37662,300.02125a1.73544,1.73544,0,0,0,0-3.4688,1.73544,1.73544,0,0,0,0,3.4688Z" transform="translate(-10.26527 -9.7466)"/><path class="cls-1" d="M39.2285,279.8418a2.12535,2.12535,0,0,1,0-4.25,2.03431,2.03431,0,0,1,1.5737.6992,2.18507,2.18507,0,0,1,.5132,1.4248A2.0607,2.0607,0,0,1,39.2285,279.8418Z" transform="translate(-10.26527 -9.7466)"/><path class="cls-2" d="M39.2283,278.8415a1.12567,1.12567,0,0,0,0-2.25,1.12567,1.12567,0,0,0,0,2.25Z" transform="translate(-10.26527 -9.7466)"/><path class="cls-1" d="M27.3228,287.8301a1.55319,1.55319,0,0,1-1.2002-.5391,1.63726,1.63726,0,0,1-.3887-1.0703,1.58251,1.58251,0,0,1,1.5889-1.6094,1.55314,1.55314,0,0,1,1.2001.5391,1.63726,1.63726,0,0,1,.3887,1.0703A1.58248,1.58248,0,0,1,27.3228,287.8301Z" transform="translate(-10.26527 -9.7466)"/><path class="cls-2" d="M27.3228,286.8298a.60971.60971,0,0,0,0-1.2187.60971.60971,0,0,0,0,1.2187Z" transform="translate(-10.26527 -9.7466)"/><path class="cls-1" d="M303.70119,393.9814a2.31292,2.31292,0,0,1,0-4.625,2.20829,2.20829,0,0,1,1.709.7588,2.376,2.376,0,0,1,.5586,1.5528A2.24021,2.24021,0,0,1,303.70119,393.9814Z" transform="translate(-10.26527 -9.7466)"/><path class="cls-2" d="M303.70079,392.9818a1.31329,1.31329,0,0,0,0-2.625,1.31329,1.31329,0,0,0,0,2.625Z" transform="translate(-10.26527 -9.7466)"/><path class="cls-1" d="M309.65329,423.2236a2.55531,2.55531,0,0,1-2.5849-2.6396,2.727,2.727,0,0,1,.6377-1.7803,2.63288,2.63288,0,0,1,3.8945-.001,2.72308,2.72308,0,0,1,.6377,1.7793A2.55642,2.55642,0,0,1,309.65329,423.2236Z" transform="translate(-10.26527 -9.7466)"/><path class="cls-2" d="M309.65349,422.2233a1.64158,1.64158,0,0,0,0-3.2812,1.64158,1.64158,0,0,0,0,3.2812Z" transform="translate(-10.26527 -9.7466)"/></svg>