<svg xmlns="http://www.w3.org/2000/svg" xmlns:xlink="http://www.w3.org/1999/xlink" viewBox="0 0 872.89104 866.33537"><defs><style>.cls-1{mask:url(#mask);}.cls-10,.cls-12,.cls-15,.cls-16,.cls-2,.cls-20,.cls-4,.cls-6,.cls-9{mix-blend-mode:multiply;}.cls-2{fill:url(#linear-gradient);}.cls-3{mask:url(#mask-2);}.cls-4{fill:url(#linear-gradient-2);}.cls-5{mask:url(#mask-3);}.cls-6{fill:url(#linear-gradient-3);}.cls-7{isolation:isolate;}.cls-8{fill:#d8c34e;}.cls-11,.cls-12,.cls-9{fill:#d83f3f;}.cls-24,.cls-9{opacity:0.13;}.cls-10,.cls-12{opacity:0.25;}.cls-13{opacity:0.85;}.cls-13,.cls-17,.cls-18,.cls-22,.cls-24{mix-blend-mode:screen;}.cls-14{fill:#e5b55e;}.cls-15{fill:#ce9c5f;opacity:0.17;}.cls-16{fill:#ce5f5f;opacity:0.19;}.cls-17,.cls-18{fill:#cec35f;}.cls-17{opacity:0.44;}.cls-18,.cls-22{opacity:0.32;}.cls-19{mask:url(#mask-4);}.cls-20{opacity:0.45;fill:url(#linear-gradient-4);}.cls-21{mask:url(#mask-5);}.cls-22{fill:url(#linear-gradient-5);}.cls-23{mask:url(#mask-6);}.cls-24{fill:url(#linear-gradient-6);}.cls-25{filter:url(#luminosity-noclip-6);}.cls-26{filter:url(#luminosity-noclip-5);}.cls-27{filter:url(#luminosity-noclip-4);}.cls-28{filter:url(#luminosity-noclip-3);}.cls-29{filter:url(#luminosity-noclip-2);}.cls-30{filter:url(#luminosity-noclip);}</style><filter id="luminosity-noclip" x="5.21145" y="-8628" width="866.33411" height="32766" filterUnits="userSpaceOnUse" color-interpolation-filters="sRGB"><feFlood flood-color="#fff" result="bg"/><feBlend in="SourceGraphic" in2="bg"/></filter><mask id="mask" x="5.21145" y="-8628" width="866.33411" height="32766" maskUnits="userSpaceOnUse"><g class="cls-30"/></mask><linearGradient id="linear-gradient" x1="132.08276" y1="129.37372" x2="744.67381" y2="741.96477" gradientTransform="translate(436.46294 -182.3758) rotate(45)" gradientUnits="userSpaceOnUse"><stop offset="0"/><stop offset="1" stop-color="#fff"/></linearGradient><filter id="luminosity-noclip-2" x="0" y="-8628" width="872.00092" height="32766" filterUnits="userSpaceOnUse" color-interpolation-filters="sRGB"><feFlood flood-color="#fff" result="bg"/><feBlend in="SourceGraphic" in2="bg"/></filter><mask id="mask-2" x="0" y="-8628" width="872.00092" height="32766" maskUnits="userSpaceOnUse"><g class="cls-29"/></mask><linearGradient id="linear-gradient-2" x1="371.29322" y1="228.40052" x2="705.94328" y2="743.60421" gradientTransform="translate(121.2655 -78.5596) rotate(19.52394)" gradientUnits="userSpaceOnUse"><stop offset="0.24216"/><stop offset="0.37518" stop-color="#030303"/><stop offset="0.47518" stop-color="#0d0d0d"/><stop offset="0.56444" stop-color="#1d1d1d"/><stop offset="0.64742" stop-color="#343434"/><stop offset="0.72612" stop-color="#515151"/><stop offset="0.80153" stop-color="#767676"/><stop offset="0.8744" stop-color="#a1a1a1"/><stop offset="0.9434" stop-color="#d1d1d1"/><stop offset="1" stop-color="#fff"/></linearGradient><filter id="luminosity-noclip-3" x="119.49372" y="-8628" width="753.39731" height="32766" filterUnits="userSpaceOnUse" color-interpolation-filters="sRGB"><feFlood flood-color="#fff" result="bg"/><feBlend in="SourceGraphic" in2="bg"/></filter><mask id="mask-3" x="119.49372" y="-8628" width="753.39731" height="32766" maskUnits="userSpaceOnUse"><g class="cls-28"/></mask><linearGradient id="linear-gradient-3" x1="282.82614" y1="332.18548" x2="617.46634" y2="847.37399" gradientTransform="matrix(0.9242, -0.3819, 0.3819, 0.9242, -96.4409, 133.9516)" gradientUnits="userSpaceOnUse"><stop offset="0.24216"/><stop offset="0.35159" stop-color="#040404"/><stop offset="0.44864" stop-color="#0e0e0e"/><stop offset="0.54109" stop-color="#212121"/><stop offset="0.63065" stop-color="#3a3a3a"/><stop offset="0.71816" stop-color="#5b5b5b"/><stop offset="0.80418" stop-color="#848484"/><stop offset="0.8889" stop-color="#b4b4b4"/><stop offset="0.97065" stop-color="#eaeaea"/><stop offset="1" stop-color="#fff"/></linearGradient><filter id="luminosity-noclip-4" x="5.21145" y="2.50148" width="866.33411" height="866.33537" filterUnits="userSpaceOnUse" color-interpolation-filters="sRGB"><feFlood flood-color="#fff" result="bg"/><feBlend in="SourceGraphic" in2="bg"/></filter><mask id="mask-4" x="5.21145" y="0" width="866.33411" height="866.33537" maskUnits="userSpaceOnUse"><g class="cls-27"><g transform="translate(0 -2.50148)"><g class="cls-1"><circle class="cls-2" cx="438.37854" cy="435.66948" r="433.16735" transform="translate(-179.66674 437.58507) rotate(-45)"/></g></g></g></mask><linearGradient id="linear-gradient-4" x1="132.08276" y1="129.37372" x2="744.67381" y2="741.96477" gradientTransform="translate(436.46294 -182.3758) rotate(45)" gradientUnits="userSpaceOnUse"><stop offset="0" stop-color="red"/><stop offset="1" stop-color="#930000"/></linearGradient><filter id="luminosity-noclip-5" x="0" y="253.94523" width="872.00092" height="614.12504" filterUnits="userSpaceOnUse" color-interpolation-filters="sRGB"><feFlood flood-color="#fff" result="bg"/><feBlend in="SourceGraphic" in2="bg"/></filter><mask id="mask-5" x="0" y="251.44375" width="872.00092" height="614.12504" maskUnits="userSpaceOnUse"><g class="cls-26"><g transform="translate(0 -2.50148)"><g class="cls-3"><path class="cls-4" d="M833.8083,253.94523a434.792,434.792,0,0,1-24.96576,155.87C728.3667,636.77534,479.14054,755.52369,252.1817,675.04785,135.15279,633.55156,47.00811,547.135,0,442.09139,4.12861,617.69224,114.7965,780.68722,290.19833,842.88221c226.95884,80.47584,476.185-38.27251,556.66084-265.23135A434.40359,434.40359,0,0,0,833.8083,253.94523Z"/></g></g></g></mask><linearGradient id="linear-gradient-5" x1="371.29322" y1="228.40052" x2="705.94328" y2="743.60421" gradientTransform="translate(121.2655 -78.5596) rotate(19.52394)" gradientUnits="userSpaceOnUse"><stop offset="0.24216" stop-color="#fff"/><stop offset="0.91991" stop-color="#fff"/><stop offset="1" stop-color="#fff"/></linearGradient><filter id="luminosity-noclip-6" x="119.49372" y="34.27574" width="753.39731" height="834.55895" filterUnits="userSpaceOnUse" color-interpolation-filters="sRGB"><feFlood flood-color="#fff" result="bg"/><feBlend in="SourceGraphic" in2="bg"/></filter><mask id="mask-6" x="119.49372" y="31.77426" width="753.39731" height="834.55895" maskUnits="userSpaceOnUse"><g class="cls-25"><g transform="translate(0 -2.50148)"><g class="cls-5"><path class="cls-6" d="M613.5121,34.27574a434.80384,434.80384,0,0,1,85.69348,132.573C791.1785,389.39716,685.32651,644.36754,462.77689,736.3417c-114.75447,47.42468-238.08014,42.13659-343.28317-4.513C240.01218,859.60928,431.30053,906.76325,603.29317,835.68309c222.54838-91.97292,328.40161-346.9433,236.42745-569.4917A434.39927,434.39927,0,0,0,613.5121,34.27574Z"/></g></g></g></mask><linearGradient id="linear-gradient-6" x1="282.82614" y1="332.18548" x2="617.46634" y2="847.37399" gradientTransform="matrix(0.9242, -0.3819, 0.3819, 0.9242, -96.4409, 133.9516)" gradientUnits="userSpaceOnUse"><stop offset="0.24216" stop-color="#fff"/><stop offset="0.36318" stop-color="#fefbfb"/><stop offset="0.47055" stop-color="#fbf1f1"/><stop offset="0.57274" stop-color="#f6dfdf"/><stop offset="0.67175" stop-color="#efc5c5"/><stop offset="0.76853" stop-color="#e6a4a4"/><stop offset="0.86354" stop-color="#dc7c7c"/><stop offset="0.95543" stop-color="#cf4d4d"/><stop offset="1" stop-color="#c83333"/></linearGradient></defs><g class="cls-7"><g id="katman_1" data-name="katman 1"><circle class="cls-8" cx="438.37854" cy="435.66948" r="433.16735" transform="translate(-179.66674 435.08359) rotate(-45)"/><path class="cls-9" d="M513.16576,9.06771c10.13488,18.57382,16.601,39.10564,16.915,62.7673.94192,71.08139-63.11589,128.46666-116.18218,166.64522-62.93047,45.27632-132.55942,74.03941-207.87079,91.11506-37.91527,8.59716-78.26938,17.47369-117.42818,13.33889-29.11909-3.07421-48.76215-14.35373-65.1394-31.7619A431.776,431.776,0,0,0,6.35738,405.71014c46.25773,29.50352,110.37981,42.47652,156.37307,41.91285,117.95847-1.44625,237.39162-44.52723,333.51541-112.12526,91.65284-64.45212,170.96179-153.2334,168.73679-269.00767A430.38716,430.38716,0,0,0,513.16576,9.06771Z" transform="translate(0 -2.50148)"/><path class="cls-9" d="M778.42924,234.66188c-7.00381,37.33183-22.10416,76.95416-43.09945,115.64324-42.175,77.60435-106.33538,151.42-180.52181,211.568-73.60684,59.436-161.24348,104.25617-257.6491,125.38132A575.915,575.915,0,0,1,91.5168,695.15939,435.41577,435.41577,0,0,0,129.657,739.41962a633.88929,633.88929,0,0,0,175.2338,24.53312c111.14619.38072,224.29618-27.98434,327.111-79.0741a954.6204,954.6204,0,0,0,146.03428-89.90738,890.5231,890.5231,0,0,0,84.70829-71.99982,433.89678,433.89678,0,0,0-80.1631-350.17573A247.48239,247.48239,0,0,1,778.42924,234.66188Z" transform="translate(0 -2.50148)"/><g class="cls-10"><path class="cls-11" d="M457.77063,128.41434a132.87325,132.87325,0,0,0-21.4552,19.16468c-6.6614,7.33262-11.42909,15.617-16.57743,24.04238-4.48708,7.34251,5.25218,13.50823,11.204,8.64537,7.50691-6.13606,14.79256-11.82465,21.03245-19.26728A127.56375,127.56375,0,0,0,467.531,138.17468c3.07916-5.79-3.59214-14.21406-9.76034-9.76034Z" transform="translate(0 -2.50148)"/></g><g class="cls-10"><path class="cls-11" d="M566.258,327.06621c2.36345,1.67864,6.51926,2.4611,12.47361,2.10139,21.40328-1.29545,31.63582-21.94346,44.71512-35.3219,24.79393-25.35884,46.47658-56.66091,52.97235-92.14969,1.05687-5.77883-5.77141-8.46984-9.2041-3.88016-17.3204,23.15238-28.35764,50.21211-45.58657,73.57587-12.57,17.04846-34.58518,23.84337-49.62,38.21564C563.72522,317.52837,561.79812,323.89682,566.258,327.06621Z" transform="translate(0 -2.50148)"/></g><path class="cls-12" d="M301.45313,213.32164C266.6986,216.79017,80.88747,278.23113,59.60162,225.527a431.21789,431.21789,0,0,0-23.11406,48.54336,82.39135,82.39135,0,0,0,31.88056,19.37235c73.19521,23.234,180.392-6.12864,241.98007-47.27881C323.51155,237.36773,320.23833,211.44522,301.45313,213.32164Z" transform="translate(0 -2.50148)"/><path class="cls-12" d="M474.50017,42.04347c1.3795,22.87549-4.29171,44.27136-6.37339,66.79332-.97035,10.50325,13.85558,12.92974,18.76789,5.0829C503.99752,86.60161,506.8221,40.91,493.91208,6.16655q-12.84012-1.64278-25.899-2.54268C470.73374,16.25076,473.70535,28.87393,474.50017,42.04347Z" transform="translate(0 -2.50148)"/><path class="cls-12" d="M748.10988,132.97683c-3.696,21.13133-6.92223,42.40853-12.40191,63.07262-10.863,40.95981-26.726,80.53641-46.06,118.22423-38.12788,74.32248-93.71213,131.52728-151.9874,190.01887-8.49209,8.52547,2.29051,22.19439,12.71341,16.47738,76.73908-42.0958,134.57189-117.57034,173.39192-194.56529,23.16474-45.94629,45.70277-104.54048,52.4643-161.49187Q762.93767,148.16246,748.10988,132.97683Z" transform="translate(0 -2.50148)"/><path class="cls-12" d="M531.83105,356.20508c-89.0421,38.09821-174.047,82.87019-270.68383,99.25115C175.25227,470.0164,86.40176,463.90506,5.28685,432.67716c-.00618,1.00125-.0754,1.9889-.0754,2.99263,0,4.68362.20519,9.31657.35353,13.96559,171.11376,71.409,382.59894,15.89022,530.50223-86.183C540.60127,360.32257,536.736,354.10616,531.83105,356.20508Z" transform="translate(0 -2.50148)"/><path class="cls-12" d="M636.68921,733.84846c-79.53516,31.46647-159.94673,59.75243-245.73291,67.3298-65.88107,5.81838-133.96118,1.55008-199.80269-9.9025A432.82486,432.82486,0,0,0,245.63649,823.589C381.285,845.77842,529.51087,821.7348,641.53971,745.3542,647.01445,741.62114,643.74864,731.05609,636.68921,733.84846Z" transform="translate(0 -2.50148)"/><path class="cls-9" d="M426.15459,473.3539c-133.73867,1.42277-276.17587,95.05455-411.77484,51.20842a429.93905,429.93905,0,0,0,32.4998,96.58733c38.13165,12.8877,80.62918,16.08305,123.15014,12.35617,51.6596-4.52787,103.05838-14.6504,151.91694-32.03261,55.64977-19.79633,92.73684-39.15014,127.75961-87.07668C462.20086,497.29863,445.30568,473.14994,426.15459,473.3539Z" transform="translate(0 -2.50148)"/><path class="cls-9" d="M241.71925,121.638c-41.14523,16.97306-79.34109,19.19682-120.0339,18.64057a435.09185,435.09185,0,0,0-42.61126,53.38274C186.72833,283.691,441.10537,140.11167,408.82313,3.61769c-12.16464.82078-24.22292,2.0297-36.09083,3.83442C371.82994,67.15015,291.076,101.2792,241.71925,121.638Z" transform="translate(0 -2.50148)"/><g class="cls-13"><g class="cls-10"><path class="cls-14" d="M362.37121,336.97365c25.38109,0,25.42312-39.44434,0-39.44434-25.38109,0-25.42312,39.44434,0,39.44434Z" transform="translate(0 -2.50148)"/></g><g class="cls-10"><path class="cls-14" d="M404.242,325.10574c29.70007,0,29.74951-46.1589,0-46.1589-29.7013,0-29.75074,46.1589,0,46.1589Z" transform="translate(0 -2.50148)"/></g><g class="cls-10"><path class="cls-14" d="M433.42417,295.203c9.1806,0,9.19544-14.26721,0-14.26721-9.18061,0-9.19544,14.26721,0,14.26721Z" transform="translate(0 -2.50148)"/></g><g class="cls-10"><path class="cls-14" d="M454.99309,284.15334c17.821,0,17.85069-27.69509,0-27.69509-17.81979,0-17.84946,27.69509,0,27.69509Z" transform="translate(0 -2.50148)"/></g><g class="cls-10"><path class="cls-14" d="M498.26072,256.78211q1.1088-.69531,2.21882-1.39186c5.39934-3.38448,8.90743-10.45628,6.84683-16.82349-1.90238-5.87648-7.717-11.51315-14.3661-10.93712q-1.26825.1094-2.5365.22c-9.91362.8591-17.8062,9.3586-14.97179,19.653,2.58965,9.40434,14.26233,14.638,22.80874,9.27949Z" transform="translate(0 -2.50148)"/></g><g class="cls-10"><path class="cls-14" d="M541.60128,213.36861c.11743-.29543.2361-.59209.35353-.88876,3.832-9.63549-4.25964-21.11156-13.40563-23.611q-.50805-.1372-1.01609-.27689c-16.40444-4.4809-32.4603,14.52185-22.74693,29.58882,3.80846,5.90738,10.22388,9.97542,17.39209,9.97542,9.67011,0,16.09295-6.41295,19.423-14.78761Z" transform="translate(0 -2.50148)"/></g><g class="cls-10"><path class="cls-14" d="M545.07723,187.73536a12.58857,12.58857,0,1,0-12.58857-12.58857,12.7851,12.7851,0,0,0,12.58857,12.58857Z" transform="translate(0 -2.50148)"/></g><g class="cls-10"><path class="cls-14" d="M559.03417,148.003c12.42046,0,12.44147-19.30313,0-19.30313-12.42045,0-12.44147,19.30313,0,19.30313Z" transform="translate(0 -2.50148)"/></g><g class="cls-10"><path class="cls-14" d="M333.44989,337.31605q.20211-.57851.40421-1.15824c3.01117-8.61075-4.82825-17.52807-13.35248-17.52807-8.53288,0-16.35994,8.92968-13.35372,17.52807q.20211.57851.40544,1.15824c4.4463,12.71589,21.44284,12.73566,25.89655,0Z" transform="translate(0 -2.50148)"/></g><g class="cls-10"><path class="cls-14" d="M85.77506,579.41232c9.17936,0,9.19543-14.2672,0-14.2672-9.18061,0-9.19544,14.2672,0,14.2672Z" transform="translate(0 -2.50148)"/></g><g class="cls-10"><path class="cls-14" d="M121.30092,586.5657c15.12018,0,15.14608-23.49849,0-23.49849-15.12013,0-15.14608,23.49849,0,23.49849Z" transform="translate(0 -2.50148)"/></g><g class="cls-10"><path class="cls-14" d="M165.70824,596.19749c12.51193,0,24.49727-11.0014,23.91877-23.91877-.57973-12.9594-10.50942-23.91877-23.91877-23.91877-12.51069,0-24.49727,11.0014-23.91876,23.91877.581,12.9594,10.50942,23.91877,23.91876,23.91877Z" transform="translate(0 -2.50148)"/></g><g class="cls-10"><path class="cls-14" d="M208.84732,593.20115c14.92605,0,29.2254-13.125,28.53441-28.53565-.69222-15.46-12.53665-28.53441-28.53441-28.53441-14.92605,0-29.2241,13.125-28.53441,28.53441.69222,15.46129,12.53788,28.53565,28.53441,28.53565Z" transform="translate(0 -2.50148)"/></g><g class="cls-10"><path class="cls-14" d="M260.72454,565.7916c.20266-.22.40661-.44005.60934-.66008a15.3583,15.3583,0,0,0,0-21.23146c-.20273-.22-.40668-.44006-.60934-.66009-9.23753-9.9952-27.8336-2.40053-27.22173,11.27582a16.63488,16.63488,0,0,0,7.89752,13.769c5.90367,3.4537,14.55522,2.66629,19.32421-2.49324Z" transform="translate(0 -2.50148)"/></g><g class="cls-10"><path class="cls-14" d="M286.31447,556.24387a13.00823,13.00823,0,1,0-13.00761-13.00761,13.21208,13.21208,0,0,0,13.00761,13.00761Z" transform="translate(0 -2.50148)"/></g><g class="cls-10"><path class="cls-14" d="M320.50162,548.88159c22.14007,0,22.17715-34.40842,0-34.40842-22.14124,0-22.17832,34.40842,0,34.40842Z" transform="translate(0 -2.50148)"/></g><g class="cls-10"><path class="cls-14" d="M816.59914,344.51764c36.72119,0,36.78175-57.07006,0-57.07006-36.72118,0-36.78167,57.07006,0,57.07006Z" transform="translate(0 -2.50148)"/></g><g class="cls-10"><path class="cls-14" d="M802.6422,382.65046c10.31659,0,20.19931-9.07182,19.72225-19.72217-.47846-10.68618-8.66515-19.72216-19.72225-19.72216-10.31659,0-20.19931,9.07059-19.72209,19.72216.4783,10.685,8.66515,19.72217,19.72209,19.72217Z" transform="translate(0 -2.50148)"/></g><g class="cls-10"><path class="cls-14" d="M782.34153,412.28254c21.061,0,21.09549-32.731,0-32.731-21.06088,0-21.09549,32.731,0,32.731Z" transform="translate(0 -2.50148)"/></g><g class="cls-10"><path class="cls-14" d="M754.42888,438.9665c14.57995,0,14.60467-22.66041,0-22.66041-14.58117,0-14.60466,22.66041,0,22.66041Z" transform="translate(0 -2.50148)"/></g><g class="cls-10"><path class="cls-14" d="M720.17127,500.17877c32.94116,0,32.99562-51.19358,0-51.19358-32.94115,0-32.99554,51.19358,0,51.19358Z" transform="translate(0 -2.50148)"/></g><g class="cls-10"><path class="cls-14" d="M692.25739,542.92847c27.54058,0,27.58631-42.80285,0-42.80285-27.54058,0-27.58631,42.80285,0,42.80285Z" transform="translate(0 -2.50148)"/></g><g class="cls-10"><path class="cls-14" d="M661.807,561.6c7.02359,0,13.753-6.17686,13.42789-13.42789-.32626-7.27576-5.9-13.42789-13.42789-13.42789-7.02482,0-13.753,6.17562-13.42912,13.42789.32634,7.27452,5.9012,13.42789,13.42912,13.42789Z" transform="translate(0 -2.50148)"/></g><g class="cls-10"><path class="cls-14" d="M623.74217,585.72638c14.041,0,14.06448-21.81985,0-21.81985-14.03976,0-14.06317,21.81985,0,21.81985Z" transform="translate(0 -2.50148)"/></g><g class="cls-10"><path class="cls-14" d="M671.95672,743.40732c25.92127,0,25.96454-40.28366,0-40.28366-25.92127,0-25.9633,40.28366,0,40.28366Z" transform="translate(0 -2.50148)"/></g><g class="cls-10"><path class="cls-14" d="M710.02032,716.3822c18.90139,0,18.93229-29.37373,0-29.37373-18.90015,0-18.93229,29.37373,0,29.37373Z" transform="translate(0 -2.50148)"/></g><g class="cls-10"><path class="cls-14" d="M745.54742,646.90652h-1.26949c-12.73064,0-24.92743,11.19423-24.33773,24.33781.58955,13.18684,10.69353,24.33905,24.33773,24.33905h1.26949c12.73072,0,24.9262-11.19547,24.33781-24.33905-.59086-13.18685-10.69361-24.33781-24.33781-24.33781Z" transform="translate(0 -2.50148)"/></g><g class="cls-10"><path class="cls-14" d="M783.611,662.64346c9.43772,0,18.47988-8.29926,18.04353-18.04353-.43759-9.77641-7.92843-18.04353-18.04353-18.04353-9.439,0-18.48111,8.29926-18.04477,18.04353.43882,9.77641,7.92843,18.04353,18.04477,18.04353Z" transform="translate(0 -2.50148)"/></g><g class="cls-10"><path class="cls-14" d="M806.44943,620.87276c7.01988,0,7.031-10.90993,0-10.90993-7.02112,0-7.03225,10.90993,0,10.90993Z" transform="translate(0 -2.50148)"/></g><g class="cls-10"><path class="cls-14" d="M820.40513,604.76869c12.42046,0,12.44155-19.30313,0-19.30313-12.42045,0-12.44023,19.30313,0,19.30313Z" transform="translate(0 -2.50148)"/></g><g class="cls-10"><path class="cls-14" d="M224.07251,682.18516c9.18061,0,9.19668-14.26721,0-14.26721-9.17936,0-9.19537,14.26721,0,14.26721Z" transform="translate(0 -2.50148)"/></g><g class="cls-10"><path class="cls-14" d="M254.52414,683.41385c15.6603,0,15.68626-24.33781,0-24.33781-15.66031,0-15.68627,24.33781,0,24.33781Z" transform="translate(0 -2.50148)"/></g><g class="cls-10"><path class="cls-14" d="M290.05,681.68577c8.7801,0,17.19184-7.72076,16.78516-16.78517-.40668-9.09408-7.37464-16.78517-16.78516-16.78517-8.78011,0-17.19061,7.72076-16.78517,16.78517.40792,9.09408,7.37588,16.78517,16.78517,16.78517Z" transform="translate(0 -2.50148)"/></g><g class="cls-10"><path class="cls-14" d="M331.92082,666.91917c15.66031,0,15.68627-24.33781,0-24.33781-15.66154,0-15.6875,24.33781,0,24.33781Z" transform="translate(0 -2.50148)"/></g><g class="cls-10"><path class="cls-14" d="M359.83347,657.60878c16.74067,0,16.7691-26.01769,0-26.01769-16.74067,0-16.76786,26.01769,0,26.01769Z" transform="translate(0 -2.50148)"/></g><g class="cls-10"><path class="cls-14" d="M385.20962,638.6258c8.64042,0,8.65525-13.42789,0-13.42789-8.64043,0-8.654,13.42789,0,13.42789Z" transform="translate(0 -2.50148)"/></g><g class="cls-10"><path class="cls-14" d="M145.40764,199.52416c24.84084,0,24.88294-38.605,0-38.605-24.841,0-24.88177,38.605,0,38.605Z" transform="translate(0 -2.50148)"/></g><g class="cls-10"><path class="cls-14" d="M188.54665,190.29287c12.96064,0,12.98165-20.14244,0-20.14244-12.96063,0-12.98165,20.14244,0,20.14244Z" transform="translate(0 -2.50148)"/></g><g class="cls-10"><path class="cls-14" d="M226.61025,191.4919c24.30073,0,24.34152-37.7657,0-37.7657-24.30073,0-24.34028,37.7657,0,37.7657Z" transform="translate(0 -2.50148)"/></g><g class="cls-10"><path class="cls-14" d="M272.28707,166.99587c18.90139,0,18.93236-29.37373,0-29.37373-18.90016,0-18.9323,29.37373,0,29.37373Z" transform="translate(0 -2.50148)"/></g><g class="cls-10"><path class="cls-14" d="M298.93146,146.31448c11.88034,0,11.9-18.46381,0-18.46381-11.88027,0-11.90005,18.46381,0,18.46381Z" transform="translate(0 -2.50148)"/></g><g class="cls-10"><path class="cls-14" d="M323.03936,128.17206c4.85915,0,4.86787-7.55388,0-7.55388-4.86033,0-4.86905,7.55388,0,7.55388Z" transform="translate(0 -2.50148)"/></g><g class="cls-10"><path class="cls-14" d="M340.80229,120.48962c16.20048,0,16.22775-25.17713,0-25.17713-16.20049,0-16.22768,25.17713,0,25.17713Z" transform="translate(0 -2.50148)"/></g><g class="cls-10"><path class="cls-14" d="M40.09824,520.49922c29.7013,0,29.75075-46.1589,0-46.1589-29.7013,0-29.75075,46.1589,0,46.1589Z" transform="translate(0 -2.50148)"/></g><g class="cls-10"><path class="cls-14" d="M87.82082,497.91174q-.29667-.33745-.59333-.67615c-3.14591-3.57855-9.91609-3.57237-13.05582,0q-.29667.3393-.59333.67615c-5.62184,6.39688-2.016,17.19185,7.12124,17.19185,9.10026,0,12.74308-10.79373,7.12124-17.19185Z" transform="translate(0 -2.50148)"/></g><g class="cls-10"><path class="cls-14" d="M113.6877,517.63144c14.58118,0,14.60467-22.65917,0-22.65917-14.57994,0-14.60466,22.65917,0,22.65917Z" transform="translate(0 -2.50148)"/></g><g class="cls-10"><path class="cls-14" d="M699.8706,159.31343c12.2919,0,24.06711-10.80856,23.4985-23.49973-.56985-12.732-10.32525-23.49849-23.4985-23.49849-12.29182,0-24.06833,10.80857-23.49972,23.49849.57108,12.732,10.32524,23.49973,23.49972,23.49973Z" transform="translate(0 -2.50148)"/></g><g class="cls-10"><path class="cls-14" d="M706.21433,197.86653c19.44034,0,19.47248-30.21305,0-30.21305-19.44033,0-19.47247,30.21305,0,30.21305Z" transform="translate(0 -2.50148)"/></g><g class="cls-10"><path class="cls-14" d="M702.40834,224.12032c14.03976,0,14.06325-21.81985,0-21.81985-14.041,0-14.06448,21.81985,0,21.81985Z" transform="translate(0 -2.50148)"/></g><g class="cls-10"><path class="cls-14" d="M694.79513,243.21207c4.32021,0,4.32763-6.71332,0-6.71332-4.32021,0-4.32763,6.71332,0,6.71332Z" transform="translate(0 -2.50148)"/></g><g class="cls-10"><path class="cls-14" d="M518.43283,489.19962c12.2919,0,24.06711-10.80856,23.49973-23.49973-.57108-12.73195-10.32524-23.49849-23.49973-23.49849-12.2919,0-24.0671,10.80857-23.49849,23.49849.56985,12.732,10.32525,23.49973,23.49849,23.49973Z" transform="translate(0 -2.50148)"/></g><g class="cls-10"><path class="cls-14" d="M559.03417,451.55506c30.78167,0,30.83235-47.83754,0-47.83754-30.78043,0-30.83234,47.83754,0,47.83754Z" transform="translate(0 -2.50148)"/></g><g class="cls-10"><path class="cls-14" d="M594.56,411.89193c15.66154,0,15.68758-24.33781,0-24.33781-15.66023,0-15.68626,24.33781,0,24.33781Z" transform="translate(0 -2.50148)"/></g><g class="cls-10"><path class="cls-14" d="M614.8607,384.43788c9.72079,0,9.73686-15.10652,0-15.10652-9.71955,0-9.73562,15.10652,0,15.10652Z" transform="translate(0 -2.50148)"/></g><g class="cls-10"><path class="cls-14" d="M500.6699,517.64133c12.96064,0,12.98165-20.14245,0-20.14245-12.96063,0-12.98165,20.14245,0,20.14245Z" transform="translate(0 -2.50148)"/></g><g class="cls-10"><path class="cls-14" d="M480.3693,540.90866c11.88021,0,11.9-18.46257,0-18.46257-11.88034,0-11.90012,18.46257,0,18.46257Z" transform="translate(0 -2.50148)"/></g></g><path class="cls-15" d="M512.92225,9.02445c-1.89249,3.06679-3.67126,6.19044-5.25959,9.29679a353.46755,353.46755,0,0,0-37.06242,127.08964c-3.1867,33.50605-.53153,70.21611,21.1413,95.9668,18.20793,21.632,46.631,31.64323,74.25325,37.68535,48.02906,10.50448,97.66267,11.85432,145.82531,21.72344,48.16264,9.86788,96.86669,29.98808,126.69655,69.06776,20.01018,26.21547,29.34406,57.918,32.24645,90.984.47722-8.3351.78246-16.7147.78246-25.16847C871.54556,221.87059,716.61127,44.376,512.92225,9.02445Z" transform="translate(0 -2.50148)"/><path class="cls-15" d="M863.53432,519.6018c-27.38722,27.15244-55.039,54.51873-87.48954,75.35834-32.44918,20.83961-70.49918,34.92758-108.99542,32.62594s-77.04927-23.12024-94.172-57.67575c-19.82353-40.00183-9.84069-92.45625-38.1217-127.00064-17.23758-21.05469-45.56185-30.37127-72.7625-31.10429-43.4753-1.17183-85.3486,16.79012-122.38746,39.58526s-70.81068,50.66824-108.36995,72.59563c-37.5605,21.92739-80.51663,37.9746-123.804,33.77182a122.89726,122.89726,0,0,1-53.19238-18.14984c-18.33154-11.52056-24.26364-28.30078-38.43319-42.233-8.08906-7.95315-6.53533-4.65644-5.88761,6.3635.59087,10.06814,3.85915,20.73331,6.23866,30.506a431.5357,431.5357,0,0,0,18.1795,57.00331C63.78833,665.48281,113.485,731.75573,177.00507,780.241a415.6521,415.6521,0,0,0,47.96362,31.65189c118.778,67.001,269.78147,73.3719,393.78206,16.61334S836.618,653.29227,863.53432,519.6018Z" transform="translate(0 -2.50148)"/><path class="cls-16" d="M737.95893,122.97173a431.428,431.428,0,0,1,42.4766,187.26852c0,239.231-193.93495,433.16707-433.16714,433.16707A431.57891,431.57891,0,0,1,47.68673,622.93707c69.8527,145.46567,218.53851,245.89978,390.69185,245.89978,239.23088,0,433.167-193.9361,433.167-433.16706C871.54556,312.71618,820.23331,201.81591,737.95893,122.97173Z" transform="translate(0 -2.50148)"/><path class="cls-15" d="M643.54963,54.11658a433.88489,433.88489,0,0,1,13.69118,108.44165c0,239.231-193.9361,433.16706-433.1683,433.16706a431.19782,431.19782,0,0,1-205.17112-51.6151C67.0393,730.86078,236.59433,868.83685,438.37858,868.83685c239.23088,0,433.167-193.9361,433.167-433.16706C871.54556,270.676,779.28215,127.25734,643.54963,54.11658Z" transform="translate(0 -2.50148)"/><path class="cls-17" d="M754.94187,140.1438C675.88138,55.49114,563.347,2.50148,438.37858,2.50148c-11.72583,0-23.30573.60075-34.79539,1.51548A430.61709,430.61709,0,0,0,188.20054,82.16273,434.87131,434.87131,0,0,0,44.5878,255.258,431.37531,431.37531,0,0,0,5.21145,435.66979c0,127.1193,54.75853,241.44731,141.97365,320.68828a432.87978,432.87978,0,0,1-76.86639-476.7153A219.66032,219.66032,0,0,0,208.84732,328.599c121.88931,0,220.69916-98.80986,220.69916-220.69917A219.84866,219.84866,0,0,0,415.4684,30.41537a437.35908,437.35908,0,0,1,48.28625-2.74417A431.58215,431.58215,0,0,1,754.94187,140.1438Z" transform="translate(0 -2.50148)"/><path class="cls-18" d="M445.22409,170.15043a59.34822,59.34822,0,1,0,59.34829-59.34822A59.34817,59.34817,0,0,0,445.22409,170.15043Z" transform="translate(0 -2.50148)"/><circle class="cls-18" cx="433.42417" cy="253.95677" r="29.8348"/><path class="cls-17" d="M81.01973,190.90846A151.20624,151.20624,0,0,0,327.503,16.88365,433.73139,433.73139,0,0,0,81.01973,190.90846Z" transform="translate(0 -2.50148)"/><g class="cls-19"><circle class="cls-20" cx="438.37854" cy="435.66948" r="433.16735" transform="translate(-179.66674 435.08359) rotate(-45)"/></g><g class="cls-21"><path class="cls-22" d="M833.8083,253.94523a434.792,434.792,0,0,1-24.96576,155.87C728.3667,636.77534,479.14054,755.52369,252.1817,675.04785,135.15279,633.55156,47.00811,547.135,0,442.09139,4.12861,617.69224,114.7965,780.68722,290.19833,842.88221c226.95884,80.47584,476.185-38.27251,556.66084-265.23135A434.40359,434.40359,0,0,0,833.8083,253.94523Z" transform="translate(0 -2.50148)"/></g><g class="cls-23"><path class="cls-24" d="M613.5121,34.27574a434.80384,434.80384,0,0,1,85.69348,132.573C791.1785,389.39716,685.32651,644.36754,462.77689,736.3417c-114.75447,47.42468-238.08014,42.13659-343.28317-4.513C240.01218,859.60928,431.30053,906.76325,603.29317,835.68309c222.54838-91.97292,328.40161-346.9433,236.42745-569.4917A434.39927,434.39927,0,0,0,613.5121,34.27574Z" transform="translate(0 -2.50148)"/></g></g></g></svg>