<svg xmlns="http://www.w3.org/2000/svg" xmlns:xlink="http://www.w3.org/1999/xlink" viewBox="0 0 864.36862 862.07316"><defs><style>.cls-1{mask:url(#mask);}.cls-16,.cls-17,.cls-2,.cls-22,.cls-4,.cls-6,.cls-8{mix-blend-mode:multiply;}.cls-2{fill:url(#linear-gradient);}.cls-3{mask:url(#mask-2);}.cls-4{fill:url(#radial-gradient);}.cls-5{mask:url(#mask-3);}.cls-6{fill:url(#linear-gradient-2);}.cls-7{mask:url(#mask-4);}.cls-8{fill:url(#linear-gradient-3);}.cls-9{isolation:isolate;}.cls-10{fill:#00b0cb;}.cls-11{fill:#0b93c1;}.cls-12,.cls-16,.cls-17,.cls-18{fill:#00c3df;}.cls-13{fill:#1eb400;}.cls-14{fill:#00be1b;}.cls-15{fill:#00ce1d;}.cls-16{opacity:0.13;}.cls-17{opacity:0.33;}.cls-18{opacity:0.56;}.cls-18,.cls-20,.cls-26,.cls-28{mix-blend-mode:screen;}.cls-19{fill:#98f1ff;opacity:0.41;}.cls-19,.cls-24{mix-blend-mode:overlay;}.cls-20{fill:#00df16;opacity:0.42;}.cls-21{mask:url(#mask-5);}.cls-22{opacity:0.63;fill:url(#linear-gradient-4);}.cls-23{mask:url(#mask-6);}.cls-24{opacity:0.37;fill:url(#radial-gradient-2);}.cls-25{mask:url(#mask-7);}.cls-26{opacity:0.49;fill:url(#linear-gradient-5);}.cls-27{mask:url(#mask-8);}.cls-28{opacity:0.25;fill:url(#linear-gradient-6);}.cls-29{filter:url(#luminosity-noclip-8);}.cls-30{filter:url(#luminosity-noclip-7);}.cls-31{filter:url(#luminosity-noclip-6);}.cls-32{filter:url(#luminosity-noclip-5);}.cls-33{filter:url(#luminosity-noclip-4);}.cls-34{filter:url(#luminosity-noclip-3);}.cls-35{filter:url(#luminosity-noclip-2);}.cls-36{filter:url(#luminosity-noclip);}</style><filter id="luminosity-noclip" x="146.02085" y="-8732" width="864.33795" height="32766" filterUnits="userSpaceOnUse" color-interpolation-filters="sRGB"><feFlood flood-color="#fff" result="bg"/><feBlend in="SourceGraphic" in2="bg"/></filter><mask id="mask" x="146.02085" y="-8732" width="864.33795" height="32766" maskUnits="userSpaceOnUse"><g class="cls-36"/></mask><linearGradient id="linear-gradient" x1="268.60737" y1="234.99876" x2="885.0955" y2="851.48689" gradientUnits="userSpaceOnUse"><stop offset="0"/><stop offset="0.99715" stop-color="#fff"/></linearGradient><filter id="luminosity-noclip-2" x="319.76214" y="-8732" width="345.05121" height="32766" filterUnits="userSpaceOnUse" color-interpolation-filters="sRGB"><feFlood flood-color="#fff" result="bg"/><feBlend in="SourceGraphic" in2="bg"/></filter><mask id="mask-2" x="319.76214" y="-8732" width="345.05121" height="32766" maskUnits="userSpaceOnUse"><g class="cls-35"/></mask><radialGradient id="radial-gradient" cx="492.28775" cy="312.87899" r="172.52561" gradientTransform="translate(365.4269 -256.45999) rotate(45)" gradientUnits="userSpaceOnUse"><stop offset="0" stop-color="#fff"/><stop offset="0.09877" stop-color="#fafafa"/><stop offset="0.22265" stop-color="#eaeaea"/><stop offset="0.35998" stop-color="#d0d0d0"/><stop offset="0.50703" stop-color="#adadad"/><stop offset="0.66187" stop-color="#7f7f7f"/><stop offset="0.82329" stop-color="#474747"/><stop offset="0.98718" stop-color="#050505"/><stop offset="1"/></radialGradient><filter id="luminosity-noclip-3" x="154.86228" y="-8732" width="844.96648" height="32766" filterUnits="userSpaceOnUse" color-interpolation-filters="sRGB"><feFlood flood-color="#fff" result="bg"/><feBlend in="SourceGraphic" in2="bg"/></filter><mask id="mask-3" x="154.86228" y="-8732" width="844.96648" height="32766" maskUnits="userSpaceOnUse"><g class="cls-34"/></mask><linearGradient id="linear-gradient-2" x1="519.66102" y1="341.79443" x2="843.93627" y2="841.0258" gradientTransform="translate(161.9448 -107.0022) rotate(19.52394)" gradientUnits="userSpaceOnUse"><stop offset="0.24216"/><stop offset="0.37518" stop-color="#030303"/><stop offset="0.47518" stop-color="#0d0d0d"/><stop offset="0.56444" stop-color="#1d1d1d"/><stop offset="0.64742" stop-color="#343434"/><stop offset="0.72612" stop-color="#515151"/><stop offset="0.80153" stop-color="#767676"/><stop offset="0.8744" stop-color="#a1a1a1"/><stop offset="0.9434" stop-color="#d1d1d1"/><stop offset="1" stop-color="#fff"/></linearGradient><filter id="luminosity-noclip-4" x="270.65032" y="-8732" width="730.04092" height="32766" filterUnits="userSpaceOnUse" color-interpolation-filters="sRGB"><feFlood flood-color="#fff" result="bg"/><feBlend in="SourceGraphic" in2="bg"/></filter><mask id="mask-4" x="270.65032" y="-8732" width="730.04092" height="32766" maskUnits="userSpaceOnUse"><g class="cls-33"/></mask><linearGradient id="linear-gradient-3" x1="417.07846" y1="472.66435" x2="741.34434" y2="971.88128" gradientTransform="matrix(0.9242, -0.3819, 0.3819, 0.9242, -128.3511, 181.1705)" xlink:href="#linear-gradient-2"/><filter id="luminosity-noclip-5" x="146.02085" y="115.92684" width="864.33795" height="856.50433" filterUnits="userSpaceOnUse" color-interpolation-filters="sRGB"><feFlood flood-color="#fff" result="bg"/><feBlend in="SourceGraphic" in2="bg"/></filter><mask id="mask-5" x="0.02085" y="0" width="864.33795" height="856.50433" maskUnits="userSpaceOnUse"><g class="cls-32"><g transform="translate(-146 -115.92684)"><g class="cls-1"><path class="cls-2" d="M1010.29936,531.99627a107.59684,107.59684,0,0,0-6.19019-28.71224c-.30663-2.47224-.5965-4.99838-.88037-7.52692-.32808-2.88189-.71029-5.7458-1.09466-8.61092A425.8473,425.8473,0,0,0,986.655,416.47533c-1.81944-5.83444-3.80059-11.597-5.86079-17.32125-.69591-1.93324-1.42657-3.84851-2.15-5.76856q-2.32311-6.17163-4.82949-12.24742c-.77018-1.87095-1.526-3.74908-2.32252-5.60566-2.36085-5.50265-4.80554-10.95978-7.38678-16.34026-.6-1.2493-1.24929-2.46865-1.86017-3.71076q-3.15318-6.41058-6.5052-12.70137c-1.0804-2.02307-2.18477-4.02817-3.29632-6.03208Q949.454,331.3651,946.311,326.084c-1.09238-1.8434-2.15961-3.70117-3.27955-5.52541q-4.48452-7.30353-9.24215-14.41661c-1.26128-1.88173-2.58124-3.71914-3.87126-5.58051-2.15722-3.11186-4.3408-6.20216-6.57827-9.25173q-2.384-3.2538-4.8247-6.45969c-2.156-2.82679-4.36355-5.61165-6.58785-8.38214-1.732-2.15962-3.44245-4.33241-5.21518-6.45729q-4.91932-5.89314-10.04947-11.6018c-2.0614-2.29857-4.18029-4.54323-6.2908-6.79627q-2.88906-3.08492-5.832-6.11832c-2.29976-2.36084-4.61149-4.70851-6.96384-7.01666-1.786-1.74877-3.61265-3.45562-5.4297-5.17445q-7.061-6.69087-14.4226-13.05353c-1.41459-1.22414-2.8099-2.46984-4.24258-3.67482-2.943-2.47943-5.93625-4.89537-8.94749-7.29694q-2.16143-1.723-4.34679-3.4161c-3.20768-2.49141-6.426-4.96245-9.7045-7.36282-7.95932-5.80569-15.70543-11.04843-23.61445-16.06717-.64081-.40725-1.27445-.82647-1.91886-1.23013q-5.753-3.60954-11.63174-7.02624c-.73653-.43-1.47808-.85043-2.21831-1.27565a426.98258,426.98258,0,0,0-213.32176-56.97292,431.75936,431.75936,0,0,0-53.2478,3.4125,70.36973,70.36973,0,0,0-20.65949-1.85058c-24.31516.24075-51.39961,9.302-74.1,17.36078-7.03354,2.49619-13.94479,5.22117-20.795,8.05514-2.919,1.20019-5.79971,2.46146-8.68519,3.71914q-4.92831,2.165-9.78475,4.4462C284.10511,200.48608,202.64934,288.828,166.30956,397.75745q-2.093,6.15006-3.97786,12.3636c-.37251,1.25169-.83606,2.465-1.19659,3.72154-15.15685,52.11468-19.48567,107.41908-10.37527,162.94986.19524,2.27221.4348,4.5588.64681,6.855.23956,2.61.4876,5.214.77257,7.8108.16171,1.45531.29586,2.91781.47074,4.36834.14493,1.20378.34256,2.39079.49708,3.591.1641,1.25768.34736,2.50937.52224,3.76346.36772,2.66748.69112,5.34574,1.10675,7.99645.40486,2.55848.90553,5.08462,1.35471,7.62753.33777,1.91527.66,3.83413,1.02411,5.741.2133,1.11634.38688,2.24586.60858,3.35981.73773,3.71674,1.58817,7.39037,2.42063,11.07237.51266,2.259,1.01213,4.52047,1.55952,6.76633.17009.69711.31383,1.40381.48631,2.09852.80012,3.21488,1.67092,6.39741,2.54291,9.58233.50427,1.83981,1.03369,3.67,1.56192,5.50026a424.786,424.786,0,0,0,20.32411,55.64577c.11619.26232.236.52224.35335.78455q5.03611,11.21313,10.67831,22.07768a428.24311,428.24311,0,0,0,97.95065,124.77987c.43469.3821.87548.757,1.31267,1.1367q9.88538,8.59894,20.275,16.60977a428.71323,428.71323,0,0,0,45.05131,30.249c.20122.11738.406.23117.60847.34856A425.37267,425.37267,0,0,0,535.72634,970.353c.98328.097,1.98343.13535,2.96922.22519,5.89073.533,11.79464,1.02171,17.75126,1.314q10.59864.53,21.33026.539A426.893,426.893,0,0,0,743.18372,939.2859c7.722,1.78112,17.61951-1.54395,24.89717-5.04988A430.96421,430.96421,0,0,0,826.351,900.85837c5.62243-3.894,11.155-8.024,16.63732-12.257.96182-.68514,1.9597-1.53078,2.94536-2.31773A446.31842,446.31842,0,0,0,913.39927,820.398q4.454-5.329,8.56181-10.62441c52.75431-68.08962,81.80205-153.30286,86.81588-239.30664.51745-8.87683,1.28284-17.7309,1.45292-26.69037C1010.351,539.78551,1010.412,535.82681,1010.29936,531.99627Z"/></g></g></g></mask><linearGradient id="linear-gradient-4" x1="268.60737" y1="234.99876" x2="885.0955" y2="851.48689" gradientUnits="userSpaceOnUse"><stop offset="0" stop-color="#fff"/><stop offset="0.99715" stop-color="#1876e7"/></linearGradient><filter id="luminosity-noclip-6" x="319.76214" y="140.35339" width="345.05121" height="345.05122" filterUnits="userSpaceOnUse" color-interpolation-filters="sRGB"><feFlood flood-color="#fff" result="bg"/><feBlend in="SourceGraphic" in2="bg"/></filter><mask id="mask-6" x="173.76214" y="24.42655" width="345.05121" height="345.05122" maskUnits="userSpaceOnUse"><g class="cls-31"><g transform="translate(-146 -115.92684)"><g class="cls-3"><circle class="cls-4" cx="492.28805" cy="312.87929" r="172.52546" transform="translate(-77.05124 439.74044) rotate(-45)"/></g></g></g></mask><radialGradient id="radial-gradient-2" cx="492.28775" cy="312.87899" r="172.52561" gradientTransform="translate(365.4269 -256.45999) rotate(45)" gradientUnits="userSpaceOnUse"><stop offset="0" stop-color="#ececec"/><stop offset="0.46926" stop-color="#f1f1f1"/><stop offset="1" stop-color="#fff"/></radialGradient><filter id="luminosity-noclip-7" x="154.86228" y="382.17299" width="844.96648" height="595.08629" filterUnits="userSpaceOnUse" color-interpolation-filters="sRGB"><feFlood flood-color="#fff" result="bg"/><feBlend in="SourceGraphic" in2="bg"/></filter><mask id="mask-7" x="8.86228" y="266.24616" width="844.96648" height="595.08629" maskUnits="userSpaceOnUse"><g class="cls-30"><g transform="translate(-146 -115.92684)"><g class="cls-5"><path class="cls-6" d="M962.82012,382.173a421.31163,421.31163,0,0,1-24.19178,151.03784c-77.981,219.924-319.47957,334.991-539.40355,257.01C285.82394,750.011,200.41187,666.27342,154.86228,564.48635c3.99942,170.157,111.23644,328.09888,281.20057,388.36573,219.92278,77.981,461.42257-37.086,539.40355-257.00879A420.936,420.936,0,0,0,962.82012,382.173Z"/></g></g></g></mask><linearGradient id="linear-gradient-5" x1="519.66102" y1="341.79443" x2="843.93627" y2="841.0258" gradientTransform="translate(161.9448 -107.0022) rotate(19.52394)" gradientUnits="userSpaceOnUse"><stop offset="0.24216" stop-color="#fff"/><stop offset="0.91991" stop-color="#fff"/><stop offset="1" stop-color="#fff"/></linearGradient><filter id="luminosity-noclip-8" x="270.65032" y="169.31358" width="730.04092" height="808.68642" filterUnits="userSpaceOnUse" color-interpolation-filters="sRGB"><feFlood flood-color="#fff" result="bg"/><feBlend in="SourceGraphic" in2="bg"/></filter><mask id="mask-8" x="124.65032" y="53.38674" width="730.04092" height="808.68642" maskUnits="userSpaceOnUse"><g class="cls-29"><g transform="translate(-146 -115.92684)"><g class="cls-7"><path class="cls-8" d="M749.35463,169.31358a421.34326,421.34326,0,0,1,83.03565,128.46307c89.12163,215.64907-13.44879,462.715-229.09906,551.83783-111.19692,45.95445-230.69931,40.8303-332.6409-4.37313,116.78222,123.81924,302.14035,169.51137,468.801,100.6348C955.10036,856.75452,1057.672,609.68858,968.54916,394.03951A420.93428,420.93428,0,0,0,749.35463,169.31358Z"/></g></g></g></mask><linearGradient id="linear-gradient-6" x1="417.07846" y1="472.66435" x2="741.34434" y2="971.88128" gradientTransform="matrix(0.9242, -0.3819, 0.3819, 0.9242, -128.3511, 181.1705)" xlink:href="#linear-gradient-5"/></defs><g class="cls-9"><g id="katman_1" data-name="katman 1"><circle class="cls-10" cx="431.77678" cy="428.25217" r="428.25231"/><path class="cls-11" d="M577.77708,972.43117c236.517,0,428.25215-191.73518,428.25215-428.25217a431.14828,431.14828,0,0,0-5.41042-67.88,152.87965,152.87965,0,0,1-40.08647-13.29548c-27.46654-13.93031-48.95371-37.04049-70.10071-59.4296-21.147-22.3903-43.29415-45.05131-71.39672-57.65207s-63.84824-12.99243-87.24589,7.03343c-25.81718,22.09685-28.9518,61.99287-18.47233,94.31885,4.451,13.73147,10.44354,30.36519.88517,41.18125-9.011,10.19679-25.144,7.40594-38.61318,9.34037-22.73037,3.26278-40.223,21.692-52.78185,40.91773-20.59112,31.51987-33.26026,70.71279-23.46473,107.06694,5.94344,22.05732,19.83662,44.8381,11.33829,66.0426-9.03853,22.552-37.22135,28.55533-58.84376,39.6337-30.23,15.48863-52.49918,51.55172-41.52393,83.69564,4.32762,12.675,13.2296,23.51623,16.74512,36.44159,8.82892,32.46612-17.72251,61.43349-31.9845,92.78088A430.11472,430.11472,0,0,0,577.77708,972.43117Z" transform="translate(-146 -115.92684)"/><path class="cls-12" d="M632.23943,324.31969c-1.56791-14.99035,1.974-30.19151.1629-45.15312-2.56447-21.18173-15.491-39.56782-29.1183-55.98474-13.62726-16.41573-28.64277-32.31041-36.84764-52.00449a68.01281,68.01281,0,0,1-4.02458-39.17016c.95464-5.03671,3.12863-10.42318,3.98625-15.79287-231.2418,6.05-416.87434,195.26387-416.87434,427.96469a426.24,426.24,0,0,0,48.16677,197.2558c17.74167-3.924,34.67245-13.72429,50.46412-23.38806q27.62421-16.905,55.2505-33.81005c27.84864-17.04217,58.33841-37.77113,64.20758-69.8899,7.30413-39.97268-27.30244-81.85224-11.55988-119.31315,5.94594-14.14471,18.24595-24.62418,31.16053-32.9093,20.402-13.09066,45.03933-22.237,68.74721-17.18471,33.93221,7.23226,55.44334,40.241,85.26234,57.97548a103.55172,103.55172,0,0,0,64.56932,13.71231c12.42947-1.47328,24.74875-5.32778,34.99705-12.51332,17.95608-12.59118,27.91212-34.55986,29.34707-56.4447,1.43615-21.88364-4.83668-43.67864-14.1471-63.53442C646.82852,364.599,634.48529,345.77932,632.23943,324.31969Z" transform="translate(-146 -115.92684)"/><path class="cls-13" d="M1004.10917,503.28523c.29945,3.10108-47.81581.62524-52.78532-.17249-61.85045-9.93088-92.0228-68.0453-149.03645-85.351-13.08706-3.97307-28.25948-4.61988-39.51979,3.143-41.43051,28.56252,46.237,87.45311-13.57948,105.53257-15.28261,4.61868-30.88024.339-45.861,3.61732-13.52785,2.96214-28.11335,12.27856-38.55449,21.07753-21.92077,18.47353-36.59371,46.25749-36.48352,75.22247.23238,61.78445,51.795,125.11045,111.65328,138.09091,13.65841,2.96214,27.94326,3.809,40.7716,9.35715,29.12309,12.59477,32.1511,49.3358,18.60888,74.81282-14.42619,27.13715-51.887,24.37744-63.59551,53.36637-3.17774,7.86589-6.30757,25.52253-.08972,32.89972,7.407,8.787,22.43092,4.1779,32.44325-.6456a430.93148,430.93148,0,0,0,58.27133-33.37884c35.73621-24.74876,68.98688-56.72139,95.60886-91.08362,52.75431-68.08962,81.80205-153.30286,86.81708-239.30664C1010.05261,548.59526,1013.04469,526.90566,1004.10917,503.28523Z" transform="translate(-146 -115.92684)"/><path class="cls-11" d="M634.235,357.26134c-7.77726-28.17444-4.56478-59.16368-16.62414-85.78818-12.27736-27.106-38.30176-45.17828-55.63978-69.36287a125.89164,125.89164,0,0,1-22.60232-84.38078c-218.50939,19.43656-389.845,202.88662-389.845,426.44949A427.80087,427.80087,0,0,0,170.0311,675.2329c13.88359-6.189,26.55382-14.92208,34.46523-24.84338,17.35-21.76027,18.16929-51.81644,20.83917-79.51775,3.88563-40.31045,13.67757-80.91317,35.67979-114.91246s57.56943-60.72321,97.82358-65.161c20.03186-2.20993,40.27942,1.05166,59.87757,5.7482,20.98769,5.02952,41.8029,11.8198,60.17222,23.1497,20.15283,12.43067,36.63683,29.84775,54.29227,45.62745,17.65543,15.7773,37.485,30.44066,60.63337,35.42107,23.1497,4.98042,50.24613-1.99552,63.04931-21.91358,11.603-18.05191,9.07458-41.88555,1.816-62.07911C651.42205,396.55727,639.94482,377.946,634.235,357.26134Z" transform="translate(-146 -115.92684)"/><path class="cls-13" d="M647.64422,453.18283c4.99478-25.62674-6.1842-52.44527-18.91073-75.74949-9.13315-16.72236-19.44254-33.2375-25.495-51.42-5.94943-17.87823-.28018-37.16505-5.43917-55.17983C591.584,249.126,573.2111,233.68885,561.70751,214.959c-13.9793-22.764-25.95612-46.54376-33.49132-72.26392-1.69977-5.8033-2.42444-14.69091-3.69649-23.42879-25.16439-6.48125-64.98854,5.01754-94.74994,15.58326-186.31767,66.14081-310.02422,252.8848-279.00992,441.94291a212.80085,212.80085,0,0,0,22.45259-44.62609c6.55551-18.10461,10.6256-37.02252,16.94275-55.211,10.56691-30.42269,17.41588-61.8,43.02585-83.77829,14.9125-12.7948,29.189-13.23679,47.56188-18.67835a206.10122,206.10122,0,0,0,57.53229-27.28089c10.35969-7.07056,20.24147-15.18439,31.95107-19.67731,28.6296-10.98613,41.50585,9.89975,56.13806,29.85015,25.888,35.2977,60.36627,49.28431,99.7137,64.56572,16.97879,6.59384,33.72739,15.28262,45.84185,29.21652,11.36823,13.07388,18.49389,34.694,38.1137,37.086,16.60378,2.02427,31.18449-12.82475,36.0559-28.826A62.65385,62.65385,0,0,0,647.64422,453.18283Z" transform="translate(-146 -115.92684)"/><path class="cls-14" d="M637.79838,754.98781a19.21593,19.21593,0,0,0-3.18014-.03234c-23.6911,1.82782-69.22262,29.268-76.25017,52.12905-4.28569,13.94349-3.15977,28.89791-1.99073,43.44867,1.13551,14.13393,2.88309,34.14542,18.7071,39.272,8.58947,2.78367,17.91536,1.25768,26.7862-.43121,21.92077-4.17549,44.323,1.39783,66.38516-.05749,10.36928-.68394,21.33984-2.13566,30.34615-7.77007,12.542-7.84673,20.89774-20.32531,33.85664-27.67615,11.55509-6.55432,25.31771-7.594,22.68137-24.88291-2.10931-13.8297-12.905-14.03332-24.14387-18.20642-24.57508-9.12478-42.42216-28.7949-64.2531-42.44612C659.04239,763.51967,647.62625,755.867,637.79838,754.98781Z" transform="translate(-146 -115.92684)"/><path class="cls-15" d="M571.957,844.60532c3.26757,13.45359,15.89828,24.84578,29.72438,24.14268,8.65883-.43959,16.75709-5.23794,25.42442-5.03432,5.45942.12816,10.66382,2.24107,16.05627,3.10467,5.39126.86361,11.6593.11859,15.04186-4.16831,3.73363-4.73367,2.42313-11.62216.32221-17.27334-3.49516-9.40386-3.67243-13.8237-.98339-23.06227,2.35965-8.10784,6.46927-12.29652,1.10088-20.711-6.07411-9.52-26.10716-16.90442-37.12085-17.97405C592.95069,780.8565,565.49972,818.01556,571.957,844.60532Z" transform="translate(-146 -115.92684)"/><path class="cls-15" d="M690.7012,850.58949c4.16364-.5977,8.06234-2.41475,12.19471-3.19331,5.89673-1.11155,13.30986-.7594,16.23845-5.99615,2.84236-5.08462-1.28043-11.46166-6.26324-14.47889-8.981-5.43917-25.059-21.9052-32.4254-11.47843C673.82912,824.80823,674.858,852.8581,690.7012,850.58949Z" transform="translate(-146 -115.92684)"/><path class="cls-15" d="M687.09825,593.90889c-28.81394,45.25134,52.33508,30.42628,71.37636,28.78052,26.1334-2.25664,58.7805-3.18134,57.78981-37.47768-1.19419-41.34535-48.36919-40.06731-77.18324-31.16892A96.69656,96.69656,0,0,0,687.09825,593.90889Z" transform="translate(-146 -115.92684)"/><path class="cls-15" d="M820.09735,518.43848c2.97771,1.23133,6.45011,2.19315,9.33079.751a10.34462,10.34462,0,0,0,4.13478-4.56358,31.53624,31.53624,0,0,0,2.89027-7.576c2.24705-9.16789.88157-19.31557-.58213-28.8464-.34964-2.28179-.74862-4.67617-2.18956-6.48C818.95945,453.28943,774.89273,499.73857,820.09735,518.43848Z" transform="translate(-146 -115.92684)"/><path class="cls-15" d="M842.96917,888.68523c27.74084-21.71236,57.41131-51.05584,78.99191-78.91167,52.75431-68.08962,81.80313-153.30286,86.81708-239.30664.72239-12.40193,1.88652-26.05315,1.5212-38.46945-18.08185-.91391-40.7752.96542-58.87741-.04312-21.94114-1.22175-37.934-9.08764-56.52136-19.86057-6.60342-3.82694-13.90156-7.043-21.53149-6.87532-7.62873.16769-15.58565,4.50729-17.95368,11.76231-1.93444,5.92786.08516,12.32047,1.66972,18.35255,8.417,32.02533,7.62645,81.64023-22.81073,102.69979-24.32115,16.83016-48.4758-.23357-74.67508.17727-13.75543.2156-28.01153,4.76-37.189,15.00832-19.52519,21.80219-3.76585,41.82326,18.79574,49.67239,21.359,7.4299,43.69181,12.56243,63.665,23.16408a129.05946,129.05946,0,0,1,41.91669,35.55642c7.13644,9.35115,13.10263,20.051,14.38427,31.74385,1.17264,10.69867-1.63738,21.389-4.42225,31.78458C851.72382,843.89623,847.9939,869.929,842.96917,888.68523Z" transform="translate(-146 -115.92684)"/><path class="cls-15" d="M538.086,237.03188c-8.39064-15.32813-17.49972-30.24542-24.22423-46.31258-8.22523-19.65575-13.73148-51.25587-9.98-73.336-24.32713.34616-51.41277,9.40745-74.112,17.46619C298.74451,181.36215,198.38281,284.20328,161.13511,413.84259c4.78158-1.17384,18.28438-2.85793,22.2274-5.75778,8.44682-6.21295,12.26418-16.84933,19.10477-24.79667,15.285-17.75725,42.01621-19.02332,62.7319-29.96993,15.76412-8.33063,27.8654-22.25136,42.98392-31.70313,30.92456-19.33594,86.32119-27.11679,120.051-12.02462,14.03692,6.28122,25.6483,16.74392,35.01982,28.7913,8.77392,11.2772,13.589,27.7624,27.47971,33.97175,24.375,10.8975,51.57089-6.4549,65.35387-26.42207,14.71486-21.31829,4.78158-56.52256-3.779-79.06139A239.5229,239.5229,0,0,0,538.086,237.03188Z" transform="translate(-146 -115.92684)"/><path class="cls-15" d="M573.08772,356.67322c-9.69491,15.94021-45.95324,31.09346-27.39108,45.03694,18.56337,13.94349,59.62483,57.33945,68.66576,46.13052C623.40333,436.63056,600.47761,311.63509,573.08772,356.67322Z" transform="translate(-146 -115.92684)"/><path class="cls-12" d="M632.7474,119.55974c-.19295,2.58243-.35226,5.14331-.63482,7.5341-2.46158,20.79725-4.81883,41.51663-3.73483,62.50193.51026,9.87578,1.78351,19.93483,6.14467,28.81046,6.18779,12.59,18.06508,21.59378,30.82035,27.4366,34.13824,15.636,74.99249,11.30834,108.744,27.7636,16.9055,8.242,31.04423,21.26318,47.5523,30.273,27.0987,14.79152,59.7397,18.34657,85.00949,36.08465,27.312,19.17064,42.33472,52.40335,70.01447,71.03978a63.50913,63.50913,0,0,0,9.99317,5.4751C937.59824,259.23653,800.30386,141.04571,632.7474,119.55974Z" transform="translate(-146 -115.92684)"/><path class="cls-12" d="M577.56986,532.77124c-6.10514-4.32881-14.67294-2.58363-21.28834.91751s-12.45463,8.569-19.55992,10.92385c-17.2434,5.71586-35.11324-5.965-53.1915-7.75569-26.12621-2.58963-50.27967,16.29714-63.49838,38.98091-13.21893,22.68376-18.288,49.022-26.18371,74.0606-22.97254,72.85564-72.252,136.947-136.24871,178.56068A428.64048,428.64048,0,0,0,437.50139,948.80475c4.56239-32.61944,2.58-67.53385,9.57275-99.97a175.44236,175.44236,0,0,1,30.29213-67.03916c10.04707-13.59612,22.04773-25.70938,31.48273-39.73791,9.4362-14.02972,16.31631-30.75807,14.27048-47.54032-1.423-11.66648-7.043-22.51727-8.38453-34.19333-1.7919-15.59644,4.23059-31.103,12.20549-44.6261a155.83248,155.83248,0,0,1,35.44143-41.33337c6.68008-5.46911,14.02374-10.61362,18.2257-18.15491C584.8105,548.66832,584.61287,537.76483,577.56986,532.77124Z" transform="translate(-146 -115.92684)"/><path class="cls-16" d="M1008.777,570.46692c.51745-8.87683,1.28284-17.7309,1.45292-26.69037.1211-3.991.18207-7.94974.06948-11.78028a107.59684,107.59684,0,0,0-6.19019-28.71224c-.30663-2.47224-.5965-4.99838-.88037-7.52692-.32808-2.88189-.71029-5.7458-1.09466-8.61092A425.8473,425.8473,0,0,0,986.655,416.47533c-1.81944-5.83444-3.80059-11.597-5.86079-17.32125-.69591-1.93324-1.42657-3.84851-2.15-5.76856q-2.32311-6.17163-4.82949-12.24742c-.77018-1.87095-1.526-3.74908-2.32252-5.60566-2.36085-5.50265-4.80554-10.95978-7.38678-16.34026-.6-1.2493-1.24929-2.46865-1.86017-3.71076q-3.15318-6.41058-6.5052-12.70137c-.92469-1.732-1.87334-3.44844-2.822-5.16368-10.42917,37.70167-21.54706,75.238-37.389,111.06876-27.80073,62.88162-73.17425,121.898-137.28361,146.73657-58.53005,22.67777-124.80382,14.26928-185.08025,31.77739-78.1307,22.69454-139.19407,86.67454-217.38347,109.16666-55.6254,16.00129-114.90038,9.59191-172.574,14.92088a422.95877,422.95877,0,0,0,92.43353,114.92684c.43469.3821.87548.757,1.31267,1.1367q9.88538,8.59894,20.275,16.60977a428.71323,428.71323,0,0,0,45.05131,30.249c.20122.11738.406.23117.60847.34856A425.37267,425.37267,0,0,0,535.72634,970.353c.98328.097,1.98343.13535,2.96922.22519,5.89073.533,11.79464,1.02171,17.75126,1.314q10.59864.53,21.33026.539A426.893,426.893,0,0,0,743.18372,939.2859c7.722,1.78112,17.61951-1.54395,24.89717-5.04988A430.96421,430.96421,0,0,0,826.351,900.85837c5.62243-3.894,11.155-8.024,16.63732-12.257.96182-.68514,1.9597-1.53078,2.94536-2.31773A446.31842,446.31842,0,0,0,913.39927,820.398q4.454-5.329,8.56181-10.62441C974.71539,741.68394,1003.76313,656.4707,1008.777,570.46692Z" transform="translate(-146 -115.92684)"/><path class="cls-17" d="M1010.22988,543.77655c.1211-3.991.18207-7.94974.06948-11.78028a107.59684,107.59684,0,0,0-6.19019-28.71224c-.30663-2.47224-.5965-4.99838-.88037-7.52692-.32808-2.88189-.71029-5.7458-1.09466-8.61092A425.8473,425.8473,0,0,0,986.655,416.47533c-1.81944-5.83444-3.80059-11.597-5.86079-17.32125-.69591-1.93324-1.42657-3.84851-2.15-5.76856q-2.32311-6.17163-4.82949-12.24742c-.77018-1.87095-1.526-3.74908-2.32252-5.60566-2.36085-5.50265-4.80554-10.95978-7.38678-16.34026-.6-1.2493-1.24929-2.46865-1.86017-3.71076q-3.15318-6.41058-6.5052-12.70137c-.94865-1.77513-1.92006-3.53468-2.89386-5.29424,9.58592,38.049,19.07841,76.65143,18.18606,115.86232C969.26544,531.0596,925.473,604.14521,864.533,652.40061c-17.27095,13.67518-36.25114,25.77766-57.44006,31.80255-28.33734,8.05753-58.457,4.75283-87.90707,5.53259a314.13366,314.13366,0,0,0-125.75487,30.043c-40.29727,19.09518-76.32922,46.70307-117.67935,63.39428-86.02055,34.72037-185.1114,17.3536-268.52316-24.70563a423.29583,423.29583,0,0,0,88.41265,107.74608c.43469.3821.87548.757,1.31267,1.1367q9.88538,8.59894,20.275,16.60977a428.71323,428.71323,0,0,0,45.05131,30.249c.20122.11738.406.23117.60847.34856A425.37267,425.37267,0,0,0,535.72634,970.353c.98328.097,1.98343.13535,2.96922.22519,5.89073.533,11.79464,1.02171,17.75126,1.314q10.59864.53,21.33026.539A426.893,426.893,0,0,0,743.18372,939.2859c7.722,1.78112,17.61951-1.54395,24.89717-5.04988A430.96421,430.96421,0,0,0,826.351,900.85837c5.62243-3.894,11.155-8.024,16.63732-12.257.96182-.68514,1.9597-1.53078,2.94536-2.31773A446.31842,446.31842,0,0,0,913.39927,820.398q4.454-5.329,8.56181-10.62441c52.75431-68.08962,81.80205-153.30286,86.81588-239.30664C1009.29441,561.59009,1010.0598,552.736,1010.22988,543.77655Z" transform="translate(-146 -115.92684)"/><path class="cls-18" d="M1009.99272,531.99148a96.09747,96.09747,0,0,0-5.88355-28.70745c-.30663-2.47224-.5965-4.99838-.88037-7.52692-.32808-2.88189-.71029-5.7458-1.09466-8.61092A425.8473,425.8473,0,0,0,986.655,416.47533c-1.81944-5.83444-3.80059-11.597-5.86079-17.32125-.69591-1.93324-1.42657-3.84851-2.15-5.76856q-2.32311-6.17163-4.82949-12.24742c-.77018-1.87095-1.526-3.74908-2.32252-5.60566-2.36085-5.50265-4.80554-10.95978-7.38678-16.34026-.6-1.2493-1.24929-2.46865-1.86017-3.71076q-3.15318-6.41058-6.5052-12.70137c-1.0804-2.02307-2.18477-4.02817-3.29632-6.03208Q949.454,331.3651,946.311,326.084c-1.09238-1.8434-2.15961-3.70117-3.27955-5.52541q-4.48452-7.30353-9.24215-14.41661c-1.26128-1.88173-2.58124-3.71914-3.87126-5.58051-2.15722-3.11186-4.3408-6.20216-6.57827-9.25173q-2.384-3.2538-4.8247-6.45969c-2.156-2.82679-4.36355-5.61165-6.58785-8.38214-1.732-2.15962-3.44245-4.33241-5.21518-6.45729q-4.91932-5.89314-10.04947-11.6018c-2.0614-2.29857-4.18029-4.54323-6.2908-6.79627q-2.88906-3.08492-5.832-6.11832c-2.29976-2.36084-4.61149-4.70851-6.96384-7.01666-1.786-1.74877-3.61265-3.45562-5.4297-5.17445-1.34752-1.27685-2.7645-2.47823-4.12759-3.73711.64441.65759,1.3032,1.3008,1.94521,1.96078q2.95017,3.02742,5.832,6.11712c2.1105,2.25424,4.2294,4.4989,6.29079,6.79747q5.12595,5.71166,10.04947,11.6018c1.77273,2.12488,3.48318,4.29767,5.21638,6.45729,2.2243,2.77049,4.43075,5.55535,6.58677,8.38214q2.4435,3.20529,4.82458,6.45849c2.23748,3.05077,4.42105,6.14107,6.57947,9.25293,1.28882,1.86137,2.60879,3.69878,3.87006,5.58051q4.76481,7.10769,9.24215,14.41661c1.11994,1.82424,2.18717,3.682,3.27956,5.52421q3.137,5.28765,6.13268,10.66513c1.11155,2.00391,2.21592,4.009,3.29633,6.03208q3.358,6.2866,6.5052,12.70137c.61087,1.24211,1.26007,2.46146,1.86017,3.71076,2.58124,5.38048,5.02593,10.83761,7.38677,16.34026.79653,1.85658,1.55234,3.73471,2.32252,5.60447q2.50638,6.07818,4.82961,12.24861c.72335,1.92005,1.454,3.83412,2.14992,5.76856,2.06139,5.72424,4.04134,11.48681,5.862,17.32125a425.96778,425.96778,0,0,1,15.47785,70.66966c.38449,2.86512.76658,5.73024,1.09478,8.61212.28388,2.52854.57374,5.05468.8145,7.59759A93.36872,93.36872,0,0,1,995.4168,518.024a85.53622,85.53622,0,0,1,.23837,11.78507c-.17129,8.95827-.93536,17.81235-1.45293,26.69037-5.01395,86.00378-34.06265,171.217-86.81707,239.30664q-4.09466,5.28585-8.56181,10.62441a446.26907,446.26907,0,0,1-67.46557,65.88568c-.98579.787-1.98355,1.63259-2.96454,2.40038-5.46312,4.15034-10.9944,8.28033-16.61695,12.17315A430.93652,430.93652,0,0,1,753.505,920.26858c-7.27777,3.50593-17.17512,6.831-24.89728,5.04988a426.88759,426.88759,0,0,1-165.40653,33.14527q-10.73162,0-21.33015-.539c-5.95672-.29227-11.86064-.781-17.75126-1.314-.98589-.08984-1.986-.12936-2.96944-.22638a425.35914,425.35914,0,0,1-172.83762-55.7943c-.20243-.11738-.40725-.23117-.60848-.34856a428.7088,428.7088,0,0,1-45.03334-30.23464q-10.43157-8.01143-20.293-16.62414c-.43719-.3797-.87678-.7558-1.31278-1.1379-2.76689-2.42552-5.3649-5.03072-8.06951-7.52452,7.31381,7.40474,14.81308,14.625,22.64554,21.49316.43469.3821.87548.757,1.31267,1.1367q9.88538,8.59894,20.275,16.60977a428.71323,428.71323,0,0,0,45.05131,30.249c.20122.11738.406.23117.60847.34856A425.37267,425.37267,0,0,0,535.72634,970.353c.98328.097,1.98343.13535,2.96922.22519,5.89073.533,11.79464,1.02171,17.75126,1.314q10.59864.53,21.33026.539A426.893,426.893,0,0,0,743.18372,939.2859c7.722,1.78112,17.61951-1.54395,24.89717-5.04988A430.96421,430.96421,0,0,0,826.351,900.85837c5.62243-3.894,11.155-8.024,16.63732-12.257.96182-.68514,1.9597-1.53078,2.94536-2.31773A446.31842,446.31842,0,0,0,913.39927,820.398q4.454-5.329,8.56181-10.62441c52.75431-68.08962,81.80205-153.30286,86.81588-239.30664.51745-8.87683,1.28284-17.7309,1.45292-26.69037.1211-3.991.18207-7.94974.06948-11.78028C1010.20234,531.99148,1010.08974,531.99627,1009.99272,531.99148Z" transform="translate(-146 -115.92684)"/><path class="cls-19" d="M524.52928,119.33934a70.36973,70.36973,0,0,0-20.65949-1.85058c-24.31516.24075-51.39961,9.302-74.1,17.36078-7.03354,2.49619-13.94479,5.22117-20.795,8.05514-2.919,1.20019-5.79971,2.46146-8.68519,3.71914q-4.92831,2.165-9.78475,4.4462C284.10511,200.48608,202.64934,288.828,166.30956,397.75745q-2.093,6.15006-3.97786,12.3636c-.37251,1.25169-.83606,2.465-1.19659,3.72154a386.86178,386.86178,0,0,0-12.83423,65.15383c53.79867,80.21366,145.28953,133.02426,249.12962,133.02426,165.56464,0,299.7795-134.21606,299.7795-299.77951a298.51476,298.51476,0,0,0-70.90083-193.5115,419.24281,419.24281,0,0,0-101.77989.60967Z" transform="translate(-146 -115.92684)"/><path class="cls-20" d="M911.92719,276.46795c-1.732-2.15962-3.44245-4.33241-5.21518-6.45729q-4.91932-5.89314-10.04947-11.6018c-2.0614-2.29857-4.18029-4.54323-6.2908-6.79627q-2.88906-3.08492-5.832-6.11832c-2.29976-2.36084-4.61149-4.70851-6.96384-7.01666-1.786-1.74877-3.61265-3.45562-5.4297-5.17445q-7.061-6.69087-14.4226-13.05353c-1.41459-1.22414-2.8099-2.46984-4.24258-3.67482-2.943-2.47943-5.93625-4.89537-8.94749-7.29694q-2.16143-1.723-4.34679-3.4161c-3.20768-2.49141-6.426-4.96245-9.7045-7.36282-7.95932-5.80569-15.70543-11.04843-23.61445-16.06717-.64081-.40725-1.27445-.82647-1.91886-1.23013q-5.753-3.60954-11.63174-7.02624c-.73653-.43-1.47808-.85043-2.21831-1.27565a426.98258,426.98258,0,0,0-213.32176-56.97292,431.75936,431.75936,0,0,0-53.2478,3.4125,70.36973,70.36973,0,0,0-20.65949-1.85058c-24.31516.24075-51.39961,9.302-74.1,17.36078-7.03354,2.49619-13.94479,5.22117-20.795,8.05514-2.919,1.20019-5.79971,2.46146-8.68519,3.71914q-4.92831,2.165-9.78475,4.4462c-6.268,2.91183-12.43307,5.98177-18.52384,9.15951-1.99192,1.03968-3.93344,2.15123-5.9063,3.21966-4.0689,2.20034-8.11983,4.41985-12.10248,6.73877-2.29138,1.33314-4.536,2.72138-6.79746,4.09285-3.59218,2.17759-7.1616,4.38033-10.67951,6.65373-2.32731,1.50323-4.62467,3.0376-6.91844,4.58155q-5.08806,3.42628-10.065,6.98193c-2.24466,1.60384-4.48214,3.21606-6.69206,4.86063-3.32986,2.477-6.601,5.01635-9.85183,7.582-2.0638,1.629-4.142,3.24122-6.17222,4.90615-3.47828,2.84954-6.87292,5.78174-10.25189,8.73309-1.69008,1.47568-3.4161,2.913-5.08223,4.41386q-7.1562,6.4519-14.00816,13.19966c-.20482.20123-.42162.39048-.62525.59171q-7.10769,7.043-13.83927,14.4214c-1.51281,1.647-2.95256,3.35142-4.43662,5.02234-2.95256,3.32147-5.88594,6.65732-8.7282,10.06863-1.6842,2.02067-3.3096,4.08686-4.95417,6.13987-2.54291,3.17175-5.05827,6.36267-7.50655,9.60748-1.65415,2.19436-3.27117,4.41266-4.881,6.63816q-3.49275,4.82769-6.84168,9.75122c-1.55483,2.28538-3.09639,4.57675-4.60441,6.89328-2.19794,3.37538-4.32043,6.79747-6.419,10.23872-1.39063,2.28179-2.798,4.55041-4.14436,6.861-2.186,3.74908-4.26653,7.55925-6.33261,11.3814-1.11645,2.0638-2.2783,4.09884-3.35871,6.183q-4.19168,8.08869-8.018,16.38338a401.2062,401.2062,0,0,0-16.45406,41.38248q-2.093,6.15006-3.97786,12.3636c-.37251,1.25169-.83606,2.465-1.19659,3.72154-15.15685,52.11468-19.48567,107.41908-10.37527,162.94986.19524,2.27221.4348,4.5588.64681,6.855.23956,2.61.4876,5.214.77257,7.8108.16171,1.45531.29586,2.91781.47074,4.36834.14493,1.20378.34256,2.39079.49708,3.591.1641,1.25768.34736,2.50937.52224,3.76346.36772,2.66748.69112,5.34574,1.10675,7.99645.40486,2.55848.90553,5.08462,1.35471,7.62753.33777,1.91527.66,3.83413,1.02411,5.741.2133,1.11634.38688,2.24586.60858,3.35981.73773,3.71674,1.58817,7.39037,2.42063,11.07237.51266,2.259,1.01213,4.52047,1.55952,6.76633.17009.69711.31383,1.40381.48631,2.09852.80012,3.21488,1.67092,6.39741,2.54291,9.58233.50427,1.83981,1.03369,3.67,1.56192,5.50026a424.786,424.786,0,0,0,20.32411,55.64577c.11619.26232.236.52224.35335.78455q5.03611,11.21313,10.67831,22.07768a428.98993,428.98993,0,0,0,59.90881,87.0255c3.74179,4.21143,7.70768,8.20846,11.61128,12.26418a429.32175,429.32175,0,0,1-42.92883-66.675q-5.64862-10.86276-10.6783-22.07888c-.11739-.26231-.23716-.52223-.35335-.78455A424.78745,424.78745,0,0,1,194.926,695.53905c-.52822-1.83023-1.05764-3.66045-1.56191-5.50026-.872-3.18492-1.744-6.36745-2.54291-9.58232-.17249-.69472-.31622-1.40142-.48631-2.09853-.54739-2.24586-1.04687-4.50729-1.55952-6.76633-.83247-3.682-1.6829-7.35563-2.42064-11.07237-.22169-1.11395-.39527-2.24347-.60857-3.35981-.36413-1.90688-.68634-3.82574-1.02412-5.741-.44917-2.54291-.94984-5.069-1.3547-7.62753-.41563-2.65071-.739-5.33017-1.10676-7.99645-.17487-1.25409-.35814-2.50578-.52223-3.76346-.15452-1.20019-.35215-2.3872-.49709-3.591-.17607-1.45052-.309-2.913-.47073-4.36834-.285-2.59681-.533-5.20081-.77257-7.8108-.212-2.29616-.45157-4.58275-.62635-6.88849-9.13086-55.49725-4.802-110.80165,10.45063-162.9367.26471-1.23731.72825-2.44948,1.10077-3.70117q1.88652-6.21474,3.97786-12.3636c3.54666-10.63039,7.6467-20.99967,12.033-31.22042a222.33584,222.33584,0,0,0,177.0251,87.6232c123.06223,0,222.82384-99.76281,222.82384-222.82384a221.52422,221.52422,0,0,0-31.51987-114.171c10.27226-.77616,20.63195-1.23851,31.10424-1.23851a426.92169,426.92169,0,0,1,213.323,56.97292c.74023.42522,1.48178.84564,2.2183,1.27565q5.87337,3.42987,11.63175,7.02624c.64441.40366,1.278.82288,1.91886,1.23013q11.86352,7.52812,23.2,15.77251c3.69291,2.695,6.91126,5.16607,10.11774,7.65748q2.18656,1.69428,4.348,3.4161c3.01005,2.40157,6.00453,4.81751,8.9475,7.29694,1.43136,1.205,2.828,2.45068,4.24258,3.67482q7.361,6.36567,14.4226,13.05353c1.81585,1.71883,3.64368,3.42568,5.42838,5.17446,2.35366,2.30814,4.6654,4.65581,6.96516,7.01665.1641.16889.3222.34137.48642.51026C913.04952,277.9053,912.49853,277.17824,911.92719,276.46795Z" transform="translate(-146 -115.92684)"/><g class="cls-21"><path class="cls-22" d="M1010.29936,531.99627a107.59684,107.59684,0,0,0-6.19019-28.71224c-.30663-2.47224-.5965-4.99838-.88037-7.52692-.32808-2.88189-.71029-5.7458-1.09466-8.61092A425.8473,425.8473,0,0,0,986.655,416.47533c-1.81944-5.83444-3.80059-11.597-5.86079-17.32125-.69591-1.93324-1.42657-3.84851-2.15-5.76856q-2.32311-6.17163-4.82949-12.24742c-.77018-1.87095-1.526-3.74908-2.32252-5.60566-2.36085-5.50265-4.80554-10.95978-7.38678-16.34026-.6-1.2493-1.24929-2.46865-1.86017-3.71076q-3.15318-6.41058-6.5052-12.70137c-1.0804-2.02307-2.18477-4.02817-3.29632-6.03208Q949.454,331.3651,946.311,326.084c-1.09238-1.8434-2.15961-3.70117-3.27955-5.52541q-4.48452-7.30353-9.24215-14.41661c-1.26128-1.88173-2.58124-3.71914-3.87126-5.58051-2.15722-3.11186-4.3408-6.20216-6.57827-9.25173q-2.384-3.2538-4.8247-6.45969c-2.156-2.82679-4.36355-5.61165-6.58785-8.38214-1.732-2.15962-3.44245-4.33241-5.21518-6.45729q-4.91932-5.89314-10.04947-11.6018c-2.0614-2.29857-4.18029-4.54323-6.2908-6.79627q-2.88906-3.08492-5.832-6.11832c-2.29976-2.36084-4.61149-4.70851-6.96384-7.01666-1.786-1.74877-3.61265-3.45562-5.4297-5.17445q-7.061-6.69087-14.4226-13.05353c-1.41459-1.22414-2.8099-2.46984-4.24258-3.67482-2.943-2.47943-5.93625-4.89537-8.94749-7.29694q-2.16143-1.723-4.34679-3.4161c-3.20768-2.49141-6.426-4.96245-9.7045-7.36282-7.95932-5.80569-15.70543-11.04843-23.61445-16.06717-.64081-.40725-1.27445-.82647-1.91886-1.23013q-5.753-3.60954-11.63174-7.02624c-.73653-.43-1.47808-.85043-2.21831-1.27565a426.98258,426.98258,0,0,0-213.32176-56.97292,431.75936,431.75936,0,0,0-53.2478,3.4125,70.36973,70.36973,0,0,0-20.65949-1.85058c-24.31516.24075-51.39961,9.302-74.1,17.36078-7.03354,2.49619-13.94479,5.22117-20.795,8.05514-2.919,1.20019-5.79971,2.46146-8.68519,3.71914q-4.92831,2.165-9.78475,4.4462C284.10511,200.48608,202.64934,288.828,166.30956,397.75745q-2.093,6.15006-3.97786,12.3636c-.37251,1.25169-.83606,2.465-1.19659,3.72154-15.15685,52.11468-19.48567,107.41908-10.37527,162.94986.19524,2.27221.4348,4.5588.64681,6.855.23956,2.61.4876,5.214.77257,7.8108.16171,1.45531.29586,2.91781.47074,4.36834.14493,1.20378.34256,2.39079.49708,3.591.1641,1.25768.34736,2.50937.52224,3.76346.36772,2.66748.69112,5.34574,1.10675,7.99645.40486,2.55848.90553,5.08462,1.35471,7.62753.33777,1.91527.66,3.83413,1.02411,5.741.2133,1.11634.38688,2.24586.60858,3.35981.73773,3.71674,1.58817,7.39037,2.42063,11.07237.51266,2.259,1.01213,4.52047,1.55952,6.76633.17009.69711.31383,1.40381.48631,2.09852.80012,3.21488,1.67092,6.39741,2.54291,9.58233.50427,1.83981,1.03369,3.67,1.56192,5.50026a424.786,424.786,0,0,0,20.32411,55.64577c.11619.26232.236.52224.35335.78455q5.03611,11.21313,10.67831,22.07768a428.24311,428.24311,0,0,0,97.95065,124.77987c.43469.3821.87548.757,1.31267,1.1367q9.88538,8.59894,20.275,16.60977a428.71323,428.71323,0,0,0,45.05131,30.249c.20122.11738.406.23117.60847.34856A425.37267,425.37267,0,0,0,535.72634,970.353c.98328.097,1.98343.13535,2.96922.22519,5.89073.533,11.79464,1.02171,17.75126,1.314q10.59864.53,21.33026.539A426.893,426.893,0,0,0,743.18372,939.2859c7.722,1.78112,17.61951-1.54395,24.89717-5.04988A430.96421,430.96421,0,0,0,826.351,900.85837c5.62243-3.894,11.155-8.024,16.63732-12.257.96182-.68514,1.9597-1.53078,2.94536-2.31773A446.31842,446.31842,0,0,0,913.39927,820.398q4.454-5.329,8.56181-10.62441c52.75431-68.08962,81.80205-153.30286,86.81588-239.30664.51745-8.87683,1.28284-17.7309,1.45292-26.69037C1010.351,539.78551,1010.412,535.82681,1010.29936,531.99627Z" transform="translate(-146 -115.92684)"/></g><g class="cls-23"><circle class="cls-24" cx="492.28805" cy="312.87929" r="172.52546" transform="translate(-223.05124 323.8136) rotate(-45)"/></g><g class="cls-25"><path class="cls-26" d="M962.82012,382.173a421.31163,421.31163,0,0,1-24.19178,151.03784c-77.981,219.924-319.47957,334.991-539.40355,257.01C285.82394,750.011,200.41187,666.27342,154.86228,564.48635c3.99942,170.157,111.23644,328.09888,281.20057,388.36573,219.92278,77.981,461.42257-37.086,539.40355-257.00879A420.936,420.936,0,0,0,962.82012,382.173Z" transform="translate(-146 -115.92684)"/></g><g class="cls-27"><path class="cls-28" d="M749.35463,169.31358a421.34326,421.34326,0,0,1,83.03565,128.46307c89.12163,215.64907-13.44879,462.715-229.09906,551.83783-111.19692,45.95445-230.69931,40.8303-332.6409-4.37313,116.78222,123.81924,302.14035,169.51137,468.801,100.6348C955.10036,856.75452,1057.672,609.68858,968.54916,394.03951A420.93428,420.93428,0,0,0,749.35463,169.31358Z" transform="translate(-146 -115.92684)"/></g></g></g></svg>